<svg xmlns="http://www.w3.org/2000/svg" xmlns:xlink="http://www.w3.org/1999/xlink" width="124" zoomAndPan="magnify" viewBox="0 0 93 130.499996" height="174" preserveAspectRatio="xMidYMid meet" version="1.0"><defs><g/><clipPath id="f254c61592"><path d="M 20 17.847656 L 72 17.847656 L 72 92 L 20 92 Z M 20 17.847656 " clip-rule="nonzero"/></clipPath><clipPath id="7cfa30e5ed"><path d="M 0.175781 65 L 92.074219 65 L 92.074219 129.171875 L 0.175781 129.171875 Z M 0.175781 65 " clip-rule="nonzero"/></clipPath></defs><g clip-path="url(#f254c61592)"><path fill="#7ed957" d="M 62.867188 23.90625 C 64.710938 25.519531 66.324219 27.195312 67.675781 29.25 C 67.789062 29.417969 67.902344 29.585938 68.019531 29.757812 C 70.371094 33.371094 71.773438 37.773438 71.949219 42.074219 C 71.964844 42.398438 71.964844 42.398438 71.980469 42.734375 C 72.160156 50.808594 67.691406 59.117188 64.113281 66.125 C 63.914062 66.515625 63.722656 66.90625 63.527344 67.300781 C 62.511719 69.363281 61.4375 71.386719 60.324219 73.402344 C 60.050781 73.898438 59.777344 74.394531 59.507812 74.890625 C 58.09375 77.472656 56.652344 80.035156 55.136719 82.5625 C 54.734375 83.242188 54.332031 83.925781 53.929688 84.605469 C 50.734375 90.046875 50.734375 90.046875 48.621094 91.054688 C 48.476562 91.128906 48.332031 91.203125 48.1875 91.277344 C 46.378906 91.804688 44.558594 91.605469 42.894531 90.734375 C 40.351562 89.09375 38.976562 85.777344 37.53125 83.230469 C 37.117188 82.5 36.691406 81.777344 36.265625 81.058594 C 35.503906 79.769531 34.765625 78.46875 34.039062 77.164062 C 33.84375 76.8125 33.644531 76.464844 33.449219 76.113281 C 20.628906 53.320312 20.628906 53.320312 20.300781 44.390625 C 20.292969 44.113281 20.292969 44.113281 20.28125 43.835938 C 20.148438 36.933594 22.847656 30.460938 27.617188 25.503906 C 36.980469 15.964844 52.707031 15.125 62.867188 23.90625 Z M 62.867188 23.90625 " fill-opacity="1" fill-rule="nonzero"/></g><g clip-path="url(#7cfa30e5ed)"><path fill="#7ed957" d="M 20.089844 65.207031 C 20.492188 65.207031 20.894531 65.210938 21.292969 65.210938 C 22.269531 65.214844 23.246094 65.222656 24.21875 65.226562 C 25.832031 68.238281 25.832031 68.238281 26.445312 69.457031 C 26.507812 69.578125 26.570312 69.699219 26.632812 69.820312 C 26.894531 70.34375 27.070312 70.691406 27.070312 71.285156 C 26.800781 71.289062 26.800781 71.289062 26.523438 71.292969 C 25.847656 71.308594 25.171875 71.324219 24.496094 71.339844 C 24.203125 71.347656 23.914062 71.355469 23.621094 71.359375 C 20.925781 71.410156 18.554688 71.566406 16.5625 73.601562 C 15.554688 74.886719 15.234375 76.304688 14.996094 77.882812 C 14.96875 78.054688 14.941406 78.226562 14.914062 78.40625 C 14.824219 78.972656 14.734375 79.542969 14.644531 80.109375 C 14.582031 80.507812 14.519531 80.902344 14.457031 81.296875 C 14.292969 82.335938 14.132812 83.375 13.96875 84.417969 C 13.707031 86.082031 13.445312 87.75 13.179688 89.417969 C 13.089844 90 12.996094 90.582031 12.90625 91.164062 C 12.851562 91.519531 12.796875 91.875 12.738281 92.230469 C 12.714844 92.394531 12.6875 92.554688 12.664062 92.722656 C 12.640625 92.871094 12.617188 93.019531 12.59375 93.171875 C 12.5625 93.367188 12.5625 93.367188 12.53125 93.566406 C 12.464844 93.90625 12.464844 93.90625 12.289062 94.4375 C 13.640625 94.441406 14.332031 94.042969 15.316406 93.148438 C 15.582031 92.917969 15.847656 92.6875 16.113281 92.460938 C 16.246094 92.34375 16.378906 92.226562 16.515625 92.109375 C 17.136719 91.582031 17.78125 91.097656 18.433594 90.609375 C 19.605469 89.722656 20.746094 88.804688 21.875 87.863281 C 22.75 87.136719 23.636719 86.429688 24.535156 85.730469 C 25.320312 85.121094 26.089844 84.492188 26.859375 83.863281 C 30.207031 81.128906 30.207031 81.128906 31.878906 80.011719 C 32.628906 81.054688 33.285156 82.160156 33.925781 83.273438 C 34.011719 83.414062 34.09375 83.554688 34.179688 83.699219 C 34.257812 83.832031 34.332031 83.96875 34.410156 84.105469 C 34.515625 84.285156 34.515625 84.285156 34.621094 84.472656 C 34.726562 84.820312 34.726562 84.820312 34.601562 85.195312 C 34.253906 85.710938 33.773438 86.046875 33.28125 86.414062 C 33.054688 86.585938 32.828125 86.761719 32.601562 86.933594 C 32.421875 87.070312 32.421875 87.070312 32.242188 87.210938 C 31.632812 87.683594 31.039062 88.171875 30.441406 88.660156 C 29.414062 89.5 28.371094 90.316406 27.316406 91.121094 C 26.464844 91.777344 25.636719 92.460938 24.808594 93.140625 C 24.691406 93.234375 24.578125 93.328125 24.457031 93.425781 C 24.355469 93.507812 24.253906 93.59375 24.148438 93.679688 C 23.886719 93.886719 23.609375 94.074219 23.328125 94.261719 C 23.4375 94.261719 23.546875 94.261719 23.65625 94.265625 C 24.796875 94.277344 25.933594 94.289062 27.074219 94.308594 C 27.496094 94.3125 27.921875 94.320312 28.34375 94.324219 C 33.539062 94.375 37.832031 95.339844 41.695312 99.078125 C 42.851562 100.3125 43.945312 101.828125 44.703125 103.34375 C 44.820312 103.34375 44.9375 103.34375 45.058594 103.34375 C 45.304688 103.066406 45.542969 102.78125 45.769531 102.488281 C 46.34375 101.769531 46.929688 101.082031 47.550781 100.40625 C 48.136719 99.769531 48.699219 99.121094 49.242188 98.445312 C 49.925781 97.597656 50.648438 96.796875 51.386719 95.996094 C 51.8125 95.523438 52.214844 95.035156 52.617188 94.539062 C 53.191406 93.828125 53.785156 93.148438 54.40625 92.480469 C 55.457031 91.351562 56.492188 90.199219 57.347656 88.917969 C 56.875 88.566406 56.40625 88.210938 55.921875 87.847656 C 56.472656 86.6875 57.078125 85.558594 57.714844 84.441406 C 57.789062 84.304688 57.863281 84.167969 57.941406 84.027344 C 58.015625 83.898438 58.089844 83.769531 58.164062 83.640625 C 58.230469 83.523438 58.296875 83.410156 58.363281 83.289062 C 58.4375 83.207031 58.515625 83.125 58.59375 83.039062 C 59.4375 83.039062 59.859375 83.335938 60.542969 83.773438 C 63.71875 85.730469 67.371094 87.066406 71.058594 87.671875 C 71.335938 87.722656 71.335938 87.722656 71.617188 87.773438 C 74.070312 88.171875 76.59375 88.144531 79.074219 88.203125 C 79 87.929688 79 87.929688 78.921875 87.644531 C 78.648438 86.550781 78.496094 85.441406 78.324219 84.328125 C 78.269531 83.96875 78.210938 83.609375 78.15625 83.25 C 78.015625 82.371094 77.878906 81.492188 77.746094 80.613281 C 77.652344 79.996094 77.554688 79.382812 77.457031 78.769531 C 77.402344 78.425781 77.351562 78.082031 77.300781 77.738281 C 76.972656 75.710938 76.28125 73.960938 74.667969 72.632812 C 72.757812 71.300781 70.394531 71.371094 68.164062 71.339844 C 67.875 71.332031 67.585938 71.328125 67.292969 71.320312 C 66.589844 71.304688 65.886719 71.292969 65.183594 71.285156 C 65.429688 70.488281 65.742188 69.765625 66.121094 69.019531 C 66.175781 68.910156 66.230469 68.800781 66.285156 68.6875 C 66.457031 68.34375 66.632812 68 66.808594 67.65625 C 66.925781 67.417969 67.046875 67.183594 67.164062 66.949219 C 67.453125 66.375 67.742188 65.800781 68.03125 65.226562 C 69.207031 65.21875 70.382812 65.214844 71.558594 65.207031 C 71.957031 65.207031 72.355469 65.203125 72.753906 65.203125 C 79.632812 65.148438 79.632812 65.148438 82.425781 67.824219 C 84.222656 69.8125 84.527344 72.289062 84.925781 74.839844 C 84.976562 75.140625 85.023438 75.445312 85.070312 75.75 C 85.203125 76.570312 85.332031 77.394531 85.460938 78.214844 C 85.597656 79.089844 85.738281 79.960938 85.875 80.835938 C 86.140625 82.496094 86.402344 84.160156 86.664062 85.820312 C 86.988281 87.855469 87.308594 89.886719 87.632812 91.921875 C 87.746094 92.644531 87.859375 93.367188 87.976562 94.089844 C 88.003906 94.269531 88.03125 94.445312 88.058594 94.628906 C 88.257812 95.871094 88.453125 97.113281 88.648438 98.355469 C 89.269531 102.257812 89.886719 106.160156 90.515625 110.0625 C 90.5625 110.355469 90.5625 110.355469 90.609375 110.65625 C 90.917969 112.578125 91.230469 114.503906 91.554688 116.421875 C 92.660156 123.035156 92.660156 123.035156 91.019531 125.574219 C 90.839844 125.824219 90.65625 126.074219 90.472656 126.320312 C 90.371094 126.476562 90.265625 126.628906 90.160156 126.789062 C 88.765625 128.261719 86.972656 129.167969 84.9375 129.253906 C 84.214844 129.269531 83.492188 129.265625 82.769531 129.261719 C 82.441406 129.265625 82.113281 129.265625 81.785156 129.265625 C 80.882812 129.269531 79.980469 129.269531 79.082031 129.265625 C 78.109375 129.265625 77.136719 129.269531 76.164062 129.269531 C 74.257812 129.273438 72.351562 129.273438 70.449219 129.273438 C 68.898438 129.273438 67.351562 129.273438 65.804688 129.273438 C 65.582031 129.273438 65.363281 129.273438 65.136719 129.273438 C 64.6875 129.273438 64.238281 129.273438 63.792969 129.273438 C 59.710938 129.277344 55.632812 129.277344 51.550781 129.273438 C 47.832031 129.269531 44.109375 129.273438 40.386719 129.277344 C 36.203125 129.28125 32.019531 129.285156 27.835938 129.285156 C 27.390625 129.285156 26.945312 129.285156 26.496094 129.285156 C 26.277344 129.285156 26.058594 129.28125 25.832031 129.28125 C 24.285156 129.28125 22.738281 129.285156 21.195312 129.285156 C 19.308594 129.289062 17.425781 129.289062 15.539062 129.285156 C 14.578125 129.285156 13.617188 129.285156 12.65625 129.285156 C 11.773438 129.289062 10.894531 129.289062 10.011719 129.285156 C 9.695312 129.285156 9.378906 129.285156 9.058594 129.285156 C 6.488281 129.304688 4.425781 128.960938 2.503906 127.097656 C 0.953125 125.542969 0.152344 123.714844 0.140625 121.515625 C 0.15625 120.25 0.328125 119.035156 0.539062 117.789062 C 0.574219 117.550781 0.613281 117.3125 0.652344 117.074219 C 0.734375 116.566406 0.816406 116.058594 0.902344 115.554688 C 1.039062 114.738281 1.171875 113.917969 1.304688 113.101562 C 1.441406 112.246094 1.582031 111.390625 1.71875 110.535156 C 2.027344 108.660156 2.328125 106.78125 2.621094 104.898438 C 2.640625 104.773438 2.660156 104.652344 2.679688 104.523438 C 2.777344 103.894531 2.878906 103.261719 2.976562 102.632812 C 3.824219 97.1875 4.691406 91.746094 5.570312 86.304688 C 5.667969 85.707031 5.765625 85.109375 5.859375 84.511719 C 5.882812 84.363281 5.90625 84.21875 5.933594 84.066406 C 6.238281 82.171875 6.539062 80.273438 6.832031 78.375 C 6.957031 77.566406 7.085938 76.757812 7.210938 75.945312 C 7.277344 75.523438 7.34375 75.101562 7.40625 74.675781 C 7.496094 74.101562 7.585938 73.527344 7.675781 72.953125 C 7.699219 72.792969 7.722656 72.628906 7.746094 72.460938 C 8.125 70.109375 9.164062 68.277344 11.003906 66.753906 C 13.679688 64.863281 16.976562 65.183594 20.089844 65.207031 Z M 62.347656 92.066406 C 62.152344 92.28125 61.957031 92.496094 61.765625 92.714844 C 61.664062 92.828125 61.558594 92.941406 61.453125 93.058594 C 60.722656 93.875 60.023438 94.714844 59.335938 95.570312 C 58.925781 96.070312 58.496094 96.546875 58.058594 97.023438 C 57.472656 97.660156 56.910156 98.308594 56.367188 98.980469 C 55.824219 99.65625 55.261719 100.304688 54.675781 100.941406 C 53.945312 101.734375 53.257812 102.554688 52.582031 103.394531 C 52.035156 104.054688 51.457031 104.679688 50.875 105.304688 C 50.539062 105.628906 50.539062 105.628906 50.578125 106.015625 C 60.863281 106.015625 71.148438 106.015625 81.746094 106.015625 C 81.746094 105.113281 81.742188 104.390625 81.605469 103.523438 C 81.574219 103.328125 81.542969 103.128906 81.511719 102.925781 C 81.476562 102.71875 81.441406 102.511719 81.40625 102.296875 C 81.371094 102.078125 81.339844 101.859375 81.300781 101.636719 C 81.230469 101.175781 81.15625 100.71875 81.082031 100.261719 C 81.003906 99.792969 80.929688 99.324219 80.855469 98.855469 C 80.746094 98.175781 80.636719 97.496094 80.527344 96.820312 C 80.476562 96.503906 80.476562 96.503906 80.425781 96.183594 C 80.394531 95.988281 80.363281 95.792969 80.332031 95.589844 C 80.289062 95.335938 80.289062 95.335938 80.246094 95.070312 C 80.148438 94.632812 80.007812 94.292969 79.785156 93.90625 C 79.597656 93.902344 79.40625 93.898438 79.207031 93.898438 C 74.019531 93.820312 68.832031 93.71875 63.953125 91.714844 C 63.191406 91.460938 62.933594 91.527344 62.347656 92.066406 Z M 11.398438 100.136719 C 11.160156 101.164062 10.953125 102.1875 10.789062 103.226562 C 10.765625 103.363281 10.742188 103.503906 10.71875 103.644531 C 10.644531 104.097656 10.574219 104.550781 10.5 105.003906 C 10.449219 105.320312 10.398438 105.640625 10.347656 105.957031 C 10.238281 106.621094 10.132812 107.285156 10.023438 107.949219 C 9.890625 108.796875 9.75 109.644531 9.613281 110.492188 C 9.507812 111.148438 9.402344 111.800781 9.296875 112.457031 C 9.246094 112.769531 9.195312 113.082031 9.144531 113.394531 C 9.074219 113.832031 9.003906 114.269531 8.933594 114.707031 C 8.902344 114.898438 8.902344 114.898438 8.867188 115.09375 C 8.566406 117.035156 8.722656 118.960938 9.859375 120.625 C 11.019531 122.023438 12.253906 123.007812 14.070312 123.292969 C 14.570312 123.308594 15.066406 123.316406 15.570312 123.316406 C 15.792969 123.316406 15.792969 123.316406 16.023438 123.316406 C 16.53125 123.316406 17.035156 123.316406 17.539062 123.3125 C 17.898438 123.3125 18.261719 123.3125 18.621094 123.3125 C 19.605469 123.3125 20.585938 123.3125 21.566406 123.3125 C 22.59375 123.308594 23.621094 123.308594 24.644531 123.308594 C 26.589844 123.308594 28.53125 123.308594 30.472656 123.304688 C 32.683594 123.304688 34.898438 123.304688 37.109375 123.300781 C 41.65625 123.300781 46.207031 123.296875 50.757812 123.292969 C 50.617188 123.039062 50.476562 122.78125 50.335938 122.527344 C 50.214844 122.3125 50.214844 122.3125 50.097656 122.097656 C 49.804688 121.582031 49.484375 121.089844 49.152344 120.601562 C 48.957031 120.308594 48.957031 120.308594 48.757812 120.011719 C 48.6875 119.910156 48.621094 119.8125 48.550781 119.707031 C 48.191406 119.175781 47.835938 118.644531 47.476562 118.109375 C 47.40625 118.003906 47.335938 117.898438 47.265625 117.789062 C 46.660156 116.886719 46.078125 115.976562 45.503906 115.054688 C 44.835938 113.988281 44.15625 112.933594 43.453125 111.890625 C 42.761719 110.859375 42.085938 109.820312 41.40625 108.777344 C 41.175781 108.425781 40.945312 108.070312 40.714844 107.71875 C 40.328125 107.125 39.941406 106.53125 39.558594 105.933594 C 37.769531 103.164062 35.898438 101.140625 32.589844 100.316406 C 31.515625 100.121094 30.464844 100.113281 29.371094 100.117188 C 29.175781 100.117188 28.980469 100.117188 28.78125 100.117188 C 28.140625 100.117188 27.5 100.121094 26.859375 100.121094 C 26.414062 100.121094 25.96875 100.121094 25.523438 100.121094 C 24.472656 100.121094 23.421875 100.125 22.371094 100.125 C 21.054688 100.128906 19.742188 100.128906 18.425781 100.128906 C 16.082031 100.132812 13.742188 100.136719 11.398438 100.136719 Z M 50.222656 111.714844 C 50.589844 112.445312 50.933594 113.085938 51.378906 113.757812 C 51.558594 114.035156 51.558594 114.035156 51.746094 114.316406 C 51.875 114.511719 52.003906 114.710938 52.136719 114.910156 C 52.273438 115.117188 52.40625 115.320312 52.542969 115.527344 C 52.75 115.84375 52.957031 116.160156 53.167969 116.476562 C 53.625 117.171875 54.082031 117.871094 54.535156 118.570312 C 54.652344 118.75 54.769531 118.929688 54.890625 119.117188 C 55.109375 119.457031 55.332031 119.792969 55.550781 120.132812 C 55.652344 120.289062 55.753906 120.445312 55.855469 120.605469 C 55.941406 120.738281 56.027344 120.871094 56.117188 121.007812 C 56.230469 121.175781 56.339844 121.339844 56.457031 121.511719 C 56.535156 121.65625 56.613281 121.796875 56.691406 121.945312 C 57.242188 122.890625 57.242188 122.890625 58.140625 123.457031 C 58.667969 123.515625 59.167969 123.519531 59.699219 123.503906 C 59.996094 123.503906 59.996094 123.503906 60.296875 123.507812 C 60.949219 123.507812 61.597656 123.496094 62.25 123.484375 C 62.703125 123.484375 63.15625 123.484375 63.609375 123.480469 C 64.558594 123.480469 65.507812 123.472656 66.460938 123.457031 C 67.675781 123.441406 68.890625 123.433594 70.105469 123.429688 C 71.265625 123.425781 72.429688 123.417969 73.589844 123.40625 C 73.8125 123.40625 74.03125 123.40625 74.257812 123.40625 C 74.886719 123.398438 75.515625 123.390625 76.140625 123.382812 C 76.324219 123.382812 76.507812 123.378906 76.699219 123.378906 C 78.679688 123.339844 80.328125 122.746094 81.777344 121.378906 C 82.933594 120.175781 83.519531 118.730469 83.59375 117.058594 C 83.496094 115.261719 83.121094 113.488281 82.8125 111.714844 C 72.058594 111.714844 61.304688 111.714844 50.222656 111.714844 Z M 50.222656 111.714844 " fill-opacity="1" fill-rule="nonzero"/></g><path fill="#ffffff" d="M 31.699219 80.011719 C 32.558594 80.808594 33.0625 81.761719 33.636719 82.773438 C 33.746094 82.957031 33.859375 83.144531 33.972656 83.335938 C 34.074219 83.515625 34.175781 83.695312 34.28125 83.878906 C 34.375 84.042969 34.46875 84.207031 34.566406 84.375 C 34.726562 84.820312 34.726562 84.820312 34.609375 85.210938 C 34.246094 85.707031 33.769531 86.046875 33.28125 86.414062 C 33.054688 86.585938 32.828125 86.761719 32.601562 86.933594 C 32.421875 87.070312 32.421875 87.070312 32.242188 87.210938 C 31.632812 87.683594 31.039062 88.171875 30.441406 88.660156 C 29.414062 89.5 28.371094 90.316406 27.316406 91.121094 C 26.464844 91.777344 25.636719 92.460938 24.808594 93.140625 C 24.632812 93.28125 24.632812 93.28125 24.457031 93.425781 C 24.355469 93.507812 24.253906 93.59375 24.148438 93.679688 C 23.886719 93.886719 23.609375 94.074219 23.328125 94.261719 C 23.492188 94.261719 23.492188 94.261719 23.65625 94.265625 C 24.796875 94.277344 25.933594 94.289062 27.074219 94.308594 C 27.496094 94.3125 27.921875 94.320312 28.34375 94.324219 C 33.539062 94.375 37.832031 95.339844 41.695312 99.078125 C 42.851562 100.3125 43.945312 101.828125 44.703125 103.34375 C 44.820312 103.34375 44.9375 103.34375 45.058594 103.34375 C 45.304688 103.066406 45.542969 102.78125 45.769531 102.488281 C 46.34375 101.769531 46.929688 101.082031 47.550781 100.40625 C 48.136719 99.769531 48.699219 99.121094 49.242188 98.445312 C 49.925781 97.597656 50.648438 96.796875 51.386719 95.996094 C 51.8125 95.523438 52.214844 95.035156 52.617188 94.539062 C 53.191406 93.828125 53.785156 93.148438 54.40625 92.480469 C 55.457031 91.351562 56.492188 90.199219 57.347656 88.917969 C 56.875 88.566406 56.40625 88.210938 55.921875 87.847656 C 56.472656 86.6875 57.078125 85.558594 57.714844 84.441406 C 57.789062 84.304688 57.863281 84.167969 57.941406 84.027344 C 58.015625 83.898438 58.089844 83.769531 58.164062 83.640625 C 58.230469 83.523438 58.296875 83.410156 58.363281 83.289062 C 58.4375 83.207031 58.515625 83.125 58.59375 83.039062 C 59.4375 83.039062 59.859375 83.335938 60.542969 83.773438 C 63.71875 85.730469 67.371094 87.066406 71.058594 87.671875 C 71.335938 87.722656 71.335938 87.722656 71.617188 87.773438 C 74.070312 88.171875 76.59375 88.144531 79.074219 88.203125 C 79.207031 88.925781 79.335938 89.648438 79.464844 90.371094 C 79.507812 90.617188 79.554688 90.863281 79.597656 91.109375 C 79.664062 91.464844 79.726562 91.816406 79.789062 92.171875 C 79.84375 92.488281 79.84375 92.488281 79.902344 92.816406 C 79.957031 93.316406 79.953125 93.617188 79.785156 94.082031 C 68.738281 93.933594 68.738281 93.933594 63.96875 91.875 C 63.453125 91.734375 63.195312 91.757812 62.6875 91.945312 C 62.34375 92.257812 62.054688 92.554688 61.753906 92.902344 C 61.625 93.046875 61.625 93.046875 61.496094 93.195312 C 60.816406 93.964844 60.171875 94.757812 59.527344 95.558594 C 59.113281 96.0625 58.679688 96.542969 58.238281 97.023438 C 57.652344 97.660156 57.089844 98.308594 56.546875 98.980469 C 56 99.65625 55.441406 100.304688 54.851562 100.941406 C 54.121094 101.734375 53.4375 102.554688 52.761719 103.394531 C 52.21875 104.050781 51.644531 104.679688 51.070312 105.304688 C 50.75 105.640625 50.75 105.640625 50.578125 106.015625 C 60.863281 106.015625 71.148438 106.015625 81.746094 106.015625 C 81.804688 105.839844 81.863281 105.664062 81.925781 105.480469 C 82.050781 106.285156 82.179688 107.085938 82.304688 107.886719 C 82.347656 108.160156 82.390625 108.433594 82.433594 108.707031 C 82.496094 109.097656 82.558594 109.492188 82.621094 109.882812 C 82.640625 110.003906 82.660156 110.125 82.679688 110.253906 C 82.757812 110.746094 82.8125 111.214844 82.8125 111.714844 C 72.117188 111.773438 61.421875 111.832031 50.402344 111.894531 C 51.402344 113.5 52.402344 115.089844 53.457031 116.65625 C 54.089844 117.605469 54.71875 118.5625 55.34375 119.519531 C 55.453125 119.691406 55.566406 119.859375 55.679688 120.035156 C 56.378906 121.105469 57.054688 122.191406 57.703125 123.292969 C 51.777344 123.792969 51.777344 123.792969 50.265625 123.054688 C 49.535156 122.386719 49.207031 121.511719 48.847656 120.601562 C 48.40625 119.605469 47.75 118.730469 47.140625 117.828125 C 46.875 117.429688 46.617188 117.027344 46.355469 116.628906 C 46.226562 116.433594 46.101562 116.234375 45.96875 116.03125 C 45.84375 115.84375 45.71875 115.652344 45.59375 115.457031 C 45.476562 115.28125 45.363281 115.105469 45.246094 114.921875 C 44.808594 114.253906 44.371094 113.582031 43.929688 112.910156 C 42.699219 111.015625 41.464844 109.125 40.222656 107.234375 C 39.933594 106.792969 39.648438 106.351562 39.363281 105.90625 C 37.722656 103.371094 36.042969 101.417969 33.027344 100.585938 C 31.800781 100.332031 30.621094 100.289062 29.371094 100.28125 C 29.078125 100.277344 29.078125 100.277344 28.78125 100.273438 C 28.140625 100.269531 27.5 100.265625 26.859375 100.261719 C 26.414062 100.257812 25.96875 100.253906 25.523438 100.25 C 24.472656 100.242188 23.421875 100.230469 22.371094 100.222656 C 21.054688 100.214844 19.742188 100.203125 18.425781 100.191406 C 16.082031 100.175781 13.742188 100.15625 11.398438 100.136719 C 11.453125 99.652344 11.507812 99.164062 11.566406 98.679688 C 11.582031 98.542969 11.597656 98.40625 11.613281 98.265625 C 11.71875 97.359375 11.851562 96.476562 12.042969 95.585938 C 12.089844 95.363281 12.136719 95.144531 12.183594 94.917969 C 12.234375 94.679688 12.234375 94.679688 12.289062 94.4375 C 12.386719 94.4375 12.488281 94.4375 12.589844 94.4375 C 13.816406 94.378906 14.425781 93.957031 15.316406 93.148438 C 15.582031 92.917969 15.847656 92.6875 16.113281 92.460938 C 16.3125 92.285156 16.3125 92.285156 16.515625 92.109375 C 17.136719 91.582031 17.78125 91.097656 18.433594 90.609375 C 19.605469 89.722656 20.746094 88.804688 21.875 87.863281 C 22.75 87.136719 23.636719 86.429688 24.535156 85.730469 C 25.320312 85.121094 26.089844 84.492188 26.859375 83.863281 C 28.011719 82.917969 29.191406 82.003906 30.382812 81.105469 C 30.503906 81.011719 30.621094 80.921875 30.746094 80.828125 C 30.855469 80.746094 30.960938 80.667969 31.070312 80.585938 C 31.371094 80.355469 31.371094 80.355469 31.699219 80.011719 Z M 31.699219 80.011719 " fill-opacity="1" fill-rule="nonzero"/><g fill="#ffffff" fill-opacity="1"><g transform="translate(32.268619, 55.258277)"><g><path d="M 1.90625 6.84375 L 1.90625 -21.078125 C 1.90625 -21.816406 1.929688 -22.359375 1.984375 -22.703125 C 2.035156 -23.054688 2.171875 -23.457031 2.390625 -23.90625 C 2.835938 -24.769531 3.90625 -25.203125 5.59375 -25.203125 C 7.28125 -25.203125 8.414062 -24.984375 9 -24.546875 C 9.59375 -24.117188 9.941406 -23.488281 10.046875 -22.65625 C 11.253906 -24.320312 13.15625 -25.15625 15.75 -25.15625 C 18.351562 -25.15625 20.816406 -23.925781 23.140625 -21.46875 C 25.460938 -19.007812 26.625 -16.15625 26.625 -12.90625 C 26.625 -9.65625 25.46875 -6.800781 23.15625 -4.34375 C 20.851562 -1.894531 18.394531 -0.671875 15.78125 -0.671875 C 13.164062 -0.671875 11.269531 -1.40625 10.09375 -2.875 L 10.09375 6.796875 C 10.09375 7.523438 10.066406 8.0625 10.015625 8.40625 C 9.960938 8.757812 9.816406 9.164062 9.578125 9.625 C 9.347656 10.09375 8.941406 10.421875 8.359375 10.609375 C 7.785156 10.804688 7.003906 10.90625 6.015625 10.90625 C 5.035156 10.90625 4.25 10.804688 3.65625 10.609375 C 3.0625 10.421875 2.644531 10.101562 2.40625 9.65625 C 2.175781 9.207031 2.035156 8.804688 1.984375 8.453125 C 1.929688 8.109375 1.90625 7.570312 1.90625 6.84375 Z M 11.375 -15.671875 C 10.644531 -14.816406 10.28125 -13.878906 10.28125 -12.859375 C 10.28125 -11.835938 10.65625 -10.90625 11.40625 -10.0625 C 12.15625 -9.21875 13.109375 -8.796875 14.265625 -8.796875 C 15.429688 -8.796875 16.421875 -9.207031 17.234375 -10.03125 C 18.046875 -10.863281 18.453125 -11.804688 18.453125 -12.859375 C 18.453125 -13.910156 18.066406 -14.859375 17.296875 -15.703125 C 16.535156 -16.546875 15.539062 -16.96875 14.3125 -16.96875 C 13.09375 -16.96875 12.113281 -16.535156 11.375 -15.671875 Z M 11.375 -15.671875 "/></g></g></g></svg>