<svg xmlns="http://www.w3.org/2000/svg" xmlns:xlink="http://www.w3.org/1999/xlink" width="127" zoomAndPan="magnify" viewBox="0 0 95.25 131.249998" height="175" preserveAspectRatio="xMidYMid meet" version="1.0"><defs><g/><clipPath id="7cb5c1a9e7"><path d="M 0 63 L 94.503906 63 L 94.503906 130.363281 L 0 130.363281 Z M 0 63 " clip-rule="nonzero"/></clipPath><clipPath id="96f709f0e1"><path d="M 20 16.675781 L 75 16.675781 L 75 94 L 20 94 Z M 20 16.675781 " clip-rule="nonzero"/></clipPath><clipPath id="4b1632366d"><path d="M 0 63 L 94.503906 63 L 94.503906 130.363281 L 0 130.363281 Z M 0 63 " clip-rule="nonzero"/></clipPath><clipPath id="cf9d901a79"><path d="M 20 16.675781 L 75 16.675781 L 75 94 L 20 94 Z M 20 16.675781 " clip-rule="nonzero"/></clipPath></defs><g clip-path="url(#7cb5c1a9e7)"><path fill="#7bd456" d="M 18.734375 63.871094 C 18.933594 63.871094 19.136719 63.871094 19.339844 63.867188 C 19.757812 63.867188 20.175781 63.867188 20.59375 63.867188 C 21.230469 63.871094 21.871094 63.863281 22.507812 63.859375 C 22.917969 63.859375 23.324219 63.859375 23.730469 63.859375 C 23.921875 63.859375 24.113281 63.855469 24.308594 63.855469 C 25.984375 63.867188 25.984375 63.867188 26.644531 64.457031 C 26.894531 64.800781 26.894531 64.800781 27.082031 65.183594 C 27.152344 65.324219 27.222656 65.460938 27.292969 65.605469 C 27.363281 65.75 27.429688 65.894531 27.5 66.042969 C 27.574219 66.1875 27.644531 66.332031 27.71875 66.480469 C 28.0625 67.179688 28.246094 67.566406 28.246094 68.363281 C 28.363281 68.363281 28.480469 68.363281 28.601562 68.363281 C 28.78125 68.695312 28.957031 69.03125 29.132812 69.363281 C 29.230469 69.550781 29.332031 69.734375 29.433594 69.925781 C 29.679688 70.53125 29.726562 70.917969 29.667969 71.5625 C 29.449219 72.039062 29.277344 72.351562 28.84375 72.648438 C 28.261719 72.867188 27.699219 72.863281 27.089844 72.867188 C 26.894531 72.871094 26.894531 72.871094 26.695312 72.875 C 26.285156 72.882812 25.871094 72.886719 25.457031 72.894531 C 22.261719 72.855469 22.261719 72.855469 19.363281 74.046875 C 19.082031 74.386719 18.878906 74.734375 18.652344 75.113281 C 18.535156 75.113281 18.417969 75.113281 18.296875 75.113281 C 18.238281 75.410156 18.179688 75.707031 18.121094 76.003906 C 18.074219 76.226562 18.027344 76.449219 17.984375 76.679688 C 17.394531 79.664062 16.925781 82.667969 16.453125 85.667969 C 16.339844 86.382812 16.226562 87.097656 16.113281 87.8125 C 15.894531 89.203125 15.675781 90.597656 15.453125 91.988281 C 15.679688 91.820312 15.902344 91.652344 16.125 91.484375 C 16.25 91.394531 16.375 91.300781 16.503906 91.203125 C 17.058594 90.785156 17.601562 90.347656 18.140625 89.910156 C 19.015625 89.210938 19.890625 88.515625 20.773438 87.824219 C 21.796875 87.023438 22.804688 86.207031 23.8125 85.386719 C 24.671875 84.683594 25.539062 83.996094 26.417969 83.316406 C 27.097656 82.78125 27.773438 82.238281 28.441406 81.6875 C 29.027344 81.210938 29.613281 80.738281 30.199219 80.265625 C 30.296875 80.1875 30.394531 80.109375 30.496094 80.027344 C 32.316406 78.582031 32.316406 78.582031 33.398438 78.667969 C 34.265625 79.144531 34.675781 79.617188 35.144531 80.484375 C 35.199219 80.585938 35.257812 80.691406 35.316406 80.800781 C 35.496094 81.128906 35.675781 81.464844 35.851562 81.796875 C 35.972656 82.023438 36.09375 82.246094 36.214844 82.472656 C 37.394531 84.644531 37.394531 84.644531 37.304688 85.59375 C 36.828125 86.4375 36.25 86.988281 35.484375 87.558594 C 35.261719 87.726562 35.039062 87.898438 34.816406 88.070312 C 34.699219 88.15625 34.582031 88.246094 34.464844 88.335938 C 33.859375 88.804688 33.265625 89.292969 32.675781 89.777344 C 31.589844 90.664062 30.492188 91.527344 29.378906 92.371094 C 28.984375 92.660156 28.984375 92.660156 28.777344 92.875 C 28.921875 92.878906 29.0625 92.878906 29.210938 92.882812 C 29.753906 92.894531 30.300781 92.90625 30.84375 92.921875 C 31.1875 92.929688 31.535156 92.9375 31.878906 92.941406 C 36.285156 93.066406 40.566406 94.710938 43.699219 97.847656 C 44.464844 98.664062 45.207031 99.515625 45.769531 100.484375 C 45.847656 100.613281 45.929688 100.738281 46.007812 100.867188 C 46.125 100.867188 46.242188 100.867188 46.363281 100.867188 C 46.613281 100.59375 46.847656 100.304688 47.074219 100.011719 C 47.648438 99.296875 48.230469 98.609375 48.851562 97.9375 C 49.4375 97.300781 49.996094 96.65625 50.539062 95.984375 C 51.082031 95.3125 51.640625 94.664062 52.226562 94.03125 C 52.960938 93.234375 53.648438 92.414062 54.324219 91.570312 C 54.90625 90.863281 55.519531 90.179688 56.136719 89.5 C 56.050781 89.320312 56.050781 89.320312 55.96875 89.132812 C 55.464844 87.738281 55.464844 87.738281 55.753906 86.96875 C 55.980469 86.511719 56.230469 86.074219 56.492188 85.636719 C 56.625 85.402344 56.625 85.402344 56.761719 85.164062 C 57.023438 84.710938 57.289062 84.265625 57.554688 83.816406 C 57.625 83.703125 57.691406 83.585938 57.761719 83.46875 C 58.761719 81.757812 58.761719 81.757812 59.511719 81.507812 C 60.628906 81.308594 61.367188 81.925781 62.265625 82.507812 C 66.660156 85.238281 71.679688 86.496094 76.828125 86.757812 C 76.972656 86.765625 77.121094 86.773438 77.269531 86.78125 C 77.628906 86.800781 77.984375 86.816406 78.339844 86.835938 C 78.007812 84.835938 77.675781 82.835938 77.339844 80.839844 C 77.28125 80.476562 77.21875 80.117188 77.160156 79.757812 C 77.066406 79.191406 76.96875 78.628906 76.875 78.066406 C 76.847656 77.90625 76.820312 77.746094 76.792969 77.578125 C 76.566406 76.007812 76.566406 76.007812 75.675781 74.757812 C 74.964844 74.046875 74.964844 74.046875 74.738281 73.777344 C 73.378906 72.613281 70.710938 72.898438 69.003906 72.882812 C 68.59375 72.878906 68.1875 72.875 67.777344 72.867188 C 67.527344 72.863281 67.277344 72.859375 67.023438 72.859375 C 66.386719 72.847656 65.910156 72.808594 65.371094 72.449219 C 65.011719 71.964844 64.949219 71.480469 64.957031 70.882812 C 65.089844 70.03125 65.542969 69.269531 65.925781 68.507812 C 66.0625 68.238281 66.0625 68.238281 66.199219 67.960938 C 66.375 67.605469 66.554688 67.246094 66.730469 66.890625 C 66.929688 66.492188 67.125 66.089844 67.3125 65.683594 C 67.402344 65.496094 67.492188 65.304688 67.582031 65.113281 C 67.65625 64.957031 67.726562 64.796875 67.804688 64.636719 C 68.085938 64.207031 68.273438 64.113281 68.746094 63.925781 C 69.167969 63.878906 69.167969 63.878906 69.640625 63.878906 C 69.816406 63.878906 69.996094 63.875 70.175781 63.875 C 70.367188 63.875 70.558594 63.875 70.757812 63.878906 C 70.957031 63.878906 71.152344 63.875 71.359375 63.875 C 71.777344 63.875 72.199219 63.875 72.621094 63.878906 C 73.257812 63.878906 73.894531 63.878906 74.53125 63.875 C 74.945312 63.875 75.355469 63.875 75.765625 63.878906 C 75.953125 63.875 76.140625 63.875 76.332031 63.875 C 78.226562 63.886719 80.074219 64.035156 81.769531 64.921875 C 81.886719 64.980469 82.003906 65.039062 82.125 65.097656 C 82.402344 65.238281 82.683594 65.378906 82.960938 65.523438 C 82.960938 65.640625 82.960938 65.757812 82.960938 65.878906 C 83.066406 65.894531 83.171875 65.914062 83.28125 65.929688 C 83.753906 66.082031 83.90625 66.269531 84.214844 66.65625 C 84.582031 67.117188 84.582031 67.117188 84.996094 67.535156 C 85.390625 67.964844 85.625 68.4375 85.890625 68.953125 C 85.996094 69.152344 86.097656 69.347656 86.207031 69.550781 C 87.007812 71.347656 87.175781 73.488281 87.480469 75.417969 C 87.519531 75.671875 87.558594 75.921875 87.601562 76.175781 C 87.710938 76.855469 87.816406 77.535156 87.925781 78.214844 C 88.042969 78.941406 88.15625 79.667969 88.273438 80.398438 C 88.496094 81.789062 88.71875 83.179688 88.941406 84.570312 C 89.183594 86.101562 89.429688 87.632812 89.671875 89.164062 C 89.988281 91.128906 90.300781 93.09375 90.617188 95.058594 C 90.640625 95.207031 90.664062 95.359375 90.6875 95.511719 C 90.738281 95.816406 90.785156 96.121094 90.832031 96.421875 C 91.246094 99.011719 91.660156 101.601562 92.074219 104.191406 C 92.125 104.496094 92.171875 104.796875 92.21875 105.097656 C 92.496094 106.820312 92.496094 106.820312 92.773438 108.542969 C 92.996094 109.9375 93.21875 111.328125 93.441406 112.722656 C 93.5625 113.484375 93.683594 114.246094 93.808594 115.007812 C 93.890625 115.523438 93.976562 116.042969 94.058594 116.558594 C 94.113281 116.914062 94.171875 117.269531 94.230469 117.625 C 94.675781 120.429688 94.921875 123.121094 93.617188 125.734375 C 93.5 125.734375 93.382812 125.734375 93.261719 125.734375 C 93.246094 125.863281 93.234375 125.988281 93.21875 126.121094 C 92.835938 127.550781 91.269531 128.691406 90.066406 129.464844 C 88.695312 130.171875 87.609375 130.554688 86.066406 130.554688 C 85.929688 130.554688 85.792969 130.554688 85.652344 130.554688 C 85.195312 130.554688 84.738281 130.554688 84.28125 130.554688 C 83.953125 130.558594 83.621094 130.558594 83.292969 130.558594 C 82.382812 130.5625 81.472656 130.5625 80.5625 130.5625 C 79.582031 130.5625 78.601562 130.566406 77.625 130.566406 C 75.253906 130.570312 72.886719 130.574219 70.519531 130.578125 C 69.851562 130.578125 69.179688 130.578125 68.511719 130.578125 C 64.359375 130.582031 60.207031 130.585938 56.054688 130.589844 C 55.09375 130.589844 54.128906 130.589844 53.167969 130.589844 C 53.046875 130.589844 52.929688 130.589844 52.804688 130.589844 C 48.933594 130.59375 45.058594 130.597656 41.183594 130.605469 C 37.089844 130.613281 32.992188 130.617188 28.894531 130.621094 C 26.664062 130.621094 24.429688 130.621094 22.199219 130.628906 C 20.296875 130.632812 18.394531 130.636719 16.492188 130.632812 C 15.523438 130.632812 14.554688 130.632812 13.585938 130.636719 C 12.695312 130.640625 11.804688 130.640625 10.917969 130.636719 C 10.597656 130.636719 10.277344 130.636719 9.957031 130.640625 C 7.707031 130.660156 6.113281 130.3125 4.085938 129.285156 C 4.085938 129.167969 4.085938 129.050781 4.085938 128.929688 C 3.929688 128.90625 3.929688 128.90625 3.769531 128.882812 C 3.261719 128.714844 3.078125 128.476562 2.742188 128.066406 C 2.324219 127.554688 2.324219 127.554688 1.867188 127.085938 C 0.261719 125.363281 -0.09375 123.070312 -0.0546875 120.8125 C 0.03125 118.777344 0.453125 116.75 0.789062 114.742188 C 0.902344 114.0625 1.011719 113.386719 1.121094 112.707031 C 1.261719 111.859375 1.398438 111.011719 1.539062 110.164062 C 1.847656 108.277344 2.148438 106.394531 2.445312 104.507812 C 2.464844 104.382812 2.484375 104.257812 2.503906 104.125 C 2.601562 103.492188 2.703125 102.855469 2.800781 102.21875 C 3.339844 98.769531 3.882812 95.320312 4.441406 91.875 C 4.476562 91.667969 4.476562 91.667969 4.511719 91.457031 C 4.734375 90.070312 4.960938 88.6875 5.1875 87.300781 C 5.296875 86.621094 5.410156 85.941406 5.519531 85.261719 C 5.542969 85.128906 5.5625 84.996094 5.585938 84.859375 C 5.894531 82.976562 6.1875 81.09375 6.472656 79.210938 C 6.53125 78.816406 6.589844 78.421875 6.652344 78.03125 C 6.671875 77.902344 6.691406 77.777344 6.710938 77.644531 C 6.75 77.390625 6.789062 77.140625 6.828125 76.886719 C 6.917969 76.28125 7.011719 75.675781 7.097656 75.070312 C 8.074219 68.386719 8.074219 68.386719 10.136719 66.820312 C 10.640625 66.445312 10.640625 66.445312 10.96875 66.089844 C 11.191406 65.878906 11.191406 65.878906 11.546875 65.878906 C 11.546875 65.761719 11.546875 65.644531 11.546875 65.523438 C 11.941406 65.320312 12.335938 65.121094 12.734375 64.921875 C 12.84375 64.867188 12.949219 64.8125 13.0625 64.753906 C 14.816406 63.898438 16.820312 63.871094 18.734375 63.871094 Z M 64.484375 93.230469 C 63.597656 94.1875 62.726562 95.144531 61.910156 96.160156 C 61.226562 97.003906 60.507812 97.804688 59.769531 98.601562 C 59.34375 99.082031 58.9375 99.570312 58.535156 100.070312 C 57.839844 100.925781 57.113281 101.738281 56.367188 102.550781 C 55.382812 103.46875 55.382812 103.46875 54.890625 104.597656 C 63.566406 104.597656 72.242188 104.597656 81.183594 104.597656 C 80.917969 102.25 80.917969 102.25 80.558594 99.921875 C 80.535156 99.789062 80.511719 99.65625 80.488281 99.519531 C 80.417969 99.105469 80.34375 98.695312 80.273438 98.28125 C 80.222656 97.996094 80.171875 97.710938 80.121094 97.425781 C 80.003906 96.738281 79.882812 96.050781 79.761719 95.363281 C 79.59375 95.359375 79.425781 95.355469 79.25 95.355469 C 74.121094 95.269531 69.398438 94.785156 64.484375 93.230469 Z M 13.855469 101.578125 C 13.4375 103.734375 13.03125 105.894531 12.679688 108.0625 C 12.664062 108.183594 12.644531 108.300781 12.625 108.421875 C 12.523438 109.042969 12.421875 109.660156 12.324219 110.28125 C 12.222656 110.917969 12.117188 111.550781 12.011719 112.183594 C 11.929688 112.679688 11.851562 113.171875 11.773438 113.667969 C 11.71875 114.015625 11.660156 114.359375 11.601562 114.707031 C 11.3125 116.558594 11.3125 118.195312 12.257812 119.871094 C 13.109375 120.859375 14.339844 121.636719 15.632812 121.824219 C 16.09375 121.84375 16.550781 121.847656 17.015625 121.847656 C 17.152344 121.847656 17.289062 121.847656 17.433594 121.847656 C 17.894531 121.847656 18.355469 121.847656 18.816406 121.847656 C 19.144531 121.847656 19.476562 121.847656 19.808594 121.847656 C 20.707031 121.847656 21.605469 121.84375 22.503906 121.84375 C 23.441406 121.84375 24.378906 121.84375 25.316406 121.84375 C 27.09375 121.84375 28.871094 121.839844 30.648438 121.839844 C 32.671875 121.835938 34.695312 121.835938 36.71875 121.835938 C 40.882812 121.832031 45.042969 121.828125 49.207031 121.824219 C 49.011719 121.488281 48.8125 121.148438 48.617188 120.808594 C 48.507812 120.617188 48.398438 120.429688 48.285156 120.234375 C 47.875 119.546875 47.4375 118.878906 46.988281 118.21875 C 46.800781 117.941406 46.613281 117.664062 46.429688 117.386719 C 46.28125 117.171875 46.28125 117.171875 46.132812 116.949219 C 45.601562 116.152344 45.078125 115.347656 44.554688 114.542969 C 44.445312 114.375 44.335938 114.203125 44.222656 114.03125 C 43.992188 113.675781 43.761719 113.324219 43.53125 112.96875 C 42.515625 111.410156 41.496094 109.855469 40.476562 108.300781 C 40.1875 107.859375 39.902344 107.417969 39.617188 106.972656 C 38.128906 104.671875 36.59375 102.613281 33.851562 101.851562 C 32.667969 101.601562 31.539062 101.554688 30.332031 101.558594 C 30.152344 101.558594 29.976562 101.558594 29.792969 101.558594 C 29.203125 101.558594 28.617188 101.558594 28.03125 101.5625 C 27.621094 101.5625 27.210938 101.5625 26.804688 101.5625 C 25.730469 101.5625 24.660156 101.5625 23.585938 101.566406 C 22.492188 101.566406 21.394531 101.570312 20.300781 101.570312 C 18.152344 101.570312 16.003906 101.574219 13.855469 101.578125 Z M 54.003906 113.121094 C 54.53125 114.074219 55.027344 114.953125 55.628906 115.84375 C 55.695312 115.945312 55.761719 116.042969 55.828125 116.144531 C 56.039062 116.453125 56.246094 116.765625 56.457031 117.074219 C 56.664062 117.382812 56.871094 117.691406 57.078125 117.996094 C 57.464844 118.570312 57.464844 118.570312 57.859375 119.136719 C 58.089844 119.515625 58.089844 119.515625 58.304688 120.097656 C 58.613281 120.808594 58.871094 121.371094 59.511719 121.824219 C 60.878906 122.265625 62.414062 122.105469 63.828125 122.070312 C 64.257812 122.066406 64.683594 122.066406 65.113281 122.0625 C 66.011719 122.058594 66.90625 122.046875 67.800781 122.03125 C 68.949219 122.007812 70.09375 121.996094 71.242188 121.988281 C 72.339844 121.984375 73.433594 121.972656 74.53125 121.960938 C 74.738281 121.957031 74.949219 121.953125 75.160156 121.953125 C 75.753906 121.945312 76.34375 121.933594 76.9375 121.921875 C 77.109375 121.921875 77.28125 121.917969 77.460938 121.917969 C 79.261719 121.871094 80.695312 121.40625 82.003906 120.128906 C 82.949219 118.914062 83.273438 117.464844 83.136719 115.964844 C 82.960938 115.027344 82.785156 114.089844 82.605469 113.121094 C 73.164062 113.121094 63.726562 113.121094 54.003906 113.121094 Z M 54.003906 113.121094 " fill-opacity="1" fill-rule="nonzero"/></g><g clip-path="url(#96f709f0e1)"><path fill="#7dd756" d="M 53.46875 17.214844 C 53.609375 17.246094 53.75 17.28125 53.894531 17.3125 C 56.324219 17.917969 58.527344 18.917969 60.753906 20.054688 C 60.753906 20.171875 60.753906 20.289062 60.753906 20.410156 C 60.902344 20.453125 61.054688 20.496094 61.207031 20.542969 C 62.371094 20.964844 63.097656 21.488281 63.953125 22.363281 C 64.1875 22.542969 64.421875 22.722656 64.660156 22.898438 C 65.25 23.328125 65.75 23.792969 66.261719 24.316406 C 66.671875 24.675781 67.089844 25.035156 67.507812 25.390625 C 67.851562 25.730469 68.019531 26.007812 68.214844 26.449219 C 68.339844 26.574219 68.339844 26.574219 68.46875 26.703125 C 68.820312 27.050781 69.027344 27.449219 69.28125 27.871094 C 69.371094 27.953125 69.464844 28.039062 69.558594 28.125 C 69.921875 28.519531 70.019531 28.957031 70.167969 29.46875 C 70.285156 29.46875 70.402344 29.46875 70.523438 29.46875 C 72.703125 33.269531 74.304688 37.476562 74.433594 41.902344 C 74.4375 42.027344 74.441406 42.15625 74.445312 42.289062 C 74.511719 44.371094 74.378906 46.265625 73.898438 48.292969 C 73.851562 48.519531 73.800781 48.746094 73.75 48.976562 C 72.835938 53 71.355469 57.644531 69.191406 61.160156 C 68.949219 61.578125 68.785156 61.964844 68.613281 62.414062 C 68.242188 63.375 67.753906 64.253906 67.257812 65.15625 C 66.921875 65.796875 66.667969 66.433594 66.4375 67.121094 C 66.320312 67.121094 66.203125 67.121094 66.082031 67.121094 C 66.042969 67.257812 66.003906 67.394531 65.960938 67.535156 C 65.640625 68.425781 65.230469 69.265625 64.816406 70.117188 C 64.734375 70.292969 64.652344 70.464844 64.566406 70.644531 C 64.359375 71.066406 64.15625 71.492188 63.953125 71.917969 C 63.835938 71.917969 63.71875 71.917969 63.597656 71.917969 C 63.558594 72.027344 63.523438 72.140625 63.484375 72.253906 C 63.414062 72.472656 63.414062 72.472656 63.339844 72.695312 C 63.292969 72.839844 63.246094 72.984375 63.195312 73.132812 C 63.0625 73.515625 63.0625 73.515625 62.886719 73.871094 C 62.769531 73.871094 62.652344 73.871094 62.53125 73.871094 C 62.492188 73.980469 62.457031 74.09375 62.417969 74.207031 C 62.347656 74.425781 62.347656 74.425781 62.273438 74.648438 C 62.226562 74.792969 62.179688 74.9375 62.132812 75.085938 C 61.996094 75.46875 61.996094 75.46875 61.820312 75.824219 C 61.703125 75.824219 61.585938 75.824219 61.464844 75.824219 C 61.199219 76.617188 61.199219 76.617188 60.929688 77.421875 C 60.8125 77.421875 60.695312 77.421875 60.574219 77.421875 C 60.546875 77.613281 60.546875 77.613281 60.519531 77.808594 C 60.386719 78.363281 60.179688 78.765625 59.894531 79.261719 C 59.742188 79.527344 59.742188 79.527344 59.589844 79.796875 C 59.480469 79.980469 59.375 80.164062 59.265625 80.355469 C 59.160156 80.535156 59.054688 80.71875 58.949219 80.910156 C 58.664062 81.40625 58.378906 81.902344 58.089844 82.394531 C 57.996094 82.5625 57.90625 82.726562 57.808594 82.898438 C 57.726562 83.027344 57.644531 83.152344 57.554688 83.285156 C 57.4375 83.285156 57.320312 83.285156 57.199219 83.285156 C 57.175781 83.421875 57.148438 83.5625 57.125 83.707031 C 57.023438 84.171875 57.023438 84.171875 56.84375 84.527344 C 56.726562 84.527344 56.609375 84.527344 56.492188 84.527344 C 56.421875 84.707031 56.421875 84.707031 56.355469 84.890625 C 56.09375 85.511719 55.789062 86.101562 55.46875 86.691406 C 55.40625 86.808594 55.34375 86.925781 55.277344 87.046875 C 53.871094 89.652344 53.871094 89.652344 53.113281 90.390625 C 52.996094 90.566406 52.878906 90.742188 52.761719 90.921875 C 52.644531 90.921875 52.523438 90.921875 52.40625 90.921875 C 52.40625 91.039062 52.40625 91.15625 52.40625 91.277344 C 52.054688 91.394531 51.699219 91.511719 51.339844 91.632812 C 51.339844 91.75 51.339844 91.867188 51.339844 91.988281 C 49.25 93.023438 47.03125 93.421875 44.765625 92.699219 C 44.035156 92.375 43.332031 92.019531 42.632812 91.632812 C 42.632812 91.515625 42.632812 91.398438 42.632812 91.277344 C 42.425781 91.210938 42.425781 91.210938 42.210938 91.144531 C 41.671875 90.886719 41.617188 90.746094 41.390625 90.210938 C 41.253906 90.078125 41.253906 90.078125 41.113281 89.945312 C 40.8125 89.628906 40.753906 89.390625 40.679688 88.96875 C 40.5625 88.96875 40.445312 88.96875 40.324219 88.96875 C 40.074219 88.617188 40.074219 88.617188 39.785156 88.132812 C 39.683594 87.957031 39.578125 87.785156 39.472656 87.605469 C 39.367188 87.421875 39.257812 87.238281 39.148438 87.046875 C 39.039062 86.867188 38.929688 86.683594 38.820312 86.496094 C 38.015625 85.128906 38.015625 85.128906 38.015625 84.527344 C 37.898438 84.527344 37.78125 84.527344 37.660156 84.527344 C 37.269531 83.851562 36.882812 83.175781 36.496094 82.5 C 36.363281 82.269531 36.230469 82.042969 36.097656 81.8125 C 33.929688 78.046875 33.929688 78.046875 33.929688 77.421875 C 33.8125 77.421875 33.695312 77.421875 33.574219 77.421875 C 33.316406 76.953125 33.21875 76.730469 33.21875 76.179688 C 33.101562 76.179688 32.984375 76.179688 32.863281 76.179688 C 32.714844 75.863281 32.566406 75.542969 32.417969 75.226562 C 32.335938 75.046875 32.253906 74.871094 32.171875 74.6875 C 31.976562 74.226562 31.976562 74.226562 31.976562 73.871094 C 31.859375 73.871094 31.742188 73.871094 31.621094 73.871094 C 31.441406 73.492188 31.265625 73.117188 31.085938 72.738281 C 30.988281 72.527344 30.890625 72.316406 30.789062 72.101562 C 30.554688 71.5625 30.554688 71.5625 30.554688 71.207031 C 30.4375 71.207031 30.320312 71.207031 30.199219 71.207031 C 30.078125 70.957031 30.078125 70.957031 29.957031 70.707031 C 29.65625 70.078125 29.355469 69.453125 29.054688 68.828125 C 28.921875 68.5625 28.792969 68.292969 28.664062 68.023438 C 27.929688 66.496094 27.179688 64.984375 26.359375 63.496094 C 26.0625 62.941406 25.816406 62.375 25.582031 61.792969 C 25.449219 61.5 25.316406 61.207031 25.179688 60.917969 C 23.386719 56.984375 21.761719 53.042969 20.785156 48.828125 C 20.683594 48.449219 20.585938 48.074219 20.484375 47.695312 C 19.78125 44.84375 19.9375 41.757812 20.429688 38.882812 C 20.449219 38.757812 20.472656 38.632812 20.492188 38.503906 C 21.066406 35.261719 22.359375 32.316406 23.980469 29.46875 C 24.097656 29.46875 24.214844 29.46875 24.335938 29.46875 C 24.375 29.320312 24.410156 29.175781 24.449219 29.023438 C 24.917969 27.828125 25.828125 26.890625 26.644531 25.914062 C 26.746094 25.777344 26.84375 25.636719 26.945312 25.492188 C 27.023438 25.398438 27.101562 25.304688 27.179688 25.207031 C 27.296875 25.207031 27.414062 25.207031 27.535156 25.207031 C 27.535156 25.089844 27.535156 24.972656 27.535156 24.851562 C 28.160156 24.144531 28.882812 23.59375 29.628906 23.023438 C 29.964844 22.761719 30.289062 22.496094 30.609375 22.21875 C 31.007812 21.894531 31.34375 21.695312 31.796875 21.476562 C 31.878906 21.390625 31.960938 21.308594 32.042969 21.21875 C 32.507812 20.773438 33.097656 20.410156 33.753906 20.410156 C 33.753906 20.292969 33.753906 20.175781 33.753906 20.054688 C 39.867188 17.003906 46.699219 15.570312 53.46875 17.214844 Z M 53.46875 17.214844 " fill-opacity="1" fill-rule="nonzero"/></g><path fill="#fafafa" d="M 32.863281 80.085938 C 33.71875 80.882812 34.222656 81.832031 34.796875 82.839844 C 34.90625 83.027344 35.015625 83.210938 35.128906 83.402344 C 35.230469 83.582031 35.332031 83.761719 35.4375 83.945312 C 35.53125 84.109375 35.625 84.269531 35.722656 84.4375 C 35.882812 84.882812 35.882812 84.882812 35.765625 85.269531 C 35.402344 85.765625 34.925781 86.105469 34.441406 86.46875 C 34.214844 86.644531 33.988281 86.816406 33.761719 86.992188 C 33.585938 87.125 33.585938 87.125 33.40625 87.265625 C 32.796875 87.738281 32.203125 88.226562 31.609375 88.710938 C 30.582031 89.550781 29.542969 90.363281 28.492188 91.164062 C 27.640625 91.820312 26.816406 92.5 25.988281 93.179688 C 25.816406 93.320312 25.816406 93.320312 25.640625 93.464844 C 25.539062 93.546875 25.4375 93.628906 25.332031 93.71875 C 25.070312 93.921875 24.792969 94.109375 24.515625 94.296875 C 24.675781 94.296875 24.675781 94.296875 24.84375 94.300781 C 25.976562 94.3125 27.113281 94.324219 28.25 94.34375 C 28.671875 94.347656 29.09375 94.355469 29.515625 94.359375 C 34.695312 94.410156 38.980469 95.371094 42.832031 99.101562 C 43.984375 100.328125 45.078125 101.84375 45.832031 103.355469 C 45.949219 103.355469 46.066406 103.355469 46.1875 103.355469 C 46.433594 103.078125 46.667969 102.792969 46.898438 102.5 C 47.46875 101.785156 48.050781 101.097656 48.675781 100.421875 C 49.257812 99.789062 49.820312 99.140625 50.363281 98.46875 C 51.042969 97.625 51.765625 96.824219 52.5 96.027344 C 52.925781 95.554688 53.328125 95.070312 53.726562 94.574219 C 54.296875 93.863281 54.894531 93.1875 55.511719 92.519531 C 56.558594 91.394531 57.59375 90.246094 58.445312 88.96875 C 57.976562 88.617188 57.507812 88.265625 57.023438 87.902344 C 57.574219 86.746094 58.179688 85.621094 58.8125 84.503906 C 58.886719 84.367188 58.960938 84.230469 59.039062 84.089844 C 59.113281 83.964844 59.183594 83.835938 59.261719 83.703125 C 59.328125 83.589844 59.390625 83.472656 59.457031 83.355469 C 59.535156 83.273438 59.609375 83.191406 59.6875 83.105469 C 60.53125 83.105469 60.949219 83.402344 61.632812 83.839844 C 65.640625 86.308594 70.144531 87.527344 74.789062 88.078125 C 74.789062 88.195312 74.789062 88.3125 74.789062 88.433594 C 76.546875 88.433594 78.304688 88.433594 80.117188 88.433594 C 80.199219 88.847656 80.277344 89.261719 80.359375 89.6875 C 80.398438 89.875 80.398438 89.875 80.4375 90.066406 C 80.679688 91.347656 80.839844 92.644531 81.003906 93.941406 C 73.082031 94.054688 73.082031 94.054688 70.167969 93.40625 C 69.941406 93.359375 69.941406 93.359375 69.707031 93.308594 C 68.117188 92.953125 66.550781 92.5625 65.050781 91.917969 C 64.535156 91.773438 64.277344 91.800781 63.773438 91.988281 C 63.429688 92.296875 63.140625 92.59375 62.839844 92.941406 C 62.714844 93.085938 62.714844 93.085938 62.582031 93.230469 C 61.90625 94 61.261719 94.792969 60.621094 95.589844 C 60.207031 96.089844 59.773438 96.570312 59.332031 97.050781 C 58.746094 97.683594 58.1875 98.332031 57.644531 99.003906 C 57.101562 99.675781 56.542969 100.320312 55.957031 100.957031 C 55.226562 101.75 54.542969 102.566406 53.871094 103.402344 C 53.328125 104.058594 52.757812 104.683594 52.183594 105.308594 C 51.863281 105.644531 51.863281 105.644531 51.695312 106.019531 C 62.011719 106.019531 72.328125 106.019531 82.960938 106.019531 C 83.847656 111.167969 83.847656 111.167969 83.847656 111.523438 C 73.121094 111.523438 62.390625 111.523438 51.339844 111.523438 C 52.113281 112.851562 52.878906 114.132812 53.738281 115.398438 C 53.953125 115.71875 54.167969 116.042969 54.386719 116.363281 C 54.550781 116.613281 54.550781 116.613281 54.722656 116.863281 C 55.441406 117.941406 56.144531 119.027344 56.851562 120.113281 C 57.007812 120.355469 57.007812 120.355469 57.167969 120.605469 C 57.265625 120.753906 57.363281 120.90625 57.464844 121.0625 C 57.691406 121.40625 57.925781 121.742188 58.164062 122.078125 C 58.445312 122.535156 58.445312 122.535156 58.445312 123.246094 C 57.546875 123.265625 56.648438 123.277344 55.75 123.285156 C 55.445312 123.289062 55.140625 123.292969 54.835938 123.300781 C 54.394531 123.308594 53.957031 123.3125 53.519531 123.316406 C 53.3125 123.320312 53.3125 123.320312 53.105469 123.328125 C 52.503906 123.328125 52.132812 123.308594 51.640625 122.945312 C 51.3125 122.503906 51.003906 122.058594 50.710938 121.589844 C 50.59375 121.40625 50.476562 121.21875 50.355469 121.03125 C 50.234375 120.835938 50.109375 120.640625 49.984375 120.4375 C 49.726562 120.03125 49.46875 119.625 49.210938 119.21875 C 49.089844 119.023438 48.964844 118.828125 48.835938 118.628906 C 48.429688 117.992188 48.019531 117.367188 47.597656 116.742188 C 46.878906 115.671875 46.167969 114.59375 45.464844 113.511719 C 45.355469 113.339844 45.242188 113.167969 45.125 112.992188 C 44.890625 112.632812 44.65625 112.273438 44.421875 111.910156 C 43.40625 110.351562 42.386719 108.792969 41.367188 107.234375 C 41.078125 106.792969 40.792969 106.351562 40.507812 105.90625 C 38.789062 103.253906 36.972656 101.203125 33.753906 100.511719 C 33.335938 100.4375 32.929688 100.378906 32.507812 100.335938 C 32.507812 100.21875 32.507812 100.101562 32.507812 99.980469 C 25.941406 99.980469 19.378906 99.980469 12.613281 99.980469 C 13.144531 96.070312 13.144531 96.070312 13.5 94.652344 C 14.027344 94.652344 14.554688 94.652344 15.101562 94.652344 C 15.21875 94.417969 15.335938 94.183594 15.453125 93.941406 C 15.816406 93.628906 16.171875 93.339844 16.554688 93.054688 C 16.78125 92.878906 17.007812 92.707031 17.234375 92.53125 C 17.351562 92.441406 17.46875 92.351562 17.589844 92.261719 C 18.15625 91.820312 18.714844 91.371094 19.273438 90.921875 C 20.125 90.238281 20.980469 89.5625 21.839844 88.890625 C 22.863281 88.089844 23.871094 87.273438 24.875 86.453125 C 25.738281 85.75 26.605469 85.0625 27.480469 84.378906 C 28.417969 83.648438 29.339844 82.898438 30.261719 82.144531 C 31.121094 81.445312 31.984375 80.757812 32.863281 80.085938 Z M 32.863281 80.085938 " fill-opacity="1" fill-rule="nonzero"/><g clip-path="url(#4b1632366d)"><path fill="#030303" d="M 18.734375 63.871094 C 18.933594 63.871094 19.136719 63.871094 19.339844 63.867188 C 19.757812 63.867188 20.175781 63.867188 20.59375 63.867188 C 21.230469 63.871094 21.871094 63.863281 22.507812 63.859375 C 22.917969 63.859375 23.324219 63.859375 23.730469 63.859375 C 23.921875 63.859375 24.113281 63.855469 24.308594 63.855469 C 25.984375 63.867188 25.984375 63.867188 26.644531 64.457031 C 26.894531 64.800781 26.894531 64.800781 27.082031 65.183594 C 27.152344 65.324219 27.222656 65.460938 27.292969 65.605469 C 27.363281 65.75 27.429688 65.894531 27.5 66.042969 C 27.574219 66.1875 27.644531 66.332031 27.71875 66.480469 C 28.0625 67.179688 28.246094 67.566406 28.246094 68.363281 C 28.363281 68.363281 28.480469 68.363281 28.601562 68.363281 C 28.78125 68.695312 28.957031 69.03125 29.132812 69.363281 C 29.230469 69.550781 29.332031 69.734375 29.433594 69.925781 C 29.679688 70.53125 29.726562 70.917969 29.667969 71.5625 C 29.449219 72.039062 29.277344 72.351562 28.84375 72.648438 C 28.261719 72.867188 27.699219 72.863281 27.089844 72.867188 C 26.894531 72.871094 26.894531 72.871094 26.695312 72.875 C 26.285156 72.882812 25.871094 72.886719 25.457031 72.894531 C 22.261719 72.855469 22.261719 72.855469 19.363281 74.046875 C 19.082031 74.386719 18.878906 74.734375 18.652344 75.113281 C 18.535156 75.113281 18.417969 75.113281 18.296875 75.113281 C 18.238281 75.410156 18.179688 75.707031 18.121094 76.003906 C 18.074219 76.226562 18.027344 76.449219 17.984375 76.679688 C 17.394531 79.664062 16.925781 82.667969 16.453125 85.667969 C 16.339844 86.382812 16.226562 87.097656 16.113281 87.8125 C 15.894531 89.203125 15.675781 90.597656 15.453125 91.988281 C 15.679688 91.820312 15.902344 91.652344 16.125 91.484375 C 16.25 91.394531 16.375 91.300781 16.503906 91.203125 C 17.058594 90.785156 17.601562 90.347656 18.140625 89.910156 C 19.015625 89.210938 19.890625 88.515625 20.773438 87.824219 C 21.796875 87.023438 22.804688 86.207031 23.8125 85.386719 C 24.671875 84.683594 25.539062 83.996094 26.417969 83.316406 C 27.097656 82.78125 27.773438 82.238281 28.441406 81.6875 C 29.027344 81.210938 29.613281 80.738281 30.199219 80.265625 C 30.296875 80.1875 30.394531 80.109375 30.496094 80.027344 C 32.316406 78.582031 32.316406 78.582031 33.398438 78.667969 C 34.265625 79.144531 34.675781 79.617188 35.144531 80.484375 C 35.199219 80.585938 35.257812 80.691406 35.316406 80.800781 C 35.496094 81.128906 35.675781 81.464844 35.851562 81.796875 C 35.972656 82.023438 36.09375 82.246094 36.214844 82.472656 C 37.394531 84.644531 37.394531 84.644531 37.304688 85.59375 C 36.828125 86.4375 36.25 86.988281 35.484375 87.558594 C 35.261719 87.726562 35.039062 87.898438 34.816406 88.070312 C 34.699219 88.15625 34.582031 88.246094 34.464844 88.335938 C 33.859375 88.804688 33.265625 89.292969 32.675781 89.777344 C 31.589844 90.664062 30.492188 91.527344 29.378906 92.371094 C 28.984375 92.660156 28.984375 92.660156 28.777344 92.875 C 28.921875 92.878906 29.0625 92.878906 29.210938 92.882812 C 29.753906 92.894531 30.300781 92.90625 30.84375 92.921875 C 31.1875 92.929688 31.535156 92.9375 31.878906 92.941406 C 36.285156 93.066406 40.566406 94.710938 43.699219 97.847656 C 44.464844 98.664062 45.207031 99.515625 45.769531 100.484375 C 45.847656 100.613281 45.929688 100.738281 46.007812 100.867188 C 46.125 100.867188 46.242188 100.867188 46.363281 100.867188 C 46.613281 100.59375 46.847656 100.304688 47.074219 100.011719 C 47.648438 99.296875 48.230469 98.609375 48.851562 97.9375 C 49.4375 97.300781 49.996094 96.65625 50.539062 95.984375 C 51.082031 95.3125 51.640625 94.664062 52.226562 94.03125 C 52.960938 93.234375 53.648438 92.414062 54.324219 91.570312 C 54.90625 90.863281 55.519531 90.179688 56.136719 89.5 C 56.050781 89.320312 56.050781 89.320312 55.96875 89.132812 C 55.464844 87.738281 55.464844 87.738281 55.753906 86.96875 C 55.980469 86.511719 56.230469 86.074219 56.492188 85.636719 C 56.625 85.402344 56.625 85.402344 56.761719 85.164062 C 57.023438 84.710938 57.289062 84.265625 57.554688 83.816406 C 57.625 83.703125 57.691406 83.585938 57.761719 83.46875 C 58.761719 81.757812 58.761719 81.757812 59.511719 81.507812 C 60.628906 81.308594 61.367188 81.925781 62.265625 82.507812 C 66.660156 85.238281 71.679688 86.496094 76.828125 86.757812 C 76.972656 86.765625 77.121094 86.773438 77.269531 86.78125 C 77.628906 86.800781 77.984375 86.816406 78.339844 86.835938 C 78.007812 84.835938 77.675781 82.835938 77.339844 80.839844 C 77.28125 80.476562 77.21875 80.117188 77.160156 79.757812 C 77.066406 79.191406 76.96875 78.628906 76.875 78.066406 C 76.847656 77.90625 76.820312 77.746094 76.792969 77.578125 C 76.566406 76.007812 76.566406 76.007812 75.675781 74.757812 C 74.964844 74.046875 74.964844 74.046875 74.738281 73.777344 C 73.378906 72.613281 70.710938 72.898438 69.003906 72.882812 C 68.59375 72.878906 68.1875 72.875 67.777344 72.867188 C 67.527344 72.863281 67.277344 72.859375 67.023438 72.859375 C 66.386719 72.847656 65.910156 72.808594 65.371094 72.449219 C 65.011719 71.964844 64.949219 71.480469 64.957031 70.882812 C 65.089844 70.03125 65.542969 69.269531 65.925781 68.507812 C 66.0625 68.238281 66.0625 68.238281 66.199219 67.960938 C 66.375 67.605469 66.554688 67.246094 66.730469 66.890625 C 66.929688 66.492188 67.125 66.089844 67.3125 65.683594 C 67.402344 65.496094 67.492188 65.304688 67.582031 65.113281 C 67.65625 64.957031 67.726562 64.796875 67.804688 64.636719 C 68.085938 64.207031 68.273438 64.113281 68.746094 63.925781 C 69.167969 63.878906 69.167969 63.878906 69.640625 63.878906 C 69.816406 63.878906 69.996094 63.875 70.175781 63.875 C 70.367188 63.875 70.558594 63.875 70.757812 63.878906 C 70.957031 63.878906 71.152344 63.875 71.359375 63.875 C 71.777344 63.875 72.199219 63.875 72.621094 63.878906 C 73.257812 63.878906 73.894531 63.878906 74.53125 63.875 C 74.945312 63.875 75.355469 63.875 75.765625 63.878906 C 75.953125 63.875 76.140625 63.875 76.332031 63.875 C 78.226562 63.886719 80.074219 64.035156 81.769531 64.921875 C 81.886719 64.980469 82.003906 65.039062 82.125 65.097656 C 82.402344 65.238281 82.683594 65.378906 82.960938 65.523438 C 82.960938 65.640625 82.960938 65.757812 82.960938 65.878906 C 83.066406 65.894531 83.171875 65.914062 83.28125 65.929688 C 83.753906 66.082031 83.90625 66.269531 84.214844 66.65625 C 84.582031 67.117188 84.582031 67.117188 84.996094 67.535156 C 85.390625 67.964844 85.625 68.4375 85.890625 68.953125 C 85.996094 69.152344 86.097656 69.347656 86.207031 69.550781 C 87.007812 71.347656 87.175781 73.488281 87.480469 75.417969 C 87.519531 75.671875 87.558594 75.921875 87.601562 76.175781 C 87.710938 76.855469 87.816406 77.535156 87.925781 78.214844 C 88.042969 78.941406 88.15625 79.667969 88.273438 80.398438 C 88.496094 81.789062 88.71875 83.179688 88.941406 84.570312 C 89.183594 86.101562 89.429688 87.632812 89.671875 89.164062 C 89.988281 91.128906 90.300781 93.09375 90.617188 95.058594 C 90.640625 95.207031 90.664062 95.359375 90.6875 95.511719 C 90.738281 95.816406 90.785156 96.121094 90.832031 96.421875 C 91.246094 99.011719 91.660156 101.601562 92.074219 104.191406 C 92.125 104.496094 92.171875 104.796875 92.21875 105.097656 C 92.496094 106.820312 92.496094 106.820312 92.773438 108.542969 C 92.996094 109.9375 93.21875 111.328125 93.441406 112.722656 C 93.5625 113.484375 93.683594 114.246094 93.808594 115.007812 C 93.890625 115.523438 93.976562 116.042969 94.058594 116.558594 C 94.113281 116.914062 94.171875 117.269531 94.230469 117.625 C 94.675781 120.429688 94.921875 123.121094 93.617188 125.734375 C 93.5 125.734375 93.382812 125.734375 93.261719 125.734375 C 93.246094 125.863281 93.234375 125.988281 93.21875 126.121094 C 92.835938 127.550781 91.269531 128.691406 90.066406 129.464844 C 88.695312 130.171875 87.609375 130.554688 86.066406 130.554688 C 85.929688 130.554688 85.792969 130.554688 85.652344 130.554688 C 85.195312 130.554688 84.738281 130.554688 84.28125 130.554688 C 83.953125 130.558594 83.621094 130.558594 83.292969 130.558594 C 82.382812 130.5625 81.472656 130.5625 80.5625 130.5625 C 79.582031 130.5625 78.601562 130.566406 77.625 130.566406 C 75.253906 130.570312 72.886719 130.574219 70.519531 130.578125 C 69.851562 130.578125 69.179688 130.578125 68.511719 130.578125 C 64.359375 130.582031 60.207031 130.585938 56.054688 130.589844 C 55.09375 130.589844 54.128906 130.589844 53.167969 130.589844 C 53.046875 130.589844 52.929688 130.589844 52.804688 130.589844 C 48.933594 130.59375 45.058594 130.597656 41.183594 130.605469 C 37.089844 130.613281 32.992188 130.617188 28.894531 130.621094 C 26.664062 130.621094 24.429688 130.621094 22.199219 130.628906 C 20.296875 130.632812 18.394531 130.636719 16.492188 130.632812 C 15.523438 130.632812 14.554688 130.632812 13.585938 130.636719 C 12.695312 130.640625 11.804688 130.640625 10.917969 130.636719 C 10.597656 130.636719 10.277344 130.636719 9.957031 130.640625 C 7.707031 130.660156 6.113281 130.3125 4.085938 129.285156 C 4.085938 129.167969 4.085938 129.050781 4.085938 128.929688 C 3.929688 128.90625 3.929688 128.90625 3.769531 128.882812 C 3.261719 128.714844 3.078125 128.476562 2.742188 128.066406 C 2.324219 127.554688 2.324219 127.554688 1.867188 127.085938 C 0.261719 125.363281 -0.09375 123.070312 -0.0546875 120.8125 C 0.03125 118.777344 0.453125 116.75 0.789062 114.742188 C 0.902344 114.0625 1.011719 113.386719 1.121094 112.707031 C 1.261719 111.859375 1.398438 111.011719 1.539062 110.164062 C 1.847656 108.277344 2.148438 106.394531 2.445312 104.507812 C 2.464844 104.382812 2.484375 104.257812 2.503906 104.125 C 2.601562 103.492188 2.703125 102.855469 2.800781 102.21875 C 3.339844 98.769531 3.882812 95.320312 4.441406 91.875 C 4.476562 91.667969 4.476562 91.667969 4.511719 91.457031 C 4.734375 90.070312 4.960938 88.6875 5.1875 87.300781 C 5.296875 86.621094 5.410156 85.941406 5.519531 85.261719 C 5.542969 85.128906 5.5625 84.996094 5.585938 84.859375 C 5.894531 82.976562 6.1875 81.09375 6.472656 79.210938 C 6.53125 78.816406 6.589844 78.421875 6.652344 78.03125 C 6.671875 77.902344 6.691406 77.777344 6.710938 77.644531 C 6.75 77.390625 6.789062 77.140625 6.828125 76.886719 C 6.917969 76.28125 7.011719 75.675781 7.097656 75.070312 C 8.074219 68.386719 8.074219 68.386719 10.136719 66.820312 C 10.640625 66.445312 10.640625 66.445312 10.96875 66.089844 C 11.191406 65.878906 11.191406 65.878906 11.546875 65.878906 C 11.546875 65.761719 11.546875 65.644531 11.546875 65.523438 C 11.941406 65.320312 12.335938 65.121094 12.734375 64.921875 C 12.84375 64.867188 12.949219 64.8125 13.0625 64.753906 C 14.816406 63.898438 16.820312 63.871094 18.734375 63.871094 Z M 12.613281 66.589844 C 12.554688 66.707031 12.496094 66.824219 12.433594 66.945312 C 12.257812 67.003906 12.082031 67.0625 11.902344 67.121094 C 11.601562 67.472656 11.304688 67.828125 11.015625 68.1875 C 10.839844 68.273438 10.839844 68.273438 10.660156 68.363281 C 10.660156 68.539062 10.660156 68.714844 10.660156 68.898438 C 10.542969 68.898438 10.425781 68.898438 10.304688 68.898438 C 10.304688 69.074219 10.304688 69.25 10.304688 69.429688 C 10.1875 69.429688 10.070312 69.429688 9.949219 69.429688 C 9.421875 70.621094 9.089844 71.738281 8.898438 73.023438 C 8.871094 73.195312 8.84375 73.367188 8.816406 73.546875 C 8.726562 74.121094 8.636719 74.691406 8.550781 75.265625 C 8.484375 75.671875 8.421875 76.082031 8.355469 76.488281 C 8.21875 77.355469 8.085938 78.226562 7.949219 79.09375 C 7.738281 80.464844 7.523438 81.835938 7.304688 83.207031 C 7.050781 84.816406 6.800781 86.429688 6.546875 88.042969 C 6.050781 91.207031 5.546875 94.367188 5.035156 97.527344 C 4.875 98.523438 4.714844 99.519531 4.558594 100.515625 C 4.535156 100.652344 4.511719 100.792969 4.488281 100.9375 C 4.445312 101.21875 4.398438 101.503906 4.351562 101.785156 C 4.011719 103.910156 3.671875 106.039062 3.324219 108.164062 C 3.105469 109.519531 2.886719 110.878906 2.667969 112.234375 C 2.539062 113.046875 2.40625 113.855469 2.277344 114.667969 C 2.152344 115.417969 2.03125 116.167969 1.914062 116.921875 C 1.867188 117.195312 1.824219 117.46875 1.777344 117.742188 C 1.289062 120.714844 1.03125 123.507812 2.84375 126.089844 C 3.203125 126.457031 3.566406 126.777344 3.972656 127.09375 C 4.261719 127.332031 4.261719 127.332031 4.441406 127.6875 C 4.617188 127.746094 4.792969 127.804688 4.972656 127.863281 C 5.054688 127.949219 5.136719 128.03125 5.222656 128.117188 C 6.59375 129.464844 8.933594 129.207031 10.703125 129.199219 C 11.03125 129.199219 11.359375 129.203125 11.6875 129.203125 C 12.585938 129.207031 13.484375 129.207031 14.382812 129.203125 C 15.351562 129.203125 16.324219 129.203125 17.292969 129.207031 C 19.191406 129.210938 21.09375 129.210938 22.992188 129.210938 C 24.539062 129.207031 26.082031 129.207031 27.625 129.210938 C 27.957031 129.210938 27.957031 129.210938 28.292969 129.210938 C 28.738281 129.210938 29.1875 129.210938 29.632812 129.210938 C 33.703125 129.214844 37.773438 129.214844 41.839844 129.210938 C 45.554688 129.207031 49.265625 129.207031 52.976562 129.214844 C 57.148438 129.21875 61.324219 129.222656 65.496094 129.21875 C 65.941406 129.21875 66.386719 129.21875 66.832031 129.21875 C 67.050781 129.21875 67.269531 129.21875 67.496094 129.21875 C 69.039062 129.21875 70.578125 129.222656 72.121094 129.222656 C 74 129.226562 75.882812 129.226562 77.761719 129.222656 C 78.71875 129.21875 79.679688 129.21875 80.636719 129.222656 C 81.515625 129.226562 82.394531 129.226562 83.273438 129.222656 C 83.589844 129.21875 83.90625 129.21875 84.222656 129.222656 C 86.136719 129.234375 87.605469 129.074219 89.355469 128.21875 C 89.355469 128.101562 89.355469 127.984375 89.355469 127.863281 C 89.449219 127.820312 89.542969 127.777344 89.644531 127.730469 C 90.792969 127.132812 90.792969 127.132812 91.484375 126.089844 C 91.601562 126.03125 91.71875 125.972656 91.839844 125.910156 C 91.972656 125.5 92.089844 125.085938 92.195312 124.667969 C 92.3125 124.667969 92.429688 124.667969 92.550781 124.667969 C 92.980469 123.628906 93.132812 122.632812 93.128906 121.511719 C 93.128906 121.378906 93.128906 121.246094 93.128906 121.113281 C 93.105469 119.628906 92.882812 118.191406 92.640625 116.734375 C 92.59375 116.433594 92.546875 116.132812 92.5 115.832031 C 92.375 115.042969 92.246094 114.253906 92.117188 113.460938 C 91.996094 112.699219 91.875 111.9375 91.753906 111.175781 C 91.300781 108.328125 90.832031 105.480469 90.363281 102.636719 C 90.21875 101.742188 90.070312 100.847656 89.921875 99.957031 C 89.886719 99.730469 89.847656 99.5 89.808594 99.269531 C 89.234375 95.777344 88.679688 92.28125 88.132812 88.785156 C 88.035156 88.175781 87.941406 87.566406 87.84375 86.953125 C 87.765625 86.46875 87.691406 85.980469 87.613281 85.492188 C 87.597656 85.371094 87.578125 85.253906 87.558594 85.128906 C 87.34375 83.765625 87.132812 82.40625 86.921875 81.042969 C 86.746094 79.929688 86.574219 78.8125 86.398438 77.699219 C 86.304688 77.117188 86.214844 76.535156 86.125 75.957031 C 86.027344 75.316406 85.925781 74.679688 85.824219 74.042969 C 85.796875 73.855469 85.769531 73.671875 85.738281 73.480469 C 85.515625 72.09375 85.191406 70.695312 84.558594 69.429688 C 84.441406 69.429688 84.324219 69.429688 84.203125 69.429688 C 84.195312 69.242188 84.195312 69.242188 84.191406 69.054688 C 83.972656 68.386719 83.609375 68.136719 83.066406 67.714844 C 82.78125 67.476562 82.78125 67.476562 82.605469 67.121094 C 82.429688 67.0625 82.253906 67.003906 82.070312 66.945312 C 82.011719 66.828125 81.953125 66.710938 81.894531 66.589844 C 79.265625 64.996094 76.074219 65.300781 73.121094 65.324219 C 72.730469 65.324219 72.339844 65.328125 71.949219 65.328125 C 71 65.332031 70.050781 65.339844 69.101562 65.34375 C 69.007812 65.546875 68.914062 65.75 68.816406 65.957031 C 68.691406 66.226562 68.5625 66.496094 68.4375 66.769531 C 68.375 66.898438 68.3125 67.03125 68.25 67.167969 C 67.742188 68.246094 67.210938 69.304688 66.660156 70.363281 C 66.402344 70.84375 66.402344 70.84375 66.4375 71.382812 C 66.609375 71.386719 66.78125 71.390625 66.957031 71.390625 C 67.601562 71.402344 68.246094 71.417969 68.890625 71.429688 C 69.167969 71.4375 69.445312 71.441406 69.722656 71.445312 C 73.929688 71.507812 73.929688 71.507812 75.5 72.449219 C 75.558594 72.566406 75.617188 72.683594 75.675781 72.804688 C 75.890625 72.925781 75.890625 72.925781 76.109375 73.050781 C 76.601562 73.363281 76.691406 73.53125 76.917969 74.046875 C 77.003906 74.125 77.085938 74.203125 77.175781 74.28125 C 77.875 75.035156 78.066406 76.082031 78.222656 77.070312 C 78.242188 77.1875 78.261719 77.304688 78.277344 77.425781 C 78.339844 77.808594 78.398438 78.191406 78.457031 78.574219 C 78.5 78.84375 78.542969 79.113281 78.585938 79.378906 C 78.699219 80.082031 78.808594 80.785156 78.917969 81.488281 C 79.09375 82.617188 79.273438 83.742188 79.449219 84.871094 C 79.511719 85.265625 79.574219 85.660156 79.636719 86.050781 C 79.671875 86.292969 79.710938 86.53125 79.75 86.773438 C 79.78125 86.984375 79.8125 87.191406 79.847656 87.410156 C 79.914062 87.890625 79.914062 87.890625 80.117188 88.257812 C 73.5 88.179688 66.183594 87.410156 60.710938 83.273438 C 60.546875 83.160156 60.386719 83.046875 60.222656 82.929688 C 59.503906 83.167969 59.421875 83.480469 59.054688 84.132812 C 58.964844 84.289062 58.964844 84.289062 58.875 84.445312 C 58.691406 84.769531 58.507812 85.097656 58.324219 85.425781 C 58.195312 85.648438 58.070312 85.871094 57.945312 86.089844 C 57.636719 86.636719 57.328125 87.179688 57.023438 87.722656 C 57.1875 87.886719 57.1875 87.886719 57.355469 88.054688 C 57.71875 88.417969 58.082031 88.78125 58.445312 89.144531 C 58.335938 89.265625 58.226562 89.382812 58.113281 89.503906 C 57.34375 90.339844 56.59375 91.179688 55.878906 92.066406 C 55.230469 92.871094 54.546875 93.632812 53.839844 94.386719 C 53.164062 95.117188 52.539062 95.882812 51.914062 96.65625 C 51.5 97.15625 51.070312 97.636719 50.628906 98.113281 C 49.902344 98.902344 49.222656 99.71875 48.550781 100.550781 C 47.964844 101.257812 47.339844 101.933594 46.714844 102.605469 C 46.359375 102.96875 46.359375 102.96875 46.1875 103.355469 C 46.070312 103.355469 45.953125 103.355469 45.832031 103.355469 C 45.578125 102.984375 45.34375 102.617188 45.109375 102.234375 C 42.691406 98.363281 39.429688 95.804688 34.941406 94.753906 C 34.78125 94.71875 34.625 94.6875 34.460938 94.652344 C 34.257812 94.605469 34.257812 94.605469 34.046875 94.558594 C 33.570312 94.472656 33.125 94.445312 32.640625 94.4375 C 32.460938 94.433594 32.28125 94.429688 32.09375 94.425781 C 31.898438 94.421875 31.707031 94.421875 31.507812 94.417969 C 31.207031 94.410156 31.207031 94.410156 30.898438 94.40625 C 30.261719 94.394531 29.625 94.382812 28.988281 94.375 C 28.554688 94.367188 28.125 94.359375 27.691406 94.351562 C 26.632812 94.332031 25.574219 94.3125 24.515625 94.296875 C 24.757812 94.105469 24.757812 94.105469 25.007812 93.910156 C 26.15625 93.011719 27.296875 92.109375 28.421875 91.1875 C 29.402344 90.386719 30.390625 89.601562 31.386719 88.824219 C 32.34375 88.074219 33.285156 87.308594 34.226562 86.539062 C 34.769531 86.09375 35.316406 85.652344 35.882812 85.238281 C 35.535156 84.109375 34.984375 83.164062 34.386719 82.152344 C 34.28125 81.96875 34.175781 81.789062 34.070312 81.601562 C 33.96875 81.429688 33.867188 81.257812 33.765625 81.082031 C 33.671875 80.925781 33.582031 80.769531 33.484375 80.605469 C 33.355469 80.4375 33.355469 80.4375 33.21875 80.265625 C 32.613281 80.265625 32.542969 80.328125 32.101562 80.703125 C 31.984375 80.796875 31.871094 80.890625 31.753906 80.988281 C 31.632812 81.089844 31.511719 81.191406 31.386719 81.296875 C 31.128906 81.511719 30.871094 81.726562 30.613281 81.9375 C 30.417969 82.101562 30.417969 82.101562 30.21875 82.265625 C 29.6875 82.703125 29.144531 83.128906 28.601562 83.550781 C 27.703125 84.25 26.816406 84.960938 25.9375 85.683594 C 24.546875 86.816406 23.136719 87.925781 21.722656 89.027344 C 20.621094 89.890625 19.519531 90.757812 18.4375 91.640625 C 18.191406 91.839844 17.945312 92.039062 17.699219 92.238281 C 17.199219 92.644531 16.703125 93.046875 16.21875 93.46875 C 15.308594 94.242188 14.703125 94.453125 13.5 94.472656 C 13.546875 94.230469 13.546875 94.230469 13.597656 93.976562 C 13.945312 92.167969 14.246094 90.351562 14.527344 88.53125 C 14.632812 87.855469 14.742188 87.183594 14.847656 86.511719 C 15.042969 85.265625 15.238281 84.019531 15.433594 82.773438 C 15.570312 81.898438 15.707031 81.023438 15.847656 80.152344 C 15.898438 79.820312 15.949219 79.492188 16 79.160156 C 16.566406 75.496094 16.566406 75.496094 17.230469 74.226562 C 17.347656 74.167969 17.464844 74.109375 17.585938 74.046875 C 17.65625 73.917969 17.726562 73.785156 17.796875 73.648438 C 18.539062 72.523438 19.691406 72.058594 20.960938 71.738281 C 21.792969 71.578125 22.609375 71.527344 23.453125 71.503906 C 23.585938 71.503906 23.71875 71.5 23.855469 71.496094 C 24.273438 71.484375 24.695312 71.472656 25.113281 71.460938 C 25.398438 71.453125 25.6875 71.445312 25.972656 71.4375 C 26.671875 71.417969 27.371094 71.402344 28.066406 71.382812 C 28.125 71.207031 28.183594 71.03125 28.246094 70.851562 C 28.1875 70.734375 28.128906 70.617188 28.066406 70.496094 C 27.949219 70.496094 27.832031 70.496094 27.710938 70.496094 C 27.640625 70.277344 27.640625 70.277344 27.566406 70.050781 C 27.335938 69.363281 27.082031 68.6875 26.824219 68.007812 C 26.707031 68.007812 26.589844 68.007812 26.46875 68.007812 C 26.398438 67.679688 26.328125 67.351562 26.261719 67.019531 C 26.125 66.621094 25.960938 66.304688 25.75 65.941406 C 25.636719 65.742188 25.519531 65.546875 25.402344 65.34375 C 24.242188 65.332031 23.078125 65.324219 21.914062 65.316406 C 21.523438 65.3125 21.128906 65.308594 20.734375 65.304688 C 16.511719 65.179688 16.511719 65.179688 12.613281 66.589844 Z M 12.613281 66.589844 " fill-opacity="1" fill-rule="nonzero"/></g><g clip-path="url(#cf9d901a79)"><path fill="#030203" d="M 53.46875 17.214844 C 53.609375 17.246094 53.75 17.28125 53.894531 17.3125 C 56.324219 17.917969 58.527344 18.917969 60.753906 20.054688 C 60.753906 20.171875 60.753906 20.289062 60.753906 20.410156 C 60.902344 20.453125 61.054688 20.496094 61.207031 20.542969 C 62.371094 20.964844 63.097656 21.488281 63.953125 22.363281 C 64.1875 22.542969 64.421875 22.722656 64.660156 22.898438 C 65.25 23.328125 65.75 23.792969 66.261719 24.316406 C 66.671875 24.675781 67.089844 25.035156 67.507812 25.390625 C 67.851562 25.730469 68.019531 26.007812 68.214844 26.449219 C 68.339844 26.574219 68.339844 26.574219 68.46875 26.703125 C 68.820312 27.050781 69.027344 27.449219 69.28125 27.871094 C 69.371094 27.953125 69.464844 28.039062 69.558594 28.125 C 69.921875 28.519531 70.019531 28.957031 70.167969 29.46875 C 70.285156 29.46875 70.402344 29.46875 70.523438 29.46875 C 72.703125 33.269531 74.304688 37.476562 74.433594 41.902344 C 74.4375 42.027344 74.441406 42.15625 74.445312 42.289062 C 74.511719 44.371094 74.378906 46.265625 73.898438 48.292969 C 73.851562 48.519531 73.800781 48.746094 73.75 48.976562 C 72.835938 53 71.355469 57.644531 69.191406 61.160156 C 68.949219 61.578125 68.785156 61.964844 68.613281 62.414062 C 68.242188 63.375 67.753906 64.253906 67.257812 65.15625 C 66.921875 65.796875 66.667969 66.433594 66.4375 67.121094 C 66.320312 67.121094 66.203125 67.121094 66.082031 67.121094 C 66.042969 67.257812 66.003906 67.394531 65.960938 67.535156 C 65.640625 68.425781 65.230469 69.265625 64.816406 70.117188 C 64.734375 70.292969 64.652344 70.464844 64.566406 70.644531 C 64.359375 71.066406 64.15625 71.492188 63.953125 71.917969 C 63.835938 71.917969 63.71875 71.917969 63.597656 71.917969 C 63.558594 72.027344 63.523438 72.140625 63.484375 72.253906 C 63.414062 72.472656 63.414062 72.472656 63.339844 72.695312 C 63.292969 72.839844 63.246094 72.984375 63.195312 73.132812 C 63.0625 73.515625 63.0625 73.515625 62.886719 73.871094 C 62.769531 73.871094 62.652344 73.871094 62.53125 73.871094 C 62.492188 73.980469 62.457031 74.09375 62.417969 74.207031 C 62.347656 74.425781 62.347656 74.425781 62.273438 74.648438 C 62.226562 74.792969 62.179688 74.9375 62.132812 75.085938 C 61.996094 75.46875 61.996094 75.46875 61.820312 75.824219 C 61.703125 75.824219 61.585938 75.824219 61.464844 75.824219 C 61.199219 76.617188 61.199219 76.617188 60.929688 77.421875 C 60.8125 77.421875 60.695312 77.421875 60.574219 77.421875 C 60.546875 77.613281 60.546875 77.613281 60.519531 77.808594 C 60.386719 78.363281 60.179688 78.765625 59.894531 79.261719 C 59.742188 79.527344 59.742188 79.527344 59.589844 79.796875 C 59.480469 79.980469 59.375 80.164062 59.265625 80.355469 C 59.160156 80.535156 59.054688 80.71875 58.949219 80.910156 C 58.664062 81.40625 58.378906 81.902344 58.089844 82.394531 C 57.996094 82.5625 57.90625 82.726562 57.808594 82.898438 C 57.726562 83.027344 57.644531 83.152344 57.554688 83.285156 C 57.4375 83.285156 57.320312 83.285156 57.199219 83.285156 C 57.175781 83.421875 57.148438 83.5625 57.125 83.707031 C 57.023438 84.171875 57.023438 84.171875 56.84375 84.527344 C 56.726562 84.527344 56.609375 84.527344 56.492188 84.527344 C 56.421875 84.707031 56.421875 84.707031 56.355469 84.890625 C 56.09375 85.511719 55.789062 86.101562 55.46875 86.691406 C 55.40625 86.808594 55.34375 86.925781 55.277344 87.046875 C 53.871094 89.652344 53.871094 89.652344 53.113281 90.390625 C 52.996094 90.566406 52.878906 90.742188 52.761719 90.921875 C 52.644531 90.921875 52.523438 90.921875 52.40625 90.921875 C 52.40625 91.039062 52.40625 91.15625 52.40625 91.277344 C 52.054688 91.394531 51.699219 91.511719 51.339844 91.632812 C 51.339844 91.75 51.339844 91.867188 51.339844 91.988281 C 49.25 93.023438 47.03125 93.421875 44.765625 92.699219 C 44.035156 92.375 43.332031 92.019531 42.632812 91.632812 C 42.632812 91.515625 42.632812 91.398438 42.632812 91.277344 C 42.425781 91.210938 42.425781 91.210938 42.210938 91.144531 C 41.671875 90.886719 41.617188 90.746094 41.390625 90.210938 C 41.253906 90.078125 41.253906 90.078125 41.113281 89.945312 C 40.8125 89.628906 40.753906 89.390625 40.679688 88.96875 C 40.5625 88.96875 40.445312 88.96875 40.324219 88.96875 C 40.074219 88.617188 40.074219 88.617188 39.785156 88.132812 C 39.683594 87.957031 39.578125 87.785156 39.472656 87.605469 C 39.367188 87.421875 39.257812 87.238281 39.148438 87.046875 C 39.039062 86.867188 38.929688 86.683594 38.820312 86.496094 C 38.015625 85.128906 38.015625 85.128906 38.015625 84.527344 C 37.898438 84.527344 37.78125 84.527344 37.660156 84.527344 C 37.269531 83.851562 36.882812 83.175781 36.496094 82.5 C 36.363281 82.269531 36.230469 82.042969 36.097656 81.8125 C 33.929688 78.046875 33.929688 78.046875 33.929688 77.421875 C 33.8125 77.421875 33.695312 77.421875 33.574219 77.421875 C 33.316406 76.953125 33.21875 76.730469 33.21875 76.179688 C 33.101562 76.179688 32.984375 76.179688 32.863281 76.179688 C 32.714844 75.863281 32.566406 75.542969 32.417969 75.226562 C 32.335938 75.046875 32.253906 74.871094 32.171875 74.6875 C 31.976562 74.226562 31.976562 74.226562 31.976562 73.871094 C 31.859375 73.871094 31.742188 73.871094 31.621094 73.871094 C 31.441406 73.492188 31.265625 73.117188 31.085938 72.738281 C 30.988281 72.527344 30.890625 72.316406 30.789062 72.101562 C 30.554688 71.5625 30.554688 71.5625 30.554688 71.207031 C 30.4375 71.207031 30.320312 71.207031 30.199219 71.207031 C 30.078125 70.957031 30.078125 70.957031 29.957031 70.707031 C 29.65625 70.078125 29.355469 69.453125 29.054688 68.828125 C 28.921875 68.5625 28.792969 68.292969 28.664062 68.023438 C 27.929688 66.496094 27.179688 64.984375 26.359375 63.496094 C 26.0625 62.941406 25.816406 62.375 25.582031 61.792969 C 25.449219 61.5 25.316406 61.207031 25.179688 60.917969 C 23.386719 56.984375 21.761719 53.042969 20.785156 48.828125 C 20.683594 48.449219 20.585938 48.074219 20.484375 47.695312 C 19.78125 44.84375 19.9375 41.757812 20.429688 38.882812 C 20.449219 38.757812 20.472656 38.632812 20.492188 38.503906 C 21.066406 35.261719 22.359375 32.316406 23.980469 29.46875 C 24.097656 29.46875 24.214844 29.46875 24.335938 29.46875 C 24.375 29.320312 24.410156 29.175781 24.449219 29.023438 C 24.917969 27.828125 25.828125 26.890625 26.644531 25.914062 C 26.746094 25.777344 26.84375 25.636719 26.945312 25.492188 C 27.023438 25.398438 27.101562 25.304688 27.179688 25.207031 C 27.296875 25.207031 27.414062 25.207031 27.535156 25.207031 C 27.535156 25.089844 27.535156 24.972656 27.535156 24.851562 C 28.160156 24.144531 28.882812 23.59375 29.628906 23.023438 C 29.964844 22.761719 30.289062 22.496094 30.609375 22.21875 C 31.007812 21.894531 31.34375 21.695312 31.796875 21.476562 C 31.878906 21.390625 31.960938 21.308594 32.042969 21.21875 C 32.507812 20.773438 33.097656 20.410156 33.753906 20.410156 C 33.753906 20.292969 33.753906 20.175781 33.753906 20.054688 C 39.867188 17.003906 46.699219 15.570312 53.46875 17.214844 Z M 34.816406 21.121094 C 34.816406 21.238281 34.816406 21.355469 34.816406 21.476562 C 34.371094 21.652344 33.929688 21.832031 33.472656 21.984375 C 32.980469 22.214844 32.707031 22.507812 32.332031 22.898438 C 32.15625 22.957031 31.980469 23.015625 31.796875 23.074219 C 31.398438 23.453125 31.015625 23.84375 30.644531 24.25 C 30.375 24.496094 30.375 24.496094 29.953125 24.738281 C 29.417969 25.070312 29.023438 25.445312 28.601562 25.914062 C 28.601562 26.03125 28.601562 26.148438 28.601562 26.269531 C 28.496094 26.3125 28.386719 26.351562 28.277344 26.394531 C 27.789062 26.6875 27.632812 27.023438 27.355469 27.515625 C 27.179688 27.601562 27.179688 27.601562 27 27.691406 C 26.816406 27.980469 26.816406 27.980469 26.644531 28.3125 C 26.332031 28.914062 26.332031 28.914062 25.9375 29.113281 C 25.539062 29.785156 25.539062 29.785156 25.402344 30.535156 C 25.285156 30.535156 25.167969 30.535156 25.046875 30.535156 C 24.988281 30.828125 24.929688 31.121094 24.871094 31.421875 C 24.753906 31.421875 24.636719 31.421875 24.515625 31.421875 C 24.457031 31.773438 24.398438 32.125 24.335938 32.488281 C 24.21875 32.488281 24.101562 32.488281 23.980469 32.488281 C 23.765625 33.046875 23.550781 33.605469 23.335938 34.164062 C 23.195312 34.535156 23.050781 34.902344 22.902344 35.265625 C 22.0625 37.390625 21.570312 39.796875 21.496094 42.078125 C 21.488281 42.269531 21.480469 42.464844 21.472656 42.660156 C 21.425781 45.164062 21.910156 47.496094 22.5625 49.894531 C 22.621094 50.113281 22.679688 50.335938 22.738281 50.5625 C 23.035156 51.632812 23.363281 52.664062 23.792969 53.6875 C 24.023438 54.257812 24.222656 54.839844 24.425781 55.421875 C 24.710938 56.230469 25.019531 57 25.421875 57.757812 C 25.757812 58.402344 26.023438 59.074219 26.285156 59.746094 C 26.636719 60.660156 26.636719 60.660156 27.089844 61.527344 C 27.335938 61.9375 27.496094 62.3125 27.664062 62.761719 C 28.074219 63.800781 28.585938 64.773438 29.109375 65.757812 C 29.875 67.199219 30.609375 68.644531 31.265625 70.140625 C 31.382812 70.140625 31.5 70.140625 31.621094 70.140625 C 31.664062 70.285156 31.707031 70.425781 31.753906 70.574219 C 32.023438 71.339844 32.347656 72.070312 32.6875 72.804688 C 32.804688 72.804688 32.921875 72.804688 33.042969 72.804688 C 33.09375 72.964844 33.09375 72.964844 33.144531 73.128906 C 33.191406 73.273438 33.238281 73.414062 33.285156 73.558594 C 33.332031 73.699219 33.375 73.839844 33.421875 73.984375 C 33.566406 74.378906 33.734375 74.742188 33.929688 75.113281 C 34.046875 75.113281 34.164062 75.113281 34.285156 75.113281 C 34.460938 75.730469 34.460938 75.730469 34.640625 76.359375 C 34.757812 76.359375 34.875 76.359375 34.996094 76.359375 C 35.027344 76.460938 35.058594 76.566406 35.09375 76.675781 C 35.34375 77.460938 35.601562 78.152344 36.0625 78.84375 C 36.121094 78.960938 36.179688 79.078125 36.238281 79.199219 C 36.355469 79.199219 36.472656 79.199219 36.59375 79.199219 C 36.769531 79.816406 36.769531 79.816406 36.949219 80.441406 C 37.066406 80.441406 37.183594 80.441406 37.304688 80.441406 C 37.480469 81.058594 37.480469 81.058594 37.660156 81.6875 C 37.777344 81.6875 37.894531 81.6875 38.015625 81.6875 C 38.074219 81.980469 38.132812 82.273438 38.191406 82.574219 C 38.308594 82.574219 38.425781 82.574219 38.546875 82.574219 C 38.605469 82.867188 38.664062 83.160156 38.726562 83.460938 C 38.84375 83.460938 38.960938 83.460938 39.082031 83.460938 C 39.257812 84.078125 39.257812 84.078125 39.4375 84.707031 C 39.554688 84.707031 39.671875 84.707031 39.792969 84.707031 C 39.851562 85 39.910156 85.292969 39.96875 85.59375 C 40.085938 85.59375 40.203125 85.59375 40.324219 85.59375 C 40.382812 85.886719 40.441406 86.179688 40.503906 86.480469 C 40.621094 86.480469 40.738281 86.480469 40.859375 86.480469 C 40.917969 86.773438 40.976562 87.066406 41.035156 87.371094 C 41.152344 87.371094 41.269531 87.371094 41.390625 87.371094 C 41.390625 87.546875 41.390625 87.722656 41.390625 87.902344 C 41.507812 87.902344 41.625 87.902344 41.746094 87.902344 C 41.792969 88.070312 41.839844 88.238281 41.890625 88.414062 C 42.058594 89.011719 42.058594 89.011719 42.632812 89.324219 C 42.691406 89.445312 42.75 89.566406 42.8125 89.6875 C 42.972656 90.097656 42.972656 90.097656 43.523438 90.210938 C 43.582031 90.328125 43.640625 90.445312 43.699219 90.566406 C 43.875 90.566406 44.050781 90.566406 44.234375 90.566406 C 44.234375 90.683594 44.234375 90.800781 44.234375 90.921875 C 46.128906 91.730469 47.933594 91.828125 49.886719 91.085938 C 50.015625 91.03125 50.140625 90.976562 50.273438 90.921875 C 50.273438 90.804688 50.273438 90.6875 50.273438 90.566406 C 50.625 90.449219 50.976562 90.332031 51.339844 90.210938 C 51.339844 90.09375 51.339844 89.976562 51.339844 89.855469 C 51.515625 89.796875 51.691406 89.738281 51.871094 89.679688 C 51.996094 89.445312 52.113281 89.207031 52.226562 88.96875 C 52.34375 88.910156 52.460938 88.851562 52.582031 88.789062 C 52.699219 88.339844 52.699219 88.339844 52.761719 87.902344 C 52.878906 87.902344 52.996094 87.902344 53.113281 87.902344 C 53.171875 87.609375 53.230469 87.316406 53.292969 87.015625 C 53.410156 87.015625 53.527344 87.015625 53.648438 87.015625 C 53.648438 86.839844 53.648438 86.664062 53.648438 86.480469 C 53.765625 86.480469 53.882812 86.480469 54.003906 86.480469 C 54.175781 86.144531 54.34375 85.808594 54.515625 85.472656 C 54.65625 85.191406 54.65625 85.191406 54.800781 84.902344 C 55.03125 84.429688 55.234375 83.953125 55.425781 83.460938 C 55.542969 83.460938 55.660156 83.460938 55.78125 83.460938 C 55.898438 83.050781 56.015625 82.640625 56.136719 82.21875 C 56.253906 82.21875 56.371094 82.21875 56.492188 82.21875 C 56.550781 81.925781 56.609375 81.632812 56.667969 81.332031 C 56.785156 81.332031 56.902344 81.332031 57.023438 81.332031 C 57.082031 81.039062 57.140625 80.746094 57.199219 80.441406 C 57.316406 80.441406 57.433594 80.441406 57.554688 80.441406 C 57.980469 79.628906 58.355469 78.839844 58.621094 77.957031 C 58.738281 77.957031 58.855469 77.957031 58.976562 77.957031 C 59.242188 77.164062 59.242188 77.164062 59.511719 76.359375 C 59.628906 76.359375 59.746094 76.359375 59.867188 76.359375 C 60.128906 75.566406 60.128906 75.566406 60.398438 74.757812 C 60.515625 74.757812 60.632812 74.757812 60.753906 74.757812 C 60.871094 74.5 60.992188 74.242188 61.109375 73.980469 C 61.175781 73.835938 61.242188 73.695312 61.308594 73.542969 C 61.488281 73.175781 61.488281 73.175781 61.464844 72.804688 C 61.582031 72.804688 61.699219 72.804688 61.820312 72.804688 C 61.9375 72.546875 62.058594 72.289062 62.175781 72.027344 C 62.242188 71.882812 62.308594 71.738281 62.375 71.589844 C 62.550781 71.222656 62.550781 71.222656 62.53125 70.851562 C 62.648438 70.851562 62.765625 70.851562 62.886719 70.851562 C 62.886719 70.617188 62.886719 70.382812 62.886719 70.140625 C 63.003906 70.140625 63.121094 70.140625 63.242188 70.140625 C 63.539062 69.527344 63.832031 68.914062 64.128906 68.296875 C 64.214844 68.125 64.296875 67.949219 64.386719 67.769531 C 64.464844 67.601562 64.546875 67.433594 64.628906 67.261719 C 64.738281 67.03125 64.738281 67.03125 64.855469 66.792969 C 65.039062 66.425781 65.039062 66.425781 65.015625 66.054688 C 65.132812 66.054688 65.25 66.054688 65.371094 66.054688 C 65.410156 65.953125 65.445312 65.851562 65.484375 65.75 C 65.832031 64.835938 66.230469 63.980469 66.703125 63.125 C 67.15625 62.304688 67.535156 61.492188 67.867188 60.617188 C 68.039062 60.183594 68.242188 59.785156 68.460938 59.375 C 68.914062 58.488281 69.253906 57.578125 69.59375 56.644531 C 69.855469 55.933594 70.132812 55.230469 70.433594 54.535156 C 71.285156 52.503906 71.929688 50.421875 72.445312 48.285156 C 72.5 48.054688 72.5 48.054688 72.554688 47.824219 C 73.757812 42.644531 72.632812 37.28125 70.523438 32.488281 C 70.40625 32.488281 70.289062 32.488281 70.167969 32.488281 C 70.109375 32.136719 70.050781 31.785156 69.992188 31.421875 C 69.875 31.421875 69.757812 31.421875 69.636719 31.421875 C 69.578125 31.128906 69.519531 30.835938 69.457031 30.535156 C 69.339844 30.535156 69.222656 30.535156 69.101562 30.535156 C 68.910156 30.0625 68.730469 29.59375 68.570312 29.113281 C 68.421875 28.964844 68.277344 28.820312 68.125 28.667969 C 67.683594 28.226562 67.683594 28.226562 67.503906 27.691406 C 67.328125 27.574219 67.152344 27.457031 66.972656 27.335938 C 66.863281 27.140625 66.863281 27.140625 66.75 26.9375 C 66.394531 26.378906 65.992188 26.046875 65.484375 25.632812 C 65.195312 25.382812 65.195312 25.382812 64.90625 24.996094 C 64.585938 24.574219 64.230469 24.410156 63.773438 24.140625 C 62.234375 23.015625 62.234375 23.015625 61.996094 22.542969 C 61.820312 22.542969 61.644531 22.542969 61.464844 22.542969 C 61.464844 22.425781 61.464844 22.308594 61.464844 22.1875 C 61.234375 22.066406 61.003906 21.949219 60.777344 21.832031 C 60.585938 21.730469 60.585938 21.730469 60.390625 21.632812 C 60.050781 21.453125 60.050781 21.453125 59.6875 21.476562 C 59.6875 21.359375 59.6875 21.242188 59.6875 21.121094 C 51.863281 16.972656 42.644531 17.058594 34.816406 21.121094 Z M 34.816406 21.121094 " fill-opacity="1" fill-rule="nonzero"/></g><path fill="#030303" d="M 12.613281 100.15625 C 15.164062 100.144531 17.714844 100.136719 20.265625 100.128906 C 21.449219 100.125 22.636719 100.125 23.820312 100.117188 C 24.964844 100.109375 26.109375 100.109375 27.253906 100.105469 C 27.691406 100.105469 28.125 100.105469 28.5625 100.101562 C 32.261719 100.078125 35.636719 100.167969 38.472656 102.882812 C 39.871094 104.414062 40.929688 106.21875 42.015625 107.976562 C 42.425781 108.640625 42.855469 109.289062 43.289062 109.9375 C 44.03125 111.042969 44.761719 112.152344 45.488281 113.265625 C 45.597656 113.4375 45.710938 113.609375 45.828125 113.789062 C 45.941406 113.964844 46.054688 114.140625 46.175781 114.320312 C 46.867188 115.386719 47.5625 116.449219 48.257812 117.511719 C 48.8125 118.355469 49.363281 119.203125 49.917969 120.050781 C 50.023438 120.210938 50.128906 120.375 50.242188 120.542969 C 50.523438 120.976562 50.804688 121.40625 51.082031 121.835938 C 51.207031 122.023438 51.207031 122.023438 51.332031 122.214844 C 51.871094 123.046875 51.871094 123.046875 51.871094 123.246094 C 47.125 123.253906 42.378906 123.261719 37.632812 123.265625 C 35.425781 123.265625 33.222656 123.269531 31.019531 123.273438 C 29.097656 123.277344 27.175781 123.28125 25.257812 123.28125 C 24.238281 123.28125 23.222656 123.28125 22.203125 123.285156 C 21.246094 123.285156 20.289062 123.289062 19.332031 123.285156 C 18.980469 123.285156 18.628906 123.289062 18.277344 123.289062 C 17.796875 123.289062 17.316406 123.289062 16.835938 123.289062 C 16.628906 123.292969 16.628906 123.292969 16.417969 123.292969 C 15.089844 123.285156 13.96875 123.007812 12.789062 122.359375 C 12.789062 122.242188 12.789062 122.125 12.789062 122.003906 C 12.640625 121.988281 12.640625 121.988281 12.492188 121.96875 C 11.492188 121.621094 10.964844 120.667969 10.492188 119.777344 C 9.59375 117.710938 10.003906 115.582031 10.355469 113.441406 C 10.398438 113.175781 10.441406 112.910156 10.484375 112.648438 C 10.597656 111.953125 10.710938 111.257812 10.824219 110.558594 C 10.9375 109.863281 11.046875 109.167969 11.160156 108.46875 C 11.289062 107.664062 11.421875 106.859375 11.550781 106.054688 C 11.730469 104.957031 11.90625 103.855469 12.078125 102.757812 C 12.101562 102.597656 12.128906 102.4375 12.152344 102.269531 C 12.195312 101.988281 12.238281 101.707031 12.28125 101.425781 C 12.414062 100.550781 12.414062 100.550781 12.613281 100.15625 Z M 13.855469 101.578125 C 13.4375 103.734375 13.03125 105.894531 12.679688 108.0625 C 12.664062 108.183594 12.644531 108.300781 12.625 108.421875 C 12.523438 109.042969 12.421875 109.660156 12.324219 110.28125 C 12.222656 110.917969 12.117188 111.550781 12.011719 112.183594 C 11.929688 112.679688 11.851562 113.171875 11.773438 113.667969 C 11.71875 114.015625 11.660156 114.359375 11.601562 114.707031 C 11.3125 116.558594 11.3125 118.195312 12.257812 119.871094 C 13.109375 120.859375 14.339844 121.636719 15.632812 121.824219 C 16.09375 121.84375 16.550781 121.847656 17.015625 121.847656 C 17.152344 121.847656 17.289062 121.847656 17.433594 121.847656 C 17.894531 121.847656 18.355469 121.847656 18.816406 121.847656 C 19.144531 121.847656 19.476562 121.847656 19.808594 121.847656 C 20.707031 121.847656 21.605469 121.84375 22.503906 121.84375 C 23.441406 121.84375 24.378906 121.84375 25.316406 121.84375 C 27.09375 121.84375 28.871094 121.839844 30.648438 121.839844 C 32.671875 121.835938 34.695312 121.835938 36.71875 121.835938 C 40.882812 121.832031 45.042969 121.828125 49.207031 121.824219 C 49.011719 121.488281 48.8125 121.148438 48.617188 120.808594 C 48.507812 120.617188 48.398438 120.429688 48.285156 120.234375 C 47.875 119.546875 47.4375 118.878906 46.988281 118.21875 C 46.800781 117.941406 46.613281 117.664062 46.429688 117.386719 C 46.28125 117.171875 46.28125 117.171875 46.132812 116.949219 C 45.601562 116.152344 45.078125 115.347656 44.554688 114.542969 C 44.445312 114.375 44.335938 114.203125 44.222656 114.03125 C 43.992188 113.675781 43.761719 113.324219 43.53125 112.96875 C 42.515625 111.410156 41.496094 109.855469 40.476562 108.300781 C 40.1875 107.859375 39.902344 107.417969 39.617188 106.972656 C 38.128906 104.671875 36.59375 102.613281 33.851562 101.851562 C 32.667969 101.601562 31.539062 101.554688 30.332031 101.558594 C 30.152344 101.558594 29.976562 101.558594 29.792969 101.558594 C 29.203125 101.558594 28.617188 101.558594 28.03125 101.5625 C 27.621094 101.5625 27.210938 101.5625 26.804688 101.5625 C 25.730469 101.5625 24.660156 101.5625 23.585938 101.566406 C 22.492188 101.566406 21.394531 101.570312 20.300781 101.570312 C 18.152344 101.570312 16.003906 101.574219 13.855469 101.578125 Z M 13.855469 101.578125 " fill-opacity="1" fill-rule="nonzero"/><path fill="#010101" d="M 51.339844 111.703125 C 62.066406 111.703125 72.792969 111.703125 83.847656 111.703125 C 84.875 117.351562 84.875 117.351562 84.023438 119.871094 C 83.90625 119.871094 83.789062 119.871094 83.667969 119.871094 C 83.605469 120.113281 83.605469 120.113281 83.535156 120.359375 C 83.304688 120.960938 83.097656 121.246094 82.605469 121.648438 C 82.488281 121.648438 82.371094 121.648438 82.25 121.648438 C 82.25 121.765625 82.25 121.882812 82.25 122.003906 C 82.074219 122.003906 81.898438 122.003906 81.714844 122.003906 C 81.65625 122.179688 81.597656 122.355469 81.539062 122.535156 C 80.144531 123.246094 78.792969 123.277344 77.253906 123.296875 C 77.054688 123.296875 76.855469 123.300781 76.652344 123.304688 C 74.839844 123.328125 73.027344 123.34375 71.214844 123.351562 C 69.875 123.359375 68.539062 123.375 67.199219 123.394531 C 66.140625 123.414062 65.085938 123.417969 64.027344 123.421875 C 63.578125 123.425781 63.128906 123.429688 62.683594 123.441406 C 62.054688 123.453125 61.425781 123.453125 60.800781 123.453125 C 60.523438 123.460938 60.523438 123.460938 60.238281 123.46875 C 59.445312 123.457031 58.988281 123.4375 58.410156 122.855469 C 58.09375 122.40625 57.820312 121.953125 57.554688 121.46875 C 57.441406 121.300781 57.328125 121.132812 57.210938 120.957031 C 57.125 120.824219 57.035156 120.6875 56.945312 120.546875 C 56.84375 120.390625 56.742188 120.230469 56.632812 120.070312 C 56.476562 119.824219 56.476562 119.824219 56.3125 119.574219 C 56.078125 119.214844 55.847656 118.855469 55.613281 118.5 C 55.496094 118.316406 55.378906 118.132812 55.253906 117.945312 C 54.890625 117.382812 54.523438 116.824219 54.15625 116.261719 C 53.980469 115.988281 53.980469 115.988281 53.796875 115.710938 C 53.570312 115.363281 53.34375 115.015625 53.117188 114.671875 C 51.339844 111.945312 51.339844 111.945312 51.339844 111.703125 Z M 54.003906 113.121094 C 54.53125 114.074219 55.027344 114.953125 55.628906 115.84375 C 55.695312 115.945312 55.761719 116.042969 55.828125 116.144531 C 56.039062 116.453125 56.246094 116.765625 56.457031 117.074219 C 56.664062 117.382812 56.871094 117.691406 57.078125 117.996094 C 57.464844 118.570312 57.464844 118.570312 57.859375 119.136719 C 58.089844 119.515625 58.089844 119.515625 58.304688 120.097656 C 58.613281 120.808594 58.871094 121.371094 59.511719 121.824219 C 60.878906 122.265625 62.414062 122.105469 63.828125 122.070312 C 64.257812 122.066406 64.683594 122.066406 65.113281 122.0625 C 66.011719 122.058594 66.90625 122.046875 67.800781 122.03125 C 68.949219 122.007812 70.09375 121.996094 71.242188 121.988281 C 72.339844 121.984375 73.433594 121.972656 74.53125 121.960938 C 74.738281 121.957031 74.949219 121.953125 75.160156 121.953125 C 75.753906 121.945312 76.34375 121.933594 76.9375 121.921875 C 77.109375 121.921875 77.28125 121.917969 77.460938 121.917969 C 79.261719 121.871094 80.695312 121.40625 82.003906 120.128906 C 82.949219 118.914062 83.273438 117.464844 83.136719 115.964844 C 82.960938 115.027344 82.785156 114.089844 82.605469 113.121094 C 73.164062 113.121094 63.726562 113.121094 54.003906 113.121094 Z M 54.003906 113.121094 " fill-opacity="1" fill-rule="nonzero"/><path fill="#030303" d="M 64.441406 91.632812 C 64.632812 91.691406 64.820312 91.75 65.015625 91.808594 C 65.136719 91.84375 65.253906 91.878906 65.375 91.917969 C 65.792969 92.042969 66.210938 92.175781 66.628906 92.308594 C 69.535156 93.210938 72.523438 93.757812 75.570312 93.820312 C 75.796875 93.824219 75.796875 93.824219 76.03125 93.832031 C 76.507812 93.84375 76.984375 93.851562 77.464844 93.863281 C 77.789062 93.871094 78.117188 93.878906 78.441406 93.886719 C 79.238281 93.90625 80.03125 93.921875 80.828125 93.941406 C 81.140625 94.496094 81.269531 94.992188 81.371094 95.621094 C 81.402344 95.816406 81.433594 96.011719 81.464844 96.210938 C 81.515625 96.527344 81.515625 96.527344 81.566406 96.847656 C 81.601562 97.0625 81.636719 97.28125 81.671875 97.503906 C 81.765625 98.078125 81.855469 98.652344 81.949219 99.226562 C 82.039062 99.808594 82.136719 100.390625 82.230469 100.972656 C 82.300781 101.417969 82.375 101.863281 82.445312 102.308594 C 82.476562 102.515625 82.511719 102.722656 82.546875 102.9375 C 82.578125 103.136719 82.609375 103.332031 82.640625 103.535156 C 82.667969 103.707031 82.695312 103.878906 82.722656 104.054688 C 82.792969 104.707031 82.78125 105.363281 82.78125 106.019531 C 72.523438 106.019531 62.265625 106.019531 51.695312 106.019531 C 52.015625 105.375 52.289062 105.011719 52.769531 104.496094 C 53.347656 103.867188 53.902344 103.230469 54.4375 102.566406 C 55.121094 101.71875 55.847656 100.914062 56.585938 100.113281 C 57.011719 99.636719 57.417969 99.148438 57.824219 98.648438 C 58.503906 97.800781 59.226562 97.003906 59.960938 96.203125 C 60.386719 95.730469 60.789062 95.246094 61.1875 94.75 C 61.457031 94.421875 61.726562 94.09375 61.996094 93.761719 C 62.078125 93.664062 62.15625 93.566406 62.238281 93.46875 C 62.492188 93.164062 62.75 92.863281 63.007812 92.566406 C 63.085938 92.46875 63.164062 92.375 63.246094 92.273438 C 63.636719 91.828125 63.835938 91.632812 64.441406 91.632812 Z M 64.484375 93.230469 C 63.597656 94.1875 62.726562 95.144531 61.910156 96.160156 C 61.226562 97.003906 60.507812 97.804688 59.769531 98.601562 C 59.34375 99.082031 58.9375 99.570312 58.535156 100.070312 C 57.839844 100.925781 57.113281 101.738281 56.367188 102.550781 C 55.382812 103.46875 55.382812 103.46875 54.890625 104.597656 C 63.566406 104.597656 72.242188 104.597656 81.183594 104.597656 C 80.917969 102.25 80.917969 102.25 80.558594 99.921875 C 80.535156 99.789062 80.511719 99.65625 80.488281 99.519531 C 80.417969 99.105469 80.34375 98.695312 80.273438 98.28125 C 80.222656 97.996094 80.171875 97.710938 80.121094 97.425781 C 80.003906 96.738281 79.882812 96.050781 79.761719 95.363281 C 79.59375 95.359375 79.425781 95.355469 79.25 95.355469 C 74.121094 95.269531 69.398438 94.785156 64.484375 93.230469 Z M 64.484375 93.230469 " fill-opacity="1" fill-rule="nonzero"/><path fill="#67ab49" d="M 29.84375 24.671875 C 29.960938 24.671875 30.078125 24.671875 30.199219 24.671875 C 29.925781 25.316406 29.539062 25.734375 29.042969 26.226562 C 28.832031 26.441406 28.832031 26.441406 28.617188 26.65625 C 28.246094 26.980469 28.246094 26.980469 27.890625 26.980469 C 28.007812 26.746094 28.125 26.511719 28.246094 26.269531 C 28.363281 26.269531 28.480469 26.269531 28.601562 26.269531 C 28.601562 26.152344 28.601562 26.035156 28.601562 25.914062 C 28.890625 25.613281 29.183594 25.316406 29.488281 25.027344 C 29.605469 24.910156 29.722656 24.792969 29.84375 24.671875 Z M 29.84375 24.671875 " fill-opacity="1" fill-rule="nonzero"/><g fill="#ffffff" fill-opacity="1"><g transform="translate(33.233363, 55.177263)"><g><path d="M 1.90625 6.8125 L 1.90625 -21 C 1.90625 -21.726562 1.925781 -22.265625 1.96875 -22.609375 C 2.019531 -22.960938 2.15625 -23.363281 2.375 -23.8125 C 2.820312 -24.664062 3.882812 -25.09375 5.5625 -25.09375 C 7.25 -25.09375 8.382812 -24.878906 8.96875 -24.453125 C 9.5625 -24.023438 9.90625 -23.398438 10 -22.578125 C 11.207031 -24.222656 13.101562 -25.046875 15.6875 -25.046875 C 18.28125 -25.046875 20.734375 -23.820312 23.046875 -21.375 C 25.367188 -18.9375 26.53125 -16.097656 26.53125 -12.859375 C 26.53125 -9.617188 25.378906 -6.773438 23.078125 -4.328125 C 20.773438 -1.890625 18.320312 -0.671875 15.71875 -0.671875 C 13.113281 -0.671875 11.222656 -1.398438 10.046875 -2.859375 L 10.046875 6.765625 C 10.046875 7.492188 10.019531 8.03125 9.96875 8.375 C 9.925781 8.726562 9.785156 9.132812 9.546875 9.59375 C 9.304688 10.050781 8.898438 10.375 8.328125 10.5625 C 7.765625 10.757812 6.988281 10.859375 6 10.859375 C 5.019531 10.859375 4.234375 10.757812 3.640625 10.5625 C 3.054688 10.375 2.644531 10.054688 2.40625 9.609375 C 2.164062 9.171875 2.019531 8.773438 1.96875 8.421875 C 1.925781 8.078125 1.90625 7.539062 1.90625 6.8125 Z M 11.328125 -15.609375 C 10.597656 -14.753906 10.234375 -13.816406 10.234375 -12.796875 C 10.234375 -11.785156 10.609375 -10.859375 11.359375 -10.015625 C 12.109375 -9.179688 13.0625 -8.765625 14.21875 -8.765625 C 15.375 -8.765625 16.359375 -9.175781 17.171875 -10 C 17.984375 -10.820312 18.390625 -11.753906 18.390625 -12.796875 C 18.390625 -13.847656 18.003906 -14.796875 17.234375 -15.640625 C 16.472656 -16.484375 15.484375 -16.90625 14.265625 -16.90625 C 13.046875 -16.90625 12.066406 -16.472656 11.328125 -15.609375 Z M 11.328125 -15.609375 "/></g></g></g></svg>