<svg xmlns="http://www.w3.org/2000/svg" xmlns:xlink="http://www.w3.org/1999/xlink" width="375" zoomAndPan="magnify" viewBox="0 0 281.25 221.999995" height="296" preserveAspectRatio="xMidYMid meet" version="1.0"><defs><g/><clipPath id="73fa8cd02c"><path d="M 114 18.164062 L 166 18.164062 L 166 92 L 114 92 Z M 114 18.164062 " clip-rule="nonzero"/></clipPath><clipPath id="00fe403922"><path d="M 93.90625 65 L 185.910156 65 L 185.910156 129.617188 L 93.90625 129.617188 Z M 93.90625 65 " clip-rule="nonzero"/></clipPath></defs><g clip-path="url(#73fa8cd02c)"><path fill="#7ed957" d="M 156.667969 24.230469 C 158.515625 25.847656 160.128906 27.523438 161.484375 29.578125 C 161.597656 29.746094 161.710938 29.914062 161.828125 30.085938 C 164.179688 33.707031 165.585938 38.113281 165.761719 42.417969 C 165.777344 42.746094 165.777344 42.746094 165.792969 43.078125 C 165.972656 51.164062 161.496094 59.480469 157.917969 66.496094 C 157.71875 66.886719 157.523438 67.28125 157.332031 67.671875 C 156.3125 69.738281 155.234375 71.765625 154.121094 73.78125 C 153.847656 74.277344 153.578125 74.773438 153.304688 75.273438 C 151.890625 77.859375 150.445312 80.421875 148.929688 82.953125 C 148.523438 83.632812 148.125 84.316406 147.722656 85 C 144.519531 90.445312 144.519531 90.445312 142.40625 91.457031 C 142.261719 91.53125 142.117188 91.601562 141.96875 91.679688 C 140.160156 92.207031 138.335938 92.007812 136.671875 91.132812 C 134.128906 89.492188 132.75 86.171875 131.304688 83.621094 C 130.890625 82.890625 130.464844 82.167969 130.035156 81.449219 C 129.273438 80.160156 128.535156 78.855469 127.804688 77.546875 C 127.609375 77.199219 127.414062 76.847656 127.214844 76.5 C 114.382812 53.679688 114.382812 53.679688 114.054688 44.734375 C 114.042969 44.460938 114.042969 44.460938 114.03125 44.179688 C 113.898438 37.273438 116.605469 30.789062 121.375 25.828125 C 130.753906 16.28125 146.496094 15.4375 156.667969 24.230469 Z M 156.667969 24.230469 " fill-opacity="1" fill-rule="nonzero"/></g><g clip-path="url(#00fe403922)"><path fill="#7ed957" d="M 113.84375 65.578125 C 114.246094 65.578125 114.644531 65.582031 115.046875 65.582031 C 116.023438 65.585938 117 65.589844 117.976562 65.597656 C 119.589844 68.613281 119.589844 68.613281 120.207031 69.835938 C 120.265625 69.953125 120.328125 70.074219 120.390625 70.195312 C 120.65625 70.71875 120.828125 71.066406 120.828125 71.664062 C 120.558594 71.667969 120.558594 71.667969 120.28125 71.671875 C 119.605469 71.6875 118.929688 71.703125 118.25 71.71875 C 117.960938 71.726562 117.667969 71.730469 117.375 71.738281 C 114.679688 71.789062 112.304688 71.945312 110.308594 73.980469 C 109.300781 75.269531 108.980469 76.6875 108.742188 78.265625 C 108.714844 78.441406 108.6875 78.613281 108.660156 78.792969 C 108.566406 79.359375 108.480469 79.929688 108.390625 80.5 C 108.328125 80.894531 108.265625 81.292969 108.203125 81.6875 C 108.039062 82.726562 107.875 83.769531 107.714844 84.808594 C 107.453125 86.480469 107.1875 88.148438 106.925781 89.816406 C 106.832031 90.398438 106.742188 90.984375 106.652344 91.566406 C 106.59375 91.921875 106.539062 92.277344 106.484375 92.632812 C 106.457031 92.796875 106.433594 92.960938 106.40625 93.125 C 106.382812 93.273438 106.359375 93.425781 106.335938 93.578125 C 106.304688 93.769531 106.304688 93.769531 106.273438 93.96875 C 106.210938 94.308594 106.210938 94.308594 106.03125 94.84375 C 107.386719 94.84375 108.078125 94.445312 109.0625 93.550781 C 109.328125 93.320312 109.59375 93.089844 109.859375 92.863281 C 109.992188 92.746094 110.125 92.628906 110.265625 92.511719 C 110.882812 91.984375 111.53125 91.496094 112.183594 91.011719 C 113.355469 90.125 114.496094 89.203125 115.628906 88.261719 C 116.507812 87.535156 117.394531 86.824219 118.292969 86.125 C 119.078125 85.511719 119.847656 84.886719 120.617188 84.257812 C 123.96875 81.515625 123.96875 81.515625 125.644531 80.398438 C 126.394531 81.445312 127.050781 82.550781 127.695312 83.664062 C 127.777344 83.804688 127.863281 83.945312 127.949219 84.089844 C 128.023438 84.226562 128.101562 84.359375 128.179688 84.5 C 128.285156 84.679688 128.285156 84.679688 128.390625 84.863281 C 128.496094 85.214844 128.496094 85.214844 128.367188 85.589844 C 128.019531 86.105469 127.539062 86.441406 127.046875 86.808594 C 126.820312 86.980469 126.59375 87.15625 126.367188 87.332031 C 126.191406 87.46875 126.191406 87.46875 126.007812 87.605469 C 125.398438 88.078125 124.804688 88.570312 124.207031 89.058594 C 123.175781 89.902344 122.132812 90.71875 121.078125 91.523438 C 120.222656 92.179688 119.394531 92.863281 118.5625 93.542969 C 118.449219 93.636719 118.332031 93.734375 118.214844 93.828125 C 118.113281 93.914062 118.011719 93.996094 117.90625 94.082031 C 117.644531 94.292969 117.363281 94.480469 117.085938 94.664062 C 117.195312 94.667969 117.300781 94.667969 117.414062 94.667969 C 118.554688 94.679688 119.695312 94.695312 120.832031 94.710938 C 121.257812 94.71875 121.679688 94.722656 122.105469 94.726562 C 127.304688 94.777344 131.605469 95.746094 135.472656 99.488281 C 136.628906 100.722656 137.722656 102.242188 138.480469 103.761719 C 138.601562 103.761719 138.71875 103.761719 138.839844 103.761719 C 139.085938 103.484375 139.324219 103.195312 139.550781 102.902344 C 140.125 102.183594 140.710938 101.492188 141.335938 100.816406 C 141.921875 100.179688 142.484375 99.53125 143.027344 98.855469 C 143.714844 98.007812 144.4375 97.207031 145.175781 96.402344 C 145.601562 95.929688 146.003906 95.441406 146.40625 94.945312 C 146.980469 94.230469 147.578125 93.550781 148.199219 92.882812 C 149.25 91.753906 150.285156 90.601562 151.140625 89.316406 C 150.671875 88.960938 150.199219 88.609375 149.714844 88.246094 C 150.269531 87.082031 150.875 85.953125 151.507812 84.835938 C 151.585938 84.699219 151.660156 84.5625 151.738281 84.417969 C 151.8125 84.292969 151.886719 84.164062 151.960938 84.03125 C 152.027344 83.917969 152.09375 83.800781 152.160156 83.679688 C 152.234375 83.597656 152.3125 83.515625 152.390625 83.429688 C 153.234375 83.429688 153.65625 83.726562 154.339844 84.167969 C 157.519531 86.128906 161.179688 87.464844 164.871094 88.066406 C 165.144531 88.117188 165.144531 88.117188 165.425781 88.171875 C 167.886719 88.570312 170.410156 88.542969 172.894531 88.601562 C 172.820312 88.324219 172.820312 88.324219 172.742188 88.042969 C 172.46875 86.949219 172.316406 85.835938 172.144531 84.71875 C 172.089844 84.359375 172.03125 84 171.976562 83.640625 C 171.835938 82.761719 171.699219 81.882812 171.5625 81.003906 C 171.46875 80.386719 171.375 79.769531 171.273438 79.15625 C 171.222656 78.8125 171.167969 78.46875 171.117188 78.121094 C 170.789062 76.09375 170.097656 74.34375 168.484375 73.011719 C 166.574219 71.679688 164.207031 71.75 161.972656 71.71875 C 161.683594 71.710938 161.390625 71.707031 161.101562 71.699219 C 160.394531 71.683594 159.691406 71.671875 158.988281 71.664062 C 159.234375 70.863281 159.546875 70.140625 159.925781 69.394531 C 159.980469 69.285156 160.035156 69.175781 160.089844 69.0625 C 160.265625 68.71875 160.4375 68.375 160.613281 68.027344 C 160.734375 67.792969 160.851562 67.558594 160.96875 67.320312 C 161.257812 66.746094 161.550781 66.171875 161.839844 65.597656 C 163.015625 65.589844 164.191406 65.585938 165.367188 65.578125 C 165.769531 65.578125 166.167969 65.574219 166.566406 65.574219 C 173.453125 65.519531 173.453125 65.519531 176.25 68.199219 C 178.050781 70.1875 178.355469 72.667969 178.753906 75.21875 C 178.800781 75.523438 178.851562 75.828125 178.898438 76.132812 C 179.03125 76.957031 179.160156 77.777344 179.289062 78.601562 C 179.425781 79.476562 179.566406 80.351562 179.703125 81.222656 C 179.96875 82.886719 180.230469 84.550781 180.496094 86.214844 C 180.816406 88.253906 181.136719 90.289062 181.460938 92.324219 C 181.578125 93.046875 181.691406 93.773438 181.804688 94.496094 C 181.832031 94.671875 181.863281 94.851562 181.890625 95.035156 C 182.089844 96.277344 182.285156 97.519531 182.480469 98.765625 C 183.101562 102.671875 183.71875 106.578125 184.347656 110.484375 C 184.394531 110.78125 184.394531 110.78125 184.445312 111.082031 C 184.753906 113.007812 185.066406 114.929688 185.386719 116.851562 C 186.496094 123.472656 186.496094 123.472656 184.851562 126.015625 C 184.671875 126.265625 184.488281 126.515625 184.304688 126.761719 C 184.203125 126.917969 184.101562 127.070312 183.992188 127.230469 C 182.597656 128.707031 180.804688 129.613281 178.765625 129.699219 C 178.042969 129.714844 177.320312 129.710938 176.59375 129.707031 C 176.265625 129.710938 175.9375 129.710938 175.605469 129.710938 C 174.707031 129.714844 173.804688 129.714844 172.902344 129.710938 C 171.925781 129.710938 170.953125 129.714844 169.980469 129.714844 C 168.074219 129.71875 166.164062 129.71875 164.257812 129.71875 C 162.707031 129.71875 161.160156 129.71875 159.609375 129.71875 C 159.386719 129.71875 159.167969 129.71875 158.9375 129.71875 C 158.492188 129.71875 158.042969 129.71875 157.59375 129.71875 C 153.507812 129.722656 149.425781 129.722656 145.339844 129.71875 C 141.613281 129.714844 137.890625 129.71875 134.164062 129.722656 C 129.976562 129.726562 125.785156 129.730469 121.597656 129.730469 C 121.148438 129.730469 120.703125 129.730469 120.257812 129.730469 C 120.035156 129.730469 119.816406 129.730469 119.589844 129.726562 C 118.042969 129.726562 116.496094 129.730469 114.945312 129.734375 C 113.058594 129.734375 111.171875 129.734375 109.285156 129.730469 C 108.324219 129.730469 107.363281 129.730469 106.398438 129.730469 C 105.515625 129.734375 104.636719 129.734375 103.753906 129.730469 C 103.433594 129.730469 103.117188 129.730469 102.800781 129.730469 C 100.226562 129.75 98.160156 129.40625 96.238281 127.542969 C 94.683594 125.984375 93.882812 124.15625 93.871094 121.949219 C 93.882812 120.683594 94.054688 119.46875 94.265625 118.222656 C 94.304688 117.984375 94.34375 117.746094 94.382812 117.507812 C 94.464844 117 94.546875 116.492188 94.632812 115.980469 C 94.765625 115.164062 94.902344 114.347656 95.03125 113.53125 C 95.171875 112.671875 95.3125 111.816406 95.449219 110.960938 C 95.757812 109.078125 96.058594 107.199219 96.351562 105.316406 C 96.371094 105.191406 96.390625 105.066406 96.410156 104.9375 C 96.511719 104.308594 96.609375 103.679688 96.707031 103.046875 C 97.558594 97.597656 98.425781 92.148438 99.304688 86.699219 C 99.402344 86.101562 99.5 85.503906 99.597656 84.902344 C 99.621094 84.757812 99.644531 84.609375 99.667969 84.460938 C 99.972656 82.5625 100.273438 80.664062 100.570312 78.761719 C 100.695312 77.953125 100.820312 77.140625 100.949219 76.332031 C 101.015625 75.90625 101.082031 75.484375 101.144531 75.058594 C 101.230469 74.484375 101.320312 73.910156 101.414062 73.335938 C 101.4375 73.171875 101.460938 73.007812 101.484375 72.839844 C 101.863281 70.484375 102.902344 68.652344 104.746094 67.125 C 107.421875 65.234375 110.726562 65.554688 113.84375 65.578125 Z M 156.148438 92.46875 C 155.953125 92.683594 155.757812 92.898438 155.566406 93.117188 C 155.464844 93.230469 155.359375 93.34375 155.253906 93.460938 C 154.519531 94.277344 153.820312 95.121094 153.132812 95.976562 C 152.722656 96.476562 152.292969 96.953125 151.855469 97.429688 C 151.265625 98.066406 150.707031 98.714844 150.160156 99.390625 C 149.617188 100.066406 149.054688 100.714844 148.46875 101.351562 C 147.734375 102.148438 147.050781 102.96875 146.371094 103.808594 C 145.824219 104.46875 145.246094 105.097656 144.660156 105.722656 C 144.328125 106.046875 144.328125 106.046875 144.367188 106.433594 C 154.664062 106.433594 164.960938 106.433594 175.570312 106.433594 C 175.570312 105.527344 175.566406 104.808594 175.425781 103.941406 C 175.398438 103.742188 175.367188 103.546875 175.332031 103.34375 C 175.300781 103.132812 175.265625 102.925781 175.230469 102.710938 C 175.195312 102.492188 175.160156 102.273438 175.125 102.050781 C 175.050781 101.589844 174.976562 101.132812 174.902344 100.671875 C 174.828125 100.203125 174.75 99.734375 174.675781 99.265625 C 174.570312 98.585938 174.460938 97.90625 174.351562 97.226562 C 174.300781 96.910156 174.300781 96.910156 174.25 96.589844 C 174.21875 96.394531 174.183594 96.199219 174.152344 95.996094 C 174.109375 95.738281 174.109375 95.738281 174.066406 95.476562 C 173.96875 95.039062 173.828125 94.699219 173.609375 94.308594 C 173.417969 94.304688 173.226562 94.304688 173.027344 94.300781 C 167.832031 94.226562 162.640625 94.121094 157.753906 92.117188 C 156.996094 91.859375 156.734375 91.929688 156.148438 92.46875 Z M 105.140625 100.550781 C 104.902344 101.574219 104.695312 102.601562 104.53125 103.640625 C 104.507812 103.78125 104.484375 103.917969 104.460938 104.0625 C 104.386719 104.515625 104.3125 104.96875 104.242188 105.421875 C 104.1875 105.738281 104.136719 106.058594 104.085938 106.375 C 103.980469 107.039062 103.871094 107.703125 103.765625 108.367188 C 103.628906 109.21875 103.492188 110.066406 103.351562 110.914062 C 103.246094 111.570312 103.140625 112.226562 103.035156 112.882812 C 102.984375 113.195312 102.933594 113.507812 102.882812 113.820312 C 102.8125 114.261719 102.742188 114.699219 102.671875 115.136719 C 102.640625 115.328125 102.640625 115.328125 102.609375 115.523438 C 102.304688 117.46875 102.460938 119.390625 103.597656 121.058594 C 104.761719 122.460938 105.996094 123.445312 107.8125 123.730469 C 108.316406 123.746094 108.8125 123.753906 109.316406 123.753906 C 109.542969 123.753906 109.542969 123.753906 109.773438 123.753906 C 110.277344 123.753906 110.78125 123.753906 111.285156 123.753906 C 111.648438 123.753906 112.011719 123.753906 112.371094 123.753906 C 113.355469 123.753906 114.339844 123.75 115.320312 123.75 C 116.347656 123.75 117.375 123.75 118.402344 123.75 C 120.347656 123.746094 122.292969 123.746094 124.238281 123.746094 C 126.453125 123.742188 128.664062 123.742188 130.878906 123.742188 C 135.433594 123.738281 139.988281 123.734375 144.542969 123.730469 C 144.402344 123.476562 144.261719 123.21875 144.121094 122.964844 C 144.003906 122.75 144.003906 122.75 143.882812 122.535156 C 143.589844 122.019531 143.269531 121.527344 142.9375 121.035156 C 142.742188 120.742188 142.742188 120.742188 142.542969 120.445312 C 142.472656 120.34375 142.40625 120.246094 142.335938 120.140625 C 141.976562 119.609375 141.617188 119.074219 141.261719 118.542969 C 141.191406 118.4375 141.121094 118.332031 141.046875 118.222656 C 140.445312 117.320312 139.859375 116.40625 139.285156 115.484375 C 138.617188 114.417969 137.9375 113.359375 137.234375 112.316406 C 136.539062 111.285156 135.863281 110.242188 135.183594 109.199219 C 134.953125 108.84375 134.722656 108.492188 134.492188 108.136719 C 134.105469 107.542969 133.71875 106.949219 133.335938 106.351562 C 131.539062 103.578125 129.667969 101.550781 126.355469 100.726562 C 125.28125 100.535156 124.226562 100.527344 123.132812 100.53125 C 122.9375 100.53125 122.746094 100.53125 122.542969 100.53125 C 121.902344 100.53125 121.261719 100.53125 120.617188 100.53125 C 120.171875 100.53125 119.726562 100.535156 119.28125 100.535156 C 118.230469 100.535156 117.175781 100.535156 116.125 100.539062 C 114.808594 100.539062 113.492188 100.539062 112.175781 100.542969 C 109.832031 100.542969 107.484375 100.546875 105.140625 100.550781 Z M 144.007812 112.140625 C 144.375 112.871094 144.722656 113.511719 145.164062 114.183594 C 145.347656 114.460938 145.347656 114.460938 145.535156 114.746094 C 145.664062 114.941406 145.792969 115.136719 145.925781 115.339844 C 146.0625 115.546875 146.195312 115.75 146.332031 115.957031 C 146.539062 116.273438 146.75 116.589844 146.957031 116.90625 C 147.414062 117.601562 147.871094 118.300781 148.328125 119 C 148.445312 119.183594 148.5625 119.363281 148.683594 119.550781 C 148.902344 119.890625 149.125 120.230469 149.34375 120.570312 C 149.445312 120.722656 149.546875 120.878906 149.648438 121.039062 C 149.734375 121.171875 149.820312 121.304688 149.910156 121.441406 C 150.023438 121.609375 150.132812 121.777344 150.25 121.949219 C 150.328125 122.089844 150.40625 122.234375 150.484375 122.378906 C 151.035156 123.328125 151.035156 123.328125 151.933594 123.894531 C 152.464844 123.957031 152.964844 123.957031 153.496094 123.941406 C 153.792969 123.945312 153.792969 123.945312 154.09375 123.945312 C 154.746094 123.949219 155.398438 123.9375 156.050781 123.925781 C 156.503906 123.921875 156.957031 123.921875 157.410156 123.921875 C 158.363281 123.917969 159.3125 123.910156 160.265625 123.894531 C 161.480469 123.878906 162.699219 123.871094 163.914062 123.867188 C 165.078125 123.863281 166.242188 123.855469 167.40625 123.847656 C 167.625 123.84375 167.847656 123.84375 168.074219 123.84375 C 168.703125 123.839844 169.332031 123.832031 169.957031 123.820312 C 170.140625 123.820312 170.328125 123.820312 170.515625 123.816406 C 172.496094 123.78125 174.148438 123.183594 175.601562 121.816406 C 176.757812 120.609375 177.347656 119.164062 177.417969 117.492188 C 177.324219 115.691406 176.949219 113.917969 176.640625 112.140625 C 165.871094 112.140625 155.101562 112.140625 144.007812 112.140625 Z M 144.007812 112.140625 " fill-opacity="1" fill-rule="nonzero"/></g><path fill="#ffffff" d="M 125.464844 80.398438 C 126.324219 81.199219 126.828125 82.152344 127.40625 83.164062 C 127.515625 83.351562 127.625 83.535156 127.738281 83.730469 C 127.839844 83.910156 127.945312 84.085938 128.050781 84.273438 C 128.144531 84.4375 128.238281 84.601562 128.335938 84.769531 C 128.496094 85.214844 128.496094 85.214844 128.375 85.605469 C 128.011719 86.101562 127.535156 86.441406 127.046875 86.808594 C 126.820312 86.980469 126.59375 87.15625 126.367188 87.332031 C 126.191406 87.46875 126.191406 87.46875 126.007812 87.605469 C 125.398438 88.078125 124.804688 88.570312 124.207031 89.058594 C 123.175781 89.902344 122.132812 90.71875 121.078125 91.523438 C 120.222656 92.179688 119.394531 92.863281 118.5625 93.542969 C 118.390625 93.683594 118.390625 93.683594 118.214844 93.828125 C 118.113281 93.914062 118.011719 93.996094 117.90625 94.082031 C 117.644531 94.292969 117.363281 94.480469 117.085938 94.664062 C 117.25 94.667969 117.25 94.667969 117.414062 94.667969 C 118.554688 94.679688 119.695312 94.695312 120.832031 94.710938 C 121.257812 94.71875 121.679688 94.722656 122.105469 94.726562 C 127.304688 94.777344 131.605469 95.746094 135.472656 99.488281 C 136.628906 100.722656 137.722656 102.242188 138.480469 103.761719 C 138.601562 103.761719 138.71875 103.761719 138.839844 103.761719 C 139.085938 103.484375 139.324219 103.195312 139.550781 102.902344 C 140.125 102.183594 140.710938 101.492188 141.335938 100.816406 C 141.921875 100.179688 142.484375 99.53125 143.027344 98.855469 C 143.714844 98.007812 144.4375 97.207031 145.175781 96.402344 C 145.601562 95.929688 146.003906 95.441406 146.40625 94.945312 C 146.980469 94.230469 147.578125 93.550781 148.199219 92.882812 C 149.25 91.753906 150.285156 90.601562 151.140625 89.316406 C 150.671875 88.960938 150.199219 88.609375 149.714844 88.246094 C 150.269531 87.082031 150.875 85.953125 151.507812 84.835938 C 151.585938 84.699219 151.660156 84.5625 151.738281 84.417969 C 151.8125 84.292969 151.886719 84.164062 151.960938 84.03125 C 152.027344 83.917969 152.09375 83.800781 152.160156 83.679688 C 152.234375 83.597656 152.3125 83.515625 152.390625 83.429688 C 153.234375 83.429688 153.65625 83.726562 154.339844 84.167969 C 157.519531 86.128906 161.179688 87.464844 164.871094 88.066406 C 165.144531 88.117188 165.144531 88.117188 165.425781 88.171875 C 167.886719 88.570312 170.410156 88.542969 172.894531 88.601562 C 173.027344 89.324219 173.15625 90.050781 173.285156 90.773438 C 173.328125 91.019531 173.375 91.265625 173.417969 91.511719 C 173.484375 91.863281 173.546875 92.21875 173.609375 92.574219 C 173.664062 92.890625 173.664062 92.890625 173.722656 93.21875 C 173.78125 93.71875 173.773438 94.019531 173.609375 94.488281 C 162.546875 94.335938 162.546875 94.335938 157.773438 92.277344 C 157.253906 92.132812 156.996094 92.160156 156.492188 92.347656 C 156.144531 92.660156 155.855469 92.957031 155.554688 93.304688 C 155.425781 93.449219 155.425781 93.449219 155.296875 93.597656 C 154.617188 94.367188 153.96875 95.164062 153.324219 95.964844 C 152.910156 96.46875 152.476562 96.949219 152.03125 97.429688 C 151.445312 98.066406 150.882812 98.714844 150.339844 99.390625 C 149.792969 100.066406 149.234375 100.714844 148.644531 101.351562 C 147.914062 102.148438 147.226562 102.96875 146.550781 103.808594 C 146.007812 104.46875 145.433594 105.09375 144.855469 105.722656 C 144.535156 106.058594 144.535156 106.058594 144.367188 106.433594 C 154.664062 106.433594 164.960938 106.433594 175.570312 106.433594 C 175.628906 106.257812 175.6875 106.082031 175.746094 105.898438 C 175.875 106.703125 176 107.503906 176.128906 108.308594 C 176.171875 108.582031 176.214844 108.855469 176.257812 109.128906 C 176.320312 109.519531 176.382812 109.914062 176.445312 110.304688 C 176.464844 110.425781 176.484375 110.550781 176.503906 110.675781 C 176.582031 111.171875 176.640625 111.636719 176.640625 112.140625 C 165.929688 112.199219 155.222656 112.257812 144.1875 112.320312 C 145.191406 113.925781 146.191406 115.515625 147.246094 117.085938 C 147.882812 118.039062 148.507812 118.996094 149.136719 119.953125 C 149.246094 120.125 149.359375 120.292969 149.472656 120.46875 C 150.175781 121.542969 150.847656 122.628906 151.5 123.730469 C 145.566406 124.230469 145.566406 124.230469 144.054688 123.492188 C 143.320312 122.824219 142.992188 121.945312 142.632812 121.039062 C 142.191406 120.039062 141.535156 119.160156 140.921875 118.257812 C 140.660156 117.859375 140.398438 117.460938 140.140625 117.058594 C 140.011719 116.863281 139.882812 116.664062 139.75 116.464844 C 139.625 116.273438 139.5 116.082031 139.375 115.886719 C 139.257812 115.710938 139.144531 115.535156 139.027344 115.351562 C 138.585938 114.679688 138.148438 114.007812 137.710938 113.335938 C 136.476562 111.441406 135.238281 109.546875 134 107.65625 C 133.710938 107.210938 133.421875 106.769531 133.136719 106.324219 C 131.496094 103.789062 129.8125 101.828125 126.792969 100.996094 C 125.566406 100.742188 124.386719 100.699219 123.132812 100.691406 C 122.84375 100.6875 122.84375 100.6875 122.542969 100.6875 C 121.902344 100.679688 121.261719 100.675781 120.617188 100.671875 C 120.171875 100.667969 119.726562 100.664062 119.28125 100.660156 C 118.230469 100.652344 117.175781 100.644531 116.125 100.636719 C 114.808594 100.625 113.492188 100.617188 112.175781 100.605469 C 109.832031 100.585938 107.484375 100.566406 105.140625 100.550781 C 105.195312 100.0625 105.25 99.578125 105.308594 99.089844 C 105.324219 98.953125 105.339844 98.816406 105.355469 98.671875 C 105.460938 97.769531 105.59375 96.882812 105.785156 95.992188 C 105.832031 95.769531 105.878906 95.550781 105.925781 95.324219 C 105.976562 95.085938 105.976562 95.085938 106.03125 94.84375 C 106.128906 94.84375 106.230469 94.84375 106.332031 94.84375 C 107.558594 94.785156 108.171875 94.363281 109.0625 93.550781 C 109.328125 93.320312 109.59375 93.089844 109.859375 92.863281 C 110.058594 92.6875 110.058594 92.6875 110.265625 92.511719 C 110.882812 91.984375 111.53125 91.496094 112.183594 91.011719 C 113.355469 90.125 114.496094 89.203125 115.628906 88.261719 C 116.507812 87.535156 117.394531 86.824219 118.292969 86.125 C 119.078125 85.511719 119.847656 84.886719 120.617188 84.257812 C 121.773438 83.308594 122.953125 82.394531 124.144531 81.496094 C 124.265625 81.402344 124.386719 81.3125 124.511719 81.21875 C 124.617188 81.136719 124.726562 81.054688 124.835938 80.972656 C 125.132812 80.746094 125.132812 80.746094 125.464844 80.398438 Z M 125.464844 80.398438 " fill-opacity="1" fill-rule="nonzero"/><g fill="#ffffff" fill-opacity="1"><g transform="translate(15.786753, 192.903664)"><g><path d="M 2.234375 8.015625 L 2.234375 -24.703125 C 2.234375 -25.566406 2.257812 -26.203125 2.3125 -26.609375 C 2.375 -27.023438 2.535156 -27.492188 2.796875 -28.015625 C 3.328125 -29.023438 4.582031 -29.53125 6.5625 -29.53125 C 8.539062 -29.53125 9.875 -29.273438 10.5625 -28.765625 C 11.25 -28.265625 11.648438 -27.53125 11.765625 -26.5625 C 13.179688 -28.5 15.410156 -29.46875 18.453125 -29.46875 C 21.503906 -29.46875 24.390625 -28.03125 27.109375 -25.15625 C 29.835938 -22.28125 31.203125 -18.9375 31.203125 -15.125 C 31.203125 -11.3125 29.847656 -7.96875 27.140625 -5.09375 C 24.429688 -2.21875 21.546875 -0.78125 18.484375 -0.78125 C 15.421875 -0.78125 13.203125 -1.640625 11.828125 -3.359375 L 11.828125 7.953125 C 11.828125 8.816406 11.796875 9.453125 11.734375 9.859375 C 11.679688 10.273438 11.515625 10.753906 11.234375 11.296875 C 10.953125 11.835938 10.472656 12.21875 9.796875 12.4375 C 9.128906 12.664062 8.21875 12.78125 7.0625 12.78125 C 5.90625 12.78125 4.976562 12.664062 4.28125 12.4375 C 3.59375 12.21875 3.109375 11.84375 2.828125 11.3125 C 2.546875 10.789062 2.375 10.320312 2.3125 9.90625 C 2.257812 9.5 2.234375 8.867188 2.234375 8.015625 Z M 13.328125 -18.375 C 12.472656 -17.363281 12.046875 -16.257812 12.046875 -15.0625 C 12.046875 -13.875 12.484375 -12.785156 13.359375 -11.796875 C 14.242188 -10.804688 15.363281 -10.3125 16.71875 -10.3125 C 18.082031 -10.3125 19.238281 -10.796875 20.1875 -11.765625 C 21.144531 -12.734375 21.625 -13.832031 21.625 -15.0625 C 21.625 -16.300781 21.175781 -17.414062 20.28125 -18.40625 C 19.382812 -19.394531 18.21875 -19.890625 16.78125 -19.890625 C 15.34375 -19.890625 14.191406 -19.382812 13.328125 -18.375 Z M 13.328125 -18.375 "/></g></g></g><g fill="#ffffff" fill-opacity="1"><g transform="translate(48.389561, 192.903664)"><g><path d="M 21.40625 -26.390625 C 21.625 -28.484375 23.097656 -29.53125 25.828125 -29.53125 C 27.285156 -29.53125 28.367188 -29.414062 29.078125 -29.1875 C 29.785156 -28.96875 30.28125 -28.578125 30.5625 -28.015625 C 30.84375 -27.453125 31.007812 -26.957031 31.0625 -26.53125 C 31.125 -26.101562 31.15625 -25.457031 31.15625 -24.59375 L 31.15625 -4.984375 C 31.15625 -4.128906 31.125 -3.484375 31.0625 -3.046875 C 31.007812 -2.617188 30.851562 -2.125 30.59375 -1.5625 C 30.070312 -0.59375 28.789062 -0.109375 26.75 -0.109375 C 24.71875 -0.109375 23.351562 -0.359375 22.65625 -0.859375 C 21.96875 -1.367188 21.566406 -2.109375 21.453125 -3.078125 C 20.078125 -1.097656 17.769531 -0.109375 14.53125 -0.109375 C 11.300781 -0.109375 8.304688 -1.582031 5.546875 -4.53125 C 2.785156 -7.488281 1.40625 -10.914062 1.40625 -14.8125 C 1.40625 -18.71875 2.796875 -22.132812 5.578125 -25.0625 C 8.359375 -28 11.410156 -29.46875 14.734375 -29.46875 C 16.003906 -29.46875 17.160156 -29.242188 18.203125 -28.796875 C 19.253906 -28.347656 19.984375 -27.925781 20.390625 -27.53125 C 20.804688 -27.144531 21.144531 -26.765625 21.40625 -26.390625 Z M 11.203125 -14.734375 C 11.203125 -13.503906 11.6875 -12.394531 12.65625 -11.40625 C 13.632812 -10.414062 14.8125 -9.921875 16.1875 -9.921875 C 17.570312 -9.921875 18.722656 -10.421875 19.640625 -11.421875 C 20.554688 -12.429688 21.015625 -13.539062 21.015625 -14.75 C 21.015625 -15.96875 20.570312 -17.097656 19.6875 -18.140625 C 18.8125 -19.191406 17.632812 -19.71875 16.15625 -19.71875 C 14.6875 -19.71875 13.492188 -19.191406 12.578125 -18.140625 C 11.660156 -17.097656 11.203125 -15.960938 11.203125 -14.734375 Z M 11.203125 -14.734375 "/></g></g></g><g fill="#ffffff" fill-opacity="1"><g transform="translate(81.776636, 192.903664)"><g><path d="M 22.296875 -29.1875 C 23.003906 -28.96875 23.59375 -28.585938 24.0625 -28.046875 C 24.53125 -27.503906 24.765625 -26.632812 24.765625 -25.4375 C 24.765625 -24.238281 24.410156 -22.929688 23.703125 -21.515625 C 22.992188 -20.097656 21.96875 -19.390625 20.625 -19.390625 C 19.945312 -19.390625 19.300781 -19.535156 18.6875 -19.828125 C 18.070312 -20.128906 17.257812 -20.28125 16.25 -20.28125 C 15.238281 -20.28125 14.296875 -19.925781 13.421875 -19.21875 C 12.546875 -18.507812 12.109375 -17.648438 12.109375 -16.640625 L 12.109375 -4.875 C 12.109375 -4.019531 12.078125 -3.375 12.015625 -2.9375 C 11.960938 -2.507812 11.785156 -2.015625 11.484375 -1.453125 C 10.921875 -0.484375 9.460938 0 7.109375 0 C 5.316406 0 4.03125 -0.316406 3.25 -0.953125 C 2.65625 -1.472656 2.316406 -2.273438 2.234375 -3.359375 C 2.234375 -3.734375 2.234375 -4.273438 2.234375 -4.984375 L 2.234375 -24.65625 C 2.234375 -25.507812 2.257812 -26.148438 2.3125 -26.578125 C 2.375 -27.015625 2.535156 -27.492188 2.796875 -28.015625 C 3.328125 -29.023438 4.785156 -29.53125 7.171875 -29.53125 C 9.410156 -29.53125 10.8125 -29.097656 11.375 -28.234375 C 11.78125 -27.640625 11.984375 -27.023438 11.984375 -26.390625 C 12.171875 -26.648438 12.441406 -26.96875 12.796875 -27.34375 C 13.148438 -27.71875 13.90625 -28.222656 15.0625 -28.859375 C 16.226562 -29.492188 17.25 -29.8125 18.125 -29.8125 C 19 -29.8125 19.734375 -29.765625 20.328125 -29.671875 C 20.929688 -29.578125 21.585938 -29.414062 22.296875 -29.1875 Z M 22.296875 -29.1875 "/></g></g></g><g fill="#ffffff" fill-opacity="1"><g transform="translate(107.377121, 192.903664)"><g><path d="M 19.609375 -14.796875 L 27.0625 -8.625 C 28 -7.84375 28.585938 -7.242188 28.828125 -6.828125 C 29.066406 -6.421875 29.1875 -6.03125 29.1875 -5.65625 C 29.1875 -4.757812 28.609375 -3.546875 27.453125 -2.015625 C 26.179688 -0.441406 25.0625 0.34375 24.09375 0.34375 C 23.269531 0.34375 22.128906 -0.195312 20.671875 -1.28125 L 20.109375 -1.6875 C 19.253906 -2.394531 17.929688 -3.632812 16.140625 -5.40625 C 14.347656 -7.175781 12.984375 -8.4375 12.046875 -9.1875 L 12.046875 -4.875 C 12.046875 -4.019531 12.015625 -3.375 11.953125 -2.9375 C 11.898438 -2.507812 11.726562 -2.015625 11.4375 -1.453125 C 10.945312 -0.484375 9.503906 0 7.109375 0 C 4.765625 0 3.328125 -0.503906 2.796875 -1.515625 C 2.535156 -2.078125 2.375 -2.570312 2.3125 -3 C 2.257812 -3.425781 2.234375 -4.070312 2.234375 -4.9375 L 2.234375 -38.5 C 2.234375 -39.351562 2.257812 -39.992188 2.3125 -40.421875 C 2.375 -40.859375 2.535156 -41.351562 2.796875 -41.90625 C 3.328125 -42.914062 4.785156 -43.421875 7.171875 -43.421875 C 8.960938 -43.421875 10.234375 -43.101562 10.984375 -42.46875 C 11.617188 -41.945312 11.953125 -41.125 11.984375 -40 C 12.023438 -39.664062 12.046875 -39.144531 12.046875 -38.4375 L 12.046875 -20.671875 C 12.722656 -21.234375 13.738281 -22.1875 15.09375 -23.53125 C 16.457031 -24.875 17.476562 -25.828125 18.15625 -26.390625 L 18.828125 -26.84375 C 20.128906 -27.851562 21.25 -28.359375 22.1875 -28.359375 C 23.125 -28.359375 24.195312 -27.597656 25.40625 -26.078125 C 26.625 -24.566406 27.234375 -23.378906 27.234375 -22.515625 C 27.234375 -21.660156 26.539062 -20.65625 25.15625 -19.5 Z M 19.609375 -14.796875 "/></g></g></g><g fill="#7ed957" fill-opacity="1"><g transform="translate(137.407738, 192.903664)"><g><path d="M 30.703125 -18.28125 C 30.703125 -15.988281 30.128906 -14.289062 28.984375 -13.1875 C 27.847656 -12.09375 26.59375 -11.546875 25.21875 -11.546875 L 11.9375 -11.546875 C 11.9375 -10.492188 12.550781 -9.613281 13.78125 -8.90625 C 15.007812 -8.195312 16.242188 -7.84375 17.484375 -7.84375 C 19.648438 -7.84375 21.347656 -8.066406 22.578125 -8.515625 L 23.203125 -8.734375 C 24.097656 -9.148438 24.84375 -9.359375 25.4375 -9.359375 C 26.632812 -9.359375 27.660156 -8.515625 28.515625 -6.828125 C 29.003906 -5.828125 29.25 -4.972656 29.25 -4.265625 C 29.25 -0.929688 25.269531 0.734375 17.3125 0.734375 C 14.550781 0.734375 12.09375 0.257812 9.9375 -0.6875 C 7.789062 -1.644531 6.125 -2.910156 4.9375 -4.484375 C 2.582031 -7.503906 1.40625 -10.882812 1.40625 -14.625 C 1.40625 -19.332031 2.925781 -23.09375 5.96875 -25.90625 C 9.007812 -28.726562 12.8125 -30.140625 17.375 -30.140625 C 22.5625 -30.140625 26.367188 -28.3125 28.796875 -24.65625 C 30.066406 -22.707031 30.703125 -20.582031 30.703125 -18.28125 Z M 18.875 -16.640625 C 20.300781 -16.640625 21.015625 -17.238281 21.015625 -18.4375 C 21.015625 -19.289062 20.6875 -19.976562 20.03125 -20.5 C 19.375 -21.03125 18.4375 -21.296875 17.21875 -21.296875 C 16.007812 -21.296875 14.804688 -20.800781 13.609375 -19.8125 C 12.421875 -18.820312 11.828125 -17.765625 11.828125 -16.640625 Z M 18.875 -16.640625 "/></g></g></g><g fill="#7ed957" fill-opacity="1"><g transform="translate(169.506382, 192.903664)"><g><path d="M 21.40625 -26.390625 C 21.625 -28.484375 23.097656 -29.53125 25.828125 -29.53125 C 27.285156 -29.53125 28.367188 -29.414062 29.078125 -29.1875 C 29.785156 -28.96875 30.28125 -28.578125 30.5625 -28.015625 C 30.84375 -27.453125 31.007812 -26.957031 31.0625 -26.53125 C 31.125 -26.101562 31.15625 -25.457031 31.15625 -24.59375 L 31.15625 -4.984375 C 31.15625 -4.128906 31.125 -3.484375 31.0625 -3.046875 C 31.007812 -2.617188 30.851562 -2.125 30.59375 -1.5625 C 30.070312 -0.59375 28.789062 -0.109375 26.75 -0.109375 C 24.71875 -0.109375 23.351562 -0.359375 22.65625 -0.859375 C 21.96875 -1.367188 21.566406 -2.109375 21.453125 -3.078125 C 20.078125 -1.097656 17.769531 -0.109375 14.53125 -0.109375 C 11.300781 -0.109375 8.304688 -1.582031 5.546875 -4.53125 C 2.785156 -7.488281 1.40625 -10.914062 1.40625 -14.8125 C 1.40625 -18.71875 2.796875 -22.132812 5.578125 -25.0625 C 8.359375 -28 11.410156 -29.46875 14.734375 -29.46875 C 16.003906 -29.46875 17.160156 -29.242188 18.203125 -28.796875 C 19.253906 -28.347656 19.984375 -27.925781 20.390625 -27.53125 C 20.804688 -27.144531 21.144531 -26.765625 21.40625 -26.390625 Z M 11.203125 -14.734375 C 11.203125 -13.503906 11.6875 -12.394531 12.65625 -11.40625 C 13.632812 -10.414062 14.8125 -9.921875 16.1875 -9.921875 C 17.570312 -9.921875 18.722656 -10.421875 19.640625 -11.421875 C 20.554688 -12.429688 21.015625 -13.539062 21.015625 -14.75 C 21.015625 -15.96875 20.570312 -17.097656 19.6875 -18.140625 C 18.8125 -19.191406 17.632812 -19.71875 16.15625 -19.71875 C 14.6875 -19.71875 13.492188 -19.191406 12.578125 -18.140625 C 11.660156 -17.097656 11.203125 -15.960938 11.203125 -14.734375 Z M 11.203125 -14.734375 "/></g></g></g><g fill="#7ed957" fill-opacity="1"><g transform="translate(202.893457, 192.903664)"><g><path d="M 2.46875 -2.640625 C 1.757812 -3.085938 1.40625 -3.796875 1.40625 -4.765625 C 1.40625 -5.734375 2.113281 -7.207031 3.53125 -9.1875 C 3.9375 -9.820312 4.597656 -10.140625 5.515625 -10.140625 C 6.429688 -10.140625 7.671875 -9.679688 9.234375 -8.765625 C 10.804688 -7.847656 12.226562 -7.390625 13.5 -7.390625 C 15.78125 -7.390625 16.921875 -7.835938 16.921875 -8.734375 C 16.921875 -9.453125 15.671875 -9.976562 13.171875 -10.3125 C 10.816406 -10.644531 8.476562 -11.519531 6.15625 -12.9375 C 5.070312 -13.613281 4.175781 -14.671875 3.46875 -16.109375 C 2.757812 -17.546875 2.40625 -19.253906 2.40625 -21.234375 C 2.40625 -27.140625 6.457031 -30.09375 14.5625 -30.09375 C 17.21875 -30.09375 19.945312 -29.457031 22.75 -28.1875 C 24.050781 -27.582031 24.703125 -26.832031 24.703125 -25.9375 C 24.703125 -25.039062 24.289062 -23.9375 23.46875 -22.625 C 22.65625 -21.320312 21.816406 -20.671875 20.953125 -20.671875 C 20.503906 -20.671875 19.671875 -20.953125 18.453125 -21.515625 C 17.242188 -22.078125 15.929688 -22.359375 14.515625 -22.359375 C 12.304688 -22.359375 11.203125 -21.945312 11.203125 -21.125 C 11.203125 -20 12.472656 -19.269531 15.015625 -18.9375 C 17.484375 -18.675781 19.875 -17.96875 22.1875 -16.8125 C 23.269531 -16.289062 24.175781 -15.382812 24.90625 -14.09375 C 25.632812 -12.800781 26 -11.179688 26 -9.234375 C 26 -7.296875 25.632812 -5.644531 24.90625 -4.28125 C 24.175781 -2.914062 23.160156 -1.898438 21.859375 -1.234375 C 19.460938 -0.078125 16.460938 0.5 12.859375 0.5 C 9.253906 0.5 5.789062 -0.546875 2.46875 -2.640625 Z M 2.46875 -2.640625 "/></g></g></g><g fill="#7ed957" fill-opacity="1"><g transform="translate(230.286537, 192.903664)"><g><path d="M 29.703125 -29.1875 C 31.898438 -28.21875 33 -27.039062 33 -25.65625 C 33 -24.988281 32.847656 -24.351562 32.546875 -23.75 C 32.253906 -23.15625 32.109375 -22.84375 32.109375 -22.8125 L 17.421875 10.03125 C 17.128906 10.738281 16.878906 11.28125 16.671875 11.65625 C 16.460938 12.03125 16.132812 12.382812 15.6875 12.71875 C 15.238281 13.050781 14.675781 13.21875 14 13.21875 C 13.332031 13.21875 12.34375 12.941406 11.03125 12.390625 C 8.832031 11.410156 7.734375 10.25 7.734375 8.90625 C 7.734375 8.007812 9.523438 3.734375 13.109375 -3.921875 L 1.96875 -22.6875 C 1.21875 -23.925781 0.84375 -24.84375 0.84375 -25.4375 C 0.84375 -26.632812 1.847656 -27.832031 3.859375 -29.03125 C 5.128906 -29.769531 6.117188 -30.140625 6.828125 -30.140625 C 7.546875 -30.140625 8.128906 -29.988281 8.578125 -29.6875 C 9.023438 -29.394531 9.347656 -29.085938 9.546875 -28.765625 C 9.753906 -28.453125 10.78125 -26.71875 12.625 -23.5625 C 14.476562 -20.40625 16.25 -17.460938 17.9375 -14.734375 C 18.113281 -15.328125 19.117188 -17.628906 20.953125 -21.640625 C 22.785156 -25.660156 23.765625 -27.800781 23.890625 -28.0625 C 24.023438 -28.332031 24.242188 -28.65625 24.546875 -29.03125 C 25.023438 -29.664062 25.703125 -29.984375 26.578125 -29.984375 C 27.460938 -29.984375 28.503906 -29.71875 29.703125 -29.1875 Z M 29.703125 -29.1875 "/></g></g></g><g fill="#ffffff" fill-opacity="1"><g transform="translate(34.665807, 215.623713)"><g><path d="M 4.265625 -6.09375 C 4.898438 -6.09375 5.410156 -5.921875 5.796875 -5.578125 C 6.191406 -5.234375 6.390625 -4.675781 6.390625 -3.90625 L 6.390625 0 L 4.75 0 L 4.75 -3.5 C 4.75 -3.925781 4.671875 -4.25 4.515625 -4.46875 C 4.359375 -4.6875 4.113281 -4.796875 3.78125 -4.796875 C 3.28125 -4.796875 2.9375 -4.625 2.75 -4.28125 C 2.570312 -3.945312 2.484375 -3.457031 2.484375 -2.8125 L 2.484375 0 L 0.859375 0 L 0.859375 -5.984375 L 2.109375 -5.984375 L 2.328125 -5.21875 L 2.421875 -5.21875 C 2.546875 -5.425781 2.703125 -5.59375 2.890625 -5.71875 C 3.085938 -5.851562 3.300781 -5.945312 3.53125 -6 C 3.769531 -6.0625 4.015625 -6.09375 4.265625 -6.09375 Z M 4.265625 -6.09375 "/></g></g></g><g fill="#ffffff" fill-opacity="1"><g transform="translate(45.304777, 215.623713)"><g><path d="M 6.296875 -3 C 6.296875 -2.5 6.226562 -2.054688 6.09375 -1.671875 C 5.957031 -1.285156 5.757812 -0.957031 5.5 -0.6875 C 5.25 -0.425781 4.941406 -0.226562 4.578125 -0.09375 C 4.222656 0.0390625 3.820312 0.109375 3.375 0.109375 C 2.957031 0.109375 2.570312 0.0390625 2.21875 -0.09375 C 1.863281 -0.226562 1.554688 -0.425781 1.296875 -0.6875 C 1.046875 -0.957031 0.847656 -1.285156 0.703125 -1.671875 C 0.566406 -2.054688 0.5 -2.5 0.5 -3 C 0.5 -3.664062 0.613281 -4.226562 0.84375 -4.6875 C 1.082031 -5.144531 1.414062 -5.492188 1.84375 -5.734375 C 2.28125 -5.972656 2.800781 -6.09375 3.40625 -6.09375 C 3.96875 -6.09375 4.460938 -5.972656 4.890625 -5.734375 C 5.328125 -5.492188 5.671875 -5.144531 5.921875 -4.6875 C 6.171875 -4.226562 6.296875 -3.664062 6.296875 -3 Z M 2.15625 -3 C 2.15625 -2.613281 2.195312 -2.285156 2.28125 -2.015625 C 2.375 -1.742188 2.507812 -1.539062 2.6875 -1.40625 C 2.875 -1.269531 3.113281 -1.203125 3.40625 -1.203125 C 3.6875 -1.203125 3.914062 -1.269531 4.09375 -1.40625 C 4.28125 -1.539062 4.414062 -1.742188 4.5 -2.015625 C 4.582031 -2.285156 4.625 -2.613281 4.625 -3 C 4.625 -3.394531 4.582031 -3.722656 4.5 -3.984375 C 4.414062 -4.253906 4.28125 -4.453125 4.09375 -4.578125 C 3.914062 -4.710938 3.679688 -4.78125 3.390625 -4.78125 C 2.960938 -4.78125 2.648438 -4.628906 2.453125 -4.328125 C 2.253906 -4.035156 2.15625 -3.59375 2.15625 -3 Z M 2.15625 -3 "/></g></g></g><g fill="#ffffff" fill-opacity="1"><g transform="translate(55.526214, 215.623713)"><g/></g></g><g fill="#ffffff" fill-opacity="1"><g transform="translate(61.80784, 215.623713)"><g><path d="M 3.28125 0.109375 C 2.695312 0.109375 2.191406 0 1.765625 -0.21875 C 1.347656 -0.4375 1.03125 -0.769531 0.8125 -1.21875 C 0.601562 -1.675781 0.5 -2.257812 0.5 -2.96875 C 0.5 -3.695312 0.617188 -4.289062 0.859375 -4.75 C 1.109375 -5.21875 1.453125 -5.554688 1.890625 -5.765625 C 2.335938 -5.984375 2.851562 -6.09375 3.4375 -6.09375 C 3.84375 -6.09375 4.195312 -6.050781 4.5 -5.96875 C 4.800781 -5.894531 5.066406 -5.800781 5.296875 -5.6875 L 4.8125 -4.421875 C 4.550781 -4.523438 4.3125 -4.609375 4.09375 -4.671875 C 3.875 -4.742188 3.65625 -4.78125 3.4375 -4.78125 C 3.144531 -4.78125 2.90625 -4.710938 2.71875 -4.578125 C 2.53125 -4.441406 2.390625 -4.238281 2.296875 -3.96875 C 2.203125 -3.707031 2.15625 -3.375 2.15625 -2.96875 C 2.15625 -2.570312 2.203125 -2.242188 2.296875 -1.984375 C 2.398438 -1.722656 2.546875 -1.53125 2.734375 -1.40625 C 2.929688 -1.28125 3.164062 -1.21875 3.4375 -1.21875 C 3.769531 -1.21875 4.066406 -1.257812 4.328125 -1.34375 C 4.597656 -1.4375 4.859375 -1.566406 5.109375 -1.734375 L 5.109375 -0.34375 C 4.859375 -0.1875 4.597656 -0.0703125 4.328125 0 C 4.054688 0.0703125 3.707031 0.109375 3.28125 0.109375 Z M 3.28125 0.109375 "/></g></g></g><g fill="#ffffff" fill-opacity="1"><g transform="translate(70.87838, 215.623713)"><g><path d="M 2.484375 -5.984375 L 2.484375 0 L 0.859375 0 L 0.859375 -5.984375 Z M 1.671875 -8.328125 C 1.921875 -8.328125 2.128906 -8.269531 2.296875 -8.15625 C 2.472656 -8.050781 2.5625 -7.84375 2.5625 -7.53125 C 2.5625 -7.226562 2.472656 -7.019531 2.296875 -6.90625 C 2.128906 -6.789062 1.921875 -6.734375 1.671875 -6.734375 C 1.429688 -6.734375 1.222656 -6.789062 1.046875 -6.90625 C 0.867188 -7.019531 0.78125 -7.226562 0.78125 -7.53125 C 0.78125 -7.84375 0.867188 -8.050781 1.046875 -8.15625 C 1.222656 -8.269531 1.429688 -8.328125 1.671875 -8.328125 Z M 1.671875 -8.328125 "/></g></g></g><g fill="#ffffff" fill-opacity="1"><g transform="translate(77.657834, 215.623713)"><g><path d="M 4.203125 -6.09375 C 4.285156 -6.09375 4.378906 -6.085938 4.484375 -6.078125 C 4.597656 -6.078125 4.6875 -6.066406 4.75 -6.046875 L 4.625 -4.515625 C 4.570312 -4.535156 4.492188 -4.550781 4.390625 -4.5625 C 4.296875 -4.570312 4.210938 -4.578125 4.140625 -4.578125 C 3.929688 -4.578125 3.726562 -4.546875 3.53125 -4.484375 C 3.332031 -4.429688 3.15625 -4.34375 3 -4.21875 C 2.84375 -4.101562 2.71875 -3.945312 2.625 -3.75 C 2.53125 -3.5625 2.484375 -3.328125 2.484375 -3.046875 L 2.484375 0 L 0.859375 0 L 0.859375 -5.984375 L 2.09375 -5.984375 L 2.328125 -4.984375 L 2.421875 -4.984375 C 2.535156 -5.179688 2.679688 -5.363281 2.859375 -5.53125 C 3.035156 -5.707031 3.234375 -5.84375 3.453125 -5.9375 C 3.679688 -6.039062 3.929688 -6.09375 4.203125 -6.09375 Z M 4.203125 -6.09375 "/></g></g></g><g fill="#ffffff" fill-opacity="1"><g transform="translate(86.069958, 215.623713)"><g><path d="M 3.28125 0.109375 C 2.695312 0.109375 2.191406 0 1.765625 -0.21875 C 1.347656 -0.4375 1.03125 -0.769531 0.8125 -1.21875 C 0.601562 -1.675781 0.5 -2.257812 0.5 -2.96875 C 0.5 -3.695312 0.617188 -4.289062 0.859375 -4.75 C 1.109375 -5.21875 1.453125 -5.554688 1.890625 -5.765625 C 2.335938 -5.984375 2.851562 -6.09375 3.4375 -6.09375 C 3.84375 -6.09375 4.195312 -6.050781 4.5 -5.96875 C 4.800781 -5.894531 5.066406 -5.800781 5.296875 -5.6875 L 4.8125 -4.421875 C 4.550781 -4.523438 4.3125 -4.609375 4.09375 -4.671875 C 3.875 -4.742188 3.65625 -4.78125 3.4375 -4.78125 C 3.144531 -4.78125 2.90625 -4.710938 2.71875 -4.578125 C 2.53125 -4.441406 2.390625 -4.238281 2.296875 -3.96875 C 2.203125 -3.707031 2.15625 -3.375 2.15625 -2.96875 C 2.15625 -2.570312 2.203125 -2.242188 2.296875 -1.984375 C 2.398438 -1.722656 2.546875 -1.53125 2.734375 -1.40625 C 2.929688 -1.28125 3.164062 -1.21875 3.4375 -1.21875 C 3.769531 -1.21875 4.066406 -1.257812 4.328125 -1.34375 C 4.597656 -1.4375 4.859375 -1.566406 5.109375 -1.734375 L 5.109375 -0.34375 C 4.859375 -0.1875 4.597656 -0.0703125 4.328125 0 C 4.054688 0.0703125 3.707031 0.109375 3.28125 0.109375 Z M 3.28125 0.109375 "/></g></g></g><g fill="#ffffff" fill-opacity="1"><g transform="translate(95.140498, 215.623713)"><g><path d="M 2.484375 0 L 0.859375 0 L 0.859375 -8.328125 L 2.484375 -8.328125 Z M 2.484375 0 "/></g></g></g><g fill="#ffffff" fill-opacity="1"><g transform="translate(101.919952, 215.623713)"><g><path d="M 2.484375 -5.984375 L 2.484375 0 L 0.859375 0 L 0.859375 -5.984375 Z M 1.671875 -8.328125 C 1.921875 -8.328125 2.128906 -8.269531 2.296875 -8.15625 C 2.472656 -8.050781 2.5625 -7.84375 2.5625 -7.53125 C 2.5625 -7.226562 2.472656 -7.019531 2.296875 -6.90625 C 2.128906 -6.789062 1.921875 -6.734375 1.671875 -6.734375 C 1.429688 -6.734375 1.222656 -6.789062 1.046875 -6.90625 C 0.867188 -7.019531 0.78125 -7.226562 0.78125 -7.53125 C 0.78125 -7.84375 0.867188 -8.050781 1.046875 -8.15625 C 1.222656 -8.269531 1.429688 -8.328125 1.671875 -8.328125 Z M 1.671875 -8.328125 "/></g></g></g><g fill="#ffffff" fill-opacity="1"><g transform="translate(108.699406, 215.623713)"><g><path d="M 4.265625 -6.09375 C 4.898438 -6.09375 5.410156 -5.921875 5.796875 -5.578125 C 6.191406 -5.234375 6.390625 -4.675781 6.390625 -3.90625 L 6.390625 0 L 4.75 0 L 4.75 -3.5 C 4.75 -3.925781 4.671875 -4.25 4.515625 -4.46875 C 4.359375 -4.6875 4.113281 -4.796875 3.78125 -4.796875 C 3.28125 -4.796875 2.9375 -4.625 2.75 -4.28125 C 2.570312 -3.945312 2.484375 -3.457031 2.484375 -2.8125 L 2.484375 0 L 0.859375 0 L 0.859375 -5.984375 L 2.109375 -5.984375 L 2.328125 -5.21875 L 2.421875 -5.21875 C 2.546875 -5.425781 2.703125 -5.59375 2.890625 -5.71875 C 3.085938 -5.851562 3.300781 -5.945312 3.53125 -6 C 3.769531 -6.0625 4.015625 -6.09375 4.265625 -6.09375 Z M 4.265625 -6.09375 "/></g></g></g><g fill="#ffffff" fill-opacity="1"><g transform="translate(119.338376, 215.623713)"><g><path d="M 2.609375 2.640625 C 1.773438 2.640625 1.132812 2.492188 0.6875 2.203125 C 0.25 1.910156 0.03125 1.5 0.03125 0.96875 C 0.03125 0.613281 0.140625 0.3125 0.359375 0.0625 C 0.585938 -0.175781 0.921875 -0.347656 1.359375 -0.453125 C 1.191406 -0.523438 1.046875 -0.640625 0.921875 -0.796875 C 0.796875 -0.960938 0.734375 -1.132812 0.734375 -1.3125 C 0.734375 -1.539062 0.796875 -1.726562 0.921875 -1.875 C 1.054688 -2.03125 1.25 -2.179688 1.5 -2.328125 C 1.1875 -2.460938 0.9375 -2.679688 0.75 -2.984375 C 0.570312 -3.285156 0.484375 -3.640625 0.484375 -4.046875 C 0.484375 -4.484375 0.578125 -4.851562 0.765625 -5.15625 C 0.960938 -5.46875 1.242188 -5.703125 1.609375 -5.859375 C 1.972656 -6.015625 2.414062 -6.09375 2.9375 -6.09375 C 3.050781 -6.09375 3.179688 -6.085938 3.328125 -6.078125 C 3.472656 -6.066406 3.609375 -6.050781 3.734375 -6.03125 C 3.859375 -6.007812 3.941406 -5.992188 3.984375 -5.984375 L 6.0625 -5.984375 L 6.0625 -5.15625 L 5.125 -4.921875 C 5.21875 -4.785156 5.285156 -4.640625 5.328125 -4.484375 C 5.367188 -4.335938 5.390625 -4.179688 5.390625 -4.015625 C 5.390625 -3.367188 5.164062 -2.863281 4.71875 -2.5 C 4.269531 -2.144531 3.644531 -1.96875 2.84375 -1.96875 C 2.65625 -1.988281 2.476562 -2.003906 2.3125 -2.015625 C 2.226562 -1.953125 2.164062 -1.882812 2.125 -1.8125 C 2.082031 -1.738281 2.0625 -1.664062 2.0625 -1.59375 C 2.0625 -1.507812 2.09375 -1.441406 2.15625 -1.390625 C 2.226562 -1.335938 2.328125 -1.296875 2.453125 -1.265625 C 2.585938 -1.242188 2.757812 -1.234375 2.96875 -1.234375 L 3.984375 -1.234375 C 4.640625 -1.234375 5.140625 -1.09375 5.484375 -0.8125 C 5.828125 -0.53125 6 -0.117188 6 0.421875 C 6 1.128906 5.707031 1.675781 5.125 2.0625 C 4.539062 2.445312 3.703125 2.640625 2.609375 2.640625 Z M 2.671875 1.5625 C 3.066406 1.5625 3.40625 1.523438 3.6875 1.453125 C 3.96875 1.378906 4.179688 1.273438 4.328125 1.140625 C 4.472656 1.015625 4.546875 0.859375 4.546875 0.671875 C 4.546875 0.515625 4.503906 0.394531 4.421875 0.3125 C 4.335938 0.226562 4.207031 0.164062 4.03125 0.125 C 3.851562 0.09375 3.625 0.078125 3.34375 0.078125 L 2.5 0.078125 C 2.300781 0.078125 2.117188 0.109375 1.953125 0.171875 C 1.796875 0.234375 1.671875 0.320312 1.578125 0.4375 C 1.492188 0.550781 1.453125 0.6875 1.453125 0.84375 C 1.453125 1.070312 1.554688 1.25 1.765625 1.375 C 1.984375 1.5 2.285156 1.5625 2.671875 1.5625 Z M 2.9375 -2.96875 C 3.25 -2.96875 3.472656 -3.0625 3.609375 -3.25 C 3.753906 -3.445312 3.828125 -3.707031 3.828125 -4.03125 C 3.828125 -4.382812 3.753906 -4.648438 3.609375 -4.828125 C 3.460938 -5.015625 3.238281 -5.109375 2.9375 -5.109375 C 2.632812 -5.109375 2.410156 -5.015625 2.265625 -4.828125 C 2.117188 -4.648438 2.046875 -4.382812 2.046875 -4.03125 C 2.046875 -3.707031 2.117188 -3.445312 2.265625 -3.25 C 2.410156 -3.0625 2.632812 -2.96875 2.9375 -2.96875 Z M 2.9375 -2.96875 "/></g></g></g><g fill="#ffffff" fill-opacity="1"><g transform="translate(128.965629, 215.623713)"><g><path d="M 2.375 -1.28125 L 2.453125 -1.15625 C 2.390625 -0.894531 2.304688 -0.613281 2.203125 -0.3125 C 2.109375 -0.0195312 2 0.269531 1.875 0.5625 C 1.757812 0.863281 1.640625 1.144531 1.515625 1.40625 L 0.34375 1.40625 C 0.40625 1.125 0.46875 0.820312 0.53125 0.5 C 0.601562 0.1875 0.671875 -0.117188 0.734375 -0.421875 C 0.796875 -0.734375 0.84375 -1.019531 0.875 -1.28125 Z M 2.375 -1.28125 "/></g></g></g><g fill="#ffffff" fill-opacity="1"><g transform="translate(135.525616, 215.623713)"><g/></g></g><g fill="#ffffff" fill-opacity="1"><g transform="translate(141.807246, 215.623713)"><g><path d="M 0.375 2.640625 C 0.1875 2.640625 -0.00390625 2.625 -0.203125 2.59375 C -0.398438 2.570312 -0.566406 2.539062 -0.703125 2.5 L -0.703125 1.21875 C -0.566406 1.25 -0.441406 1.269531 -0.328125 1.28125 C -0.210938 1.300781 -0.0820312 1.3125 0.0625 1.3125 C 0.28125 1.3125 0.46875 1.25 0.625 1.125 C 0.78125 1.007812 0.859375 0.769531 0.859375 0.40625 L 0.859375 -5.984375 L 2.484375 -5.984375 L 2.484375 0.640625 C 2.484375 1.003906 2.414062 1.335938 2.28125 1.640625 C 2.144531 1.941406 1.921875 2.179688 1.609375 2.359375 C 1.296875 2.546875 0.882812 2.640625 0.375 2.640625 Z M 0.78125 -7.53125 C 0.78125 -7.84375 0.867188 -8.050781 1.046875 -8.15625 C 1.222656 -8.269531 1.429688 -8.328125 1.671875 -8.328125 C 1.921875 -8.328125 2.128906 -8.269531 2.296875 -8.15625 C 2.472656 -8.050781 2.5625 -7.84375 2.5625 -7.53125 C 2.5625 -7.226562 2.472656 -7.019531 2.296875 -6.90625 C 2.128906 -6.789062 1.921875 -6.734375 1.671875 -6.734375 C 1.429688 -6.734375 1.222656 -6.789062 1.046875 -6.90625 C 0.867188 -7.019531 0.78125 -7.226562 0.78125 -7.53125 Z M 0.78125 -7.53125 "/></g></g></g><g fill="#ffffff" fill-opacity="1"><g transform="translate(148.586706, 215.623713)"><g><path d="M 6.359375 -5.984375 L 6.359375 0 L 5.09375 0 L 4.875 -0.765625 L 4.796875 -0.765625 C 4.660156 -0.554688 4.492188 -0.390625 4.296875 -0.265625 C 4.109375 -0.140625 3.898438 -0.046875 3.671875 0.015625 C 3.441406 0.078125 3.203125 0.109375 2.953125 0.109375 C 2.523438 0.109375 2.148438 0.0351562 1.828125 -0.109375 C 1.515625 -0.265625 1.269531 -0.503906 1.09375 -0.828125 C 0.914062 -1.148438 0.828125 -1.566406 0.828125 -2.078125 L 0.828125 -5.984375 L 2.453125 -5.984375 L 2.453125 -2.484375 C 2.453125 -2.054688 2.53125 -1.734375 2.6875 -1.515625 C 2.84375 -1.296875 3.085938 -1.1875 3.421875 -1.1875 C 3.753906 -1.1875 4.015625 -1.265625 4.203125 -1.421875 C 4.390625 -1.578125 4.519531 -1.800781 4.59375 -2.09375 C 4.675781 -2.382812 4.71875 -2.742188 4.71875 -3.171875 L 4.71875 -5.984375 Z M 6.359375 -5.984375 "/></g></g></g><g fill="#ffffff" fill-opacity="1"><g transform="translate(159.225682, 215.623713)"><g><path d="M 5.03125 -1.78125 C 5.03125 -1.375 4.9375 -1.03125 4.75 -0.75 C 4.5625 -0.46875 4.273438 -0.253906 3.890625 -0.109375 C 3.515625 0.0351562 3.046875 0.109375 2.484375 0.109375 C 2.066406 0.109375 1.707031 0.0820312 1.40625 0.03125 C 1.101562 -0.0195312 0.800781 -0.109375 0.5 -0.234375 L 0.5 -1.59375 C 0.820312 -1.445312 1.171875 -1.328125 1.546875 -1.234375 C 1.921875 -1.140625 2.25 -1.09375 2.53125 -1.09375 C 2.851562 -1.09375 3.082031 -1.140625 3.21875 -1.234375 C 3.351562 -1.328125 3.421875 -1.445312 3.421875 -1.59375 C 3.421875 -1.695312 3.390625 -1.789062 3.328125 -1.875 C 3.273438 -1.957031 3.15625 -2.046875 2.96875 -2.140625 C 2.789062 -2.242188 2.507812 -2.378906 2.125 -2.546875 C 1.75 -2.703125 1.441406 -2.859375 1.203125 -3.015625 C 0.960938 -3.179688 0.785156 -3.375 0.671875 -3.59375 C 0.554688 -3.8125 0.5 -4.085938 0.5 -4.421875 C 0.5 -4.984375 0.710938 -5.398438 1.140625 -5.671875 C 1.566406 -5.953125 2.140625 -6.09375 2.859375 -6.09375 C 3.234375 -6.09375 3.585938 -6.054688 3.921875 -5.984375 C 4.265625 -5.910156 4.613281 -5.789062 4.96875 -5.625 L 4.484375 -4.453125 C 4.179688 -4.578125 3.898438 -4.679688 3.640625 -4.765625 C 3.378906 -4.847656 3.113281 -4.890625 2.84375 -4.890625 C 2.601562 -4.890625 2.421875 -4.859375 2.296875 -4.796875 C 2.171875 -4.734375 2.109375 -4.632812 2.109375 -4.5 C 2.109375 -4.40625 2.140625 -4.316406 2.203125 -4.234375 C 2.265625 -4.160156 2.382812 -4.078125 2.5625 -3.984375 C 2.75 -3.898438 3.019531 -3.785156 3.375 -3.640625 C 3.707031 -3.503906 4 -3.359375 4.25 -3.203125 C 4.5 -3.054688 4.691406 -2.867188 4.828125 -2.640625 C 4.960938 -2.421875 5.03125 -2.132812 5.03125 -1.78125 Z M 5.03125 -1.78125 "/></g></g></g><g fill="#ffffff" fill-opacity="1"><g transform="translate(168.108872, 215.623713)"><g><path d="M 3.375 -1.1875 C 3.550781 -1.1875 3.722656 -1.203125 3.890625 -1.234375 C 4.066406 -1.273438 4.238281 -1.320312 4.40625 -1.375 L 4.40625 -0.171875 C 4.226562 -0.0859375 4.007812 -0.0195312 3.75 0.03125 C 3.5 0.0820312 3.21875 0.109375 2.90625 0.109375 C 2.550781 0.109375 2.226562 0.0507812 1.9375 -0.0625 C 1.65625 -0.175781 1.429688 -0.378906 1.265625 -0.671875 C 1.109375 -0.960938 1.03125 -1.363281 1.03125 -1.875 L 1.03125 -4.765625 L 0.25 -4.765625 L 0.25 -5.453125 L 1.15625 -6 L 1.625 -7.265625 L 2.671875 -7.265625 L 2.671875 -5.984375 L 4.34375 -5.984375 L 4.34375 -4.765625 L 2.671875 -4.765625 L 2.671875 -1.875 C 2.671875 -1.644531 2.734375 -1.472656 2.859375 -1.359375 C 2.992188 -1.242188 3.164062 -1.1875 3.375 -1.1875 Z M 3.375 -1.1875 "/></g></g></g><g fill="#ffffff" fill-opacity="1"><g transform="translate(176.301525, 215.623713)"><g/></g></g><g fill="#ffffff" fill-opacity="1"><g transform="translate(182.583156, 215.623713)"><g><path d="M 4.1875 -6.09375 C 4.863281 -6.09375 5.410156 -5.832031 5.828125 -5.3125 C 6.242188 -4.789062 6.453125 -4.019531 6.453125 -3 C 6.453125 -2.320312 6.351562 -1.75 6.15625 -1.28125 C 5.957031 -0.820312 5.679688 -0.472656 5.328125 -0.234375 C 4.984375 -0.00390625 4.585938 0.109375 4.140625 0.109375 C 3.859375 0.109375 3.613281 0.0703125 3.40625 0 C 3.195312 -0.0703125 3.019531 -0.164062 2.875 -0.28125 C 2.726562 -0.394531 2.597656 -0.519531 2.484375 -0.65625 L 2.40625 -0.65625 C 2.4375 -0.507812 2.457031 -0.363281 2.46875 -0.21875 C 2.476562 -0.0703125 2.484375 0.0703125 2.484375 0.21875 L 2.484375 2.640625 L 0.859375 2.640625 L 0.859375 -5.984375 L 2.1875 -5.984375 L 2.421875 -5.21875 L 2.484375 -5.21875 C 2.597656 -5.375 2.726562 -5.519531 2.875 -5.65625 C 3.03125 -5.789062 3.21875 -5.894531 3.4375 -5.96875 C 3.65625 -6.050781 3.90625 -6.09375 4.1875 -6.09375 Z M 3.65625 -4.796875 C 3.375 -4.796875 3.148438 -4.734375 2.984375 -4.609375 C 2.816406 -4.492188 2.691406 -4.316406 2.609375 -4.078125 C 2.535156 -3.847656 2.492188 -3.550781 2.484375 -3.1875 L 2.484375 -3.015625 C 2.484375 -2.628906 2.519531 -2.300781 2.59375 -2.03125 C 2.664062 -1.769531 2.789062 -1.566406 2.96875 -1.421875 C 3.144531 -1.285156 3.382812 -1.21875 3.6875 -1.21875 C 3.9375 -1.21875 4.140625 -1.285156 4.296875 -1.421875 C 4.460938 -1.566406 4.582031 -1.769531 4.65625 -2.03125 C 4.738281 -2.300781 4.78125 -2.632812 4.78125 -3.03125 C 4.78125 -3.613281 4.6875 -4.050781 4.5 -4.34375 C 4.320312 -4.644531 4.039062 -4.796875 3.65625 -4.796875 Z M 3.65625 -4.796875 "/></g></g></g><g fill="#ffffff" fill-opacity="1"><g transform="translate(192.954482, 215.623713)"><g><path d="M 3.3125 -6.109375 C 4.113281 -6.109375 4.726562 -5.929688 5.15625 -5.578125 C 5.582031 -5.234375 5.796875 -4.703125 5.796875 -3.984375 L 5.796875 0 L 4.65625 0 L 4.34375 -0.8125 L 4.296875 -0.8125 C 4.128906 -0.601562 3.957031 -0.425781 3.78125 -0.28125 C 3.601562 -0.144531 3.394531 -0.046875 3.15625 0.015625 C 2.925781 0.078125 2.644531 0.109375 2.3125 0.109375 C 1.957031 0.109375 1.640625 0.0390625 1.359375 -0.09375 C 1.078125 -0.226562 0.851562 -0.4375 0.6875 -0.71875 C 0.53125 -1 0.453125 -1.351562 0.453125 -1.78125 C 0.453125 -2.425781 0.675781 -2.894531 1.125 -3.1875 C 1.570312 -3.488281 2.242188 -3.660156 3.140625 -3.703125 L 4.171875 -3.734375 L 4.171875 -3.984375 C 4.171875 -4.304688 4.085938 -4.539062 3.921875 -4.6875 C 3.765625 -4.832031 3.539062 -4.90625 3.25 -4.90625 C 2.957031 -4.90625 2.671875 -4.863281 2.390625 -4.78125 C 2.109375 -4.695312 1.832031 -4.59375 1.5625 -4.46875 L 1.015625 -5.5625 C 1.335938 -5.738281 1.691406 -5.875 2.078125 -5.96875 C 2.472656 -6.0625 2.882812 -6.109375 3.3125 -6.109375 Z M 4.171875 -2.78125 L 3.546875 -2.75 C 3.015625 -2.738281 2.644531 -2.644531 2.4375 -2.46875 C 2.238281 -2.289062 2.140625 -2.0625 2.140625 -1.78125 C 2.140625 -1.53125 2.210938 -1.351562 2.359375 -1.25 C 2.503906 -1.144531 2.691406 -1.09375 2.921875 -1.09375 C 3.273438 -1.09375 3.570312 -1.191406 3.8125 -1.390625 C 4.050781 -1.597656 4.171875 -1.894531 4.171875 -2.28125 Z M 4.171875 -2.78125 "/></g></g></g><g fill="#ffffff" fill-opacity="1"><g transform="translate(203.00998, 215.623713)"><g><path d="M 4.203125 -6.09375 C 4.285156 -6.09375 4.378906 -6.085938 4.484375 -6.078125 C 4.597656 -6.078125 4.6875 -6.066406 4.75 -6.046875 L 4.625 -4.515625 C 4.570312 -4.535156 4.492188 -4.550781 4.390625 -4.5625 C 4.296875 -4.570312 4.210938 -4.578125 4.140625 -4.578125 C 3.929688 -4.578125 3.726562 -4.546875 3.53125 -4.484375 C 3.332031 -4.429688 3.15625 -4.34375 3 -4.21875 C 2.84375 -4.101562 2.71875 -3.945312 2.625 -3.75 C 2.53125 -3.5625 2.484375 -3.328125 2.484375 -3.046875 L 2.484375 0 L 0.859375 0 L 0.859375 -5.984375 L 2.09375 -5.984375 L 2.328125 -4.984375 L 2.421875 -4.984375 C 2.535156 -5.179688 2.679688 -5.363281 2.859375 -5.53125 C 3.035156 -5.707031 3.234375 -5.84375 3.453125 -5.9375 C 3.679688 -6.039062 3.929688 -6.09375 4.203125 -6.09375 Z M 4.203125 -6.09375 "/></g></g></g><g fill="#ffffff" fill-opacity="1"><g transform="translate(211.422106, 215.623713)"><g><path d="M 2.484375 -8.328125 L 2.484375 -4.609375 C 2.484375 -4.378906 2.472656 -4.148438 2.453125 -3.921875 C 2.441406 -3.703125 2.425781 -3.476562 2.40625 -3.25 L 2.421875 -3.25 C 2.535156 -3.40625 2.648438 -3.5625 2.765625 -3.71875 C 2.878906 -3.875 3.003906 -4.023438 3.140625 -4.171875 L 4.8125 -5.984375 L 6.65625 -5.984375 L 4.28125 -3.390625 L 6.796875 0 L 4.921875 0 L 3.1875 -2.421875 L 2.484375 -1.859375 L 2.484375 0 L 0.859375 0 L 0.859375 -8.328125 Z M 2.484375 -8.328125 "/></g></g></g><g fill="#ffffff" fill-opacity="1"><g transform="translate(221.654254, 215.623713)"><g><path d="M 2.484375 -5.984375 L 2.484375 0 L 0.859375 0 L 0.859375 -5.984375 Z M 1.671875 -8.328125 C 1.921875 -8.328125 2.128906 -8.269531 2.296875 -8.15625 C 2.472656 -8.050781 2.5625 -7.84375 2.5625 -7.53125 C 2.5625 -7.226562 2.472656 -7.019531 2.296875 -6.90625 C 2.128906 -6.789062 1.921875 -6.734375 1.671875 -6.734375 C 1.429688 -6.734375 1.222656 -6.789062 1.046875 -6.90625 C 0.867188 -7.019531 0.78125 -7.226562 0.78125 -7.53125 C 0.78125 -7.84375 0.867188 -8.050781 1.046875 -8.15625 C 1.222656 -8.269531 1.429688 -8.328125 1.671875 -8.328125 Z M 1.671875 -8.328125 "/></g></g></g><g fill="#ffffff" fill-opacity="1"><g transform="translate(228.433714, 215.623713)"><g><path d="M 4.265625 -6.09375 C 4.898438 -6.09375 5.410156 -5.921875 5.796875 -5.578125 C 6.191406 -5.234375 6.390625 -4.675781 6.390625 -3.90625 L 6.390625 0 L 4.75 0 L 4.75 -3.5 C 4.75 -3.925781 4.671875 -4.25 4.515625 -4.46875 C 4.359375 -4.6875 4.113281 -4.796875 3.78125 -4.796875 C 3.28125 -4.796875 2.9375 -4.625 2.75 -4.28125 C 2.570312 -3.945312 2.484375 -3.457031 2.484375 -2.8125 L 2.484375 0 L 0.859375 0 L 0.859375 -5.984375 L 2.109375 -5.984375 L 2.328125 -5.21875 L 2.421875 -5.21875 C 2.546875 -5.425781 2.703125 -5.59375 2.890625 -5.71875 C 3.085938 -5.851562 3.300781 -5.945312 3.53125 -6 C 3.769531 -6.0625 4.015625 -6.09375 4.265625 -6.09375 Z M 4.265625 -6.09375 "/></g></g></g><g fill="#ffffff" fill-opacity="1"><g transform="translate(239.072678, 215.623713)"><g><path d="M 2.609375 2.640625 C 1.773438 2.640625 1.132812 2.492188 0.6875 2.203125 C 0.25 1.910156 0.03125 1.5 0.03125 0.96875 C 0.03125 0.613281 0.140625 0.3125 0.359375 0.0625 C 0.585938 -0.175781 0.921875 -0.347656 1.359375 -0.453125 C 1.191406 -0.523438 1.046875 -0.640625 0.921875 -0.796875 C 0.796875 -0.960938 0.734375 -1.132812 0.734375 -1.3125 C 0.734375 -1.539062 0.796875 -1.726562 0.921875 -1.875 C 1.054688 -2.03125 1.25 -2.179688 1.5 -2.328125 C 1.1875 -2.460938 0.9375 -2.679688 0.75 -2.984375 C 0.570312 -3.285156 0.484375 -3.640625 0.484375 -4.046875 C 0.484375 -4.484375 0.578125 -4.851562 0.765625 -5.15625 C 0.960938 -5.46875 1.242188 -5.703125 1.609375 -5.859375 C 1.972656 -6.015625 2.414062 -6.09375 2.9375 -6.09375 C 3.050781 -6.09375 3.179688 -6.085938 3.328125 -6.078125 C 3.472656 -6.066406 3.609375 -6.050781 3.734375 -6.03125 C 3.859375 -6.007812 3.941406 -5.992188 3.984375 -5.984375 L 6.0625 -5.984375 L 6.0625 -5.15625 L 5.125 -4.921875 C 5.21875 -4.785156 5.285156 -4.640625 5.328125 -4.484375 C 5.367188 -4.335938 5.390625 -4.179688 5.390625 -4.015625 C 5.390625 -3.367188 5.164062 -2.863281 4.71875 -2.5 C 4.269531 -2.144531 3.644531 -1.96875 2.84375 -1.96875 C 2.65625 -1.988281 2.476562 -2.003906 2.3125 -2.015625 C 2.226562 -1.953125 2.164062 -1.882812 2.125 -1.8125 C 2.082031 -1.738281 2.0625 -1.664062 2.0625 -1.59375 C 2.0625 -1.507812 2.09375 -1.441406 2.15625 -1.390625 C 2.226562 -1.335938 2.328125 -1.296875 2.453125 -1.265625 C 2.585938 -1.242188 2.757812 -1.234375 2.96875 -1.234375 L 3.984375 -1.234375 C 4.640625 -1.234375 5.140625 -1.09375 5.484375 -0.8125 C 5.828125 -0.53125 6 -0.117188 6 0.421875 C 6 1.128906 5.707031 1.675781 5.125 2.0625 C 4.539062 2.445312 3.703125 2.640625 2.609375 2.640625 Z M 2.671875 1.5625 C 3.066406 1.5625 3.40625 1.523438 3.6875 1.453125 C 3.96875 1.378906 4.179688 1.273438 4.328125 1.140625 C 4.472656 1.015625 4.546875 0.859375 4.546875 0.671875 C 4.546875 0.515625 4.503906 0.394531 4.421875 0.3125 C 4.335938 0.226562 4.207031 0.164062 4.03125 0.125 C 3.851562 0.09375 3.625 0.078125 3.34375 0.078125 L 2.5 0.078125 C 2.300781 0.078125 2.117188 0.109375 1.953125 0.171875 C 1.796875 0.234375 1.671875 0.320312 1.578125 0.4375 C 1.492188 0.550781 1.453125 0.6875 1.453125 0.84375 C 1.453125 1.070312 1.554688 1.25 1.765625 1.375 C 1.984375 1.5 2.285156 1.5625 2.671875 1.5625 Z M 2.9375 -2.96875 C 3.25 -2.96875 3.472656 -3.0625 3.609375 -3.25 C 3.753906 -3.445312 3.828125 -3.707031 3.828125 -4.03125 C 3.828125 -4.382812 3.753906 -4.648438 3.609375 -4.828125 C 3.460938 -5.015625 3.238281 -5.109375 2.9375 -5.109375 C 2.632812 -5.109375 2.410156 -5.015625 2.265625 -4.828125 C 2.117188 -4.648438 2.046875 -4.382812 2.046875 -4.03125 C 2.046875 -3.707031 2.117188 -3.445312 2.265625 -3.25 C 2.410156 -3.0625 2.632812 -2.96875 2.9375 -2.96875 Z M 2.9375 -2.96875 "/></g></g></g><g fill="#ffffff" fill-opacity="1"><g transform="translate(126.034537, 55.61768)"><g><path d="M 1.921875 6.84375 L 1.921875 -21.109375 C 1.921875 -21.847656 1.941406 -22.390625 1.984375 -22.734375 C 2.035156 -23.085938 2.171875 -23.488281 2.390625 -23.9375 C 2.835938 -24.800781 3.90625 -25.234375 5.59375 -25.234375 C 7.289062 -25.234375 8.429688 -25.015625 9.015625 -24.578125 C 9.609375 -24.148438 9.953125 -23.519531 10.046875 -22.6875 C 11.265625 -24.351562 13.171875 -25.1875 15.765625 -25.1875 C 18.367188 -25.1875 20.835938 -23.957031 23.171875 -21.5 C 25.503906 -19.039062 26.671875 -16.179688 26.671875 -12.921875 C 26.671875 -9.671875 25.507812 -6.816406 23.1875 -4.359375 C 20.875 -1.898438 18.410156 -0.671875 15.796875 -0.671875 C 13.179688 -0.671875 11.285156 -1.40625 10.109375 -2.875 L 10.109375 6.796875 C 10.109375 7.535156 10.082031 8.078125 10.03125 8.421875 C 9.976562 8.773438 9.832031 9.179688 9.59375 9.640625 C 9.351562 10.109375 8.945312 10.4375 8.375 10.625 C 7.800781 10.820312 7.019531 10.921875 6.03125 10.921875 C 5.039062 10.921875 4.25 10.820312 3.65625 10.625 C 3.070312 10.4375 2.660156 10.117188 2.421875 9.671875 C 2.179688 9.222656 2.035156 8.820312 1.984375 8.46875 C 1.941406 8.125 1.921875 7.582031 1.921875 6.84375 Z M 11.390625 -15.703125 C 10.660156 -14.835938 10.296875 -13.894531 10.296875 -12.875 C 10.296875 -11.851562 10.671875 -10.921875 11.421875 -10.078125 C 12.171875 -9.234375 13.125 -8.8125 14.28125 -8.8125 C 15.445312 -8.8125 16.4375 -9.222656 17.25 -10.046875 C 18.070312 -10.878906 18.484375 -11.820312 18.484375 -12.875 C 18.484375 -13.925781 18.097656 -14.875 17.328125 -15.71875 C 16.566406 -16.570312 15.570312 -17 14.34375 -17 C 13.113281 -17 12.128906 -16.566406 11.390625 -15.703125 Z M 11.390625 -15.703125 "/></g></g></g></svg>