<svg xmlns="http://www.w3.org/2000/svg" xmlns:xlink="http://www.w3.org/1999/xlink" width="375" zoomAndPan="magnify" viewBox="0 0 281.25 89.999999" height="120" preserveAspectRatio="xMidYMid meet" version="1.0"><defs><g/><clipPath id="ad9a7a1bef"><path d="M 0 3 L 155 3 L 155 89.878906 L 0 89.878906 Z M 0 3 " clip-rule="nonzero"/></clipPath><clipPath id="07bdc05631"><path d="M 120 16 L 280.503906 16 L 280.503906 89.878906 L 120 89.878906 Z M 120 16 " clip-rule="nonzero"/></clipPath><clipPath id="2fa762a31d"><path d="M 0 3 L 155 3 L 155 89.878906 L 0 89.878906 Z M 0 3 " clip-rule="nonzero"/></clipPath><clipPath id="45e6bcfbb3"><path d="M 120 16 L 280.503906 16 L 280.503906 89.878906 L 120 89.878906 Z M 120 16 " clip-rule="nonzero"/></clipPath></defs><g clip-path="url(#ad9a7a1bef)"><path stroke-linecap="butt" transform="matrix(0.748005, 0, 0, 0.748005, 11.485722, 14.96708)" fill="none" stroke-linejoin="miter" d="M 8.750643 77.714125 L 8.750643 33.97279 C 8.750643 32.818679 8.787199 31.962234 8.86031 31.413901 C 8.933421 30.865568 9.147532 30.244123 9.497421 29.549568 C 10.191977 28.197012 11.863088 27.518123 14.510755 27.518123 C 17.153199 27.518123 18.939199 27.86279 19.868755 28.541679 C 20.793088 29.215345 21.330977 30.197123 21.4772 31.487012 C 23.378088 28.902012 26.359977 27.612123 30.417644 27.612123 C 34.490978 27.612123 38.3502 29.533901 41.995311 33.372234 C 45.640423 37.210568 47.462978 41.68079 47.462978 46.777679 C 47.462978 51.869346 45.650867 56.344791 42.031867 60.198791 C 38.423311 64.037125 34.569311 65.958903 30.475089 65.958903 C 26.375644 65.958903 23.4042 64.804791 21.550311 62.501791 L 21.550311 77.641014 C 21.550311 78.789903 21.513755 79.635903 21.440644 80.184236 C 21.367533 80.73257 21.142977 81.364459 20.761755 82.085125 C 20.396199 82.816237 19.764311 83.328014 18.860866 83.620459 C 17.957422 83.92857 16.735422 84.080014 15.184421 84.080014 C 13.638644 84.080014 12.400977 83.92857 11.471421 83.620459 C 10.557532 83.328014 9.915199 82.831903 9.533977 82.121681 C 9.157977 81.427125 8.933421 80.805681 8.86031 80.257348 C 8.787199 79.709014 8.750643 78.863014 8.750643 77.714125 Z M 23.576533 42.443235 C 22.432866 43.780124 21.858422 45.252791 21.858422 46.850791 C 21.858422 48.443568 22.443311 49.911013 23.613088 51.237457 C 24.788089 52.553458 26.281644 53.211458 28.093755 53.211458 C 29.926755 53.211458 31.472533 52.563902 32.741533 51.274013 C 34.020978 49.968457 34.658089 48.495791 34.658089 46.850791 C 34.658089 45.200568 34.057533 43.722679 32.8512 42.406679 C 31.655311 41.075013 30.093867 40.41179 28.166866 40.41179 C 26.255533 40.41179 24.725422 41.090679 23.576533 42.443235 Z M 77.955535 31.727234 C 78.24798 28.922901 80.216758 27.518123 83.861869 27.518123 C 85.809758 27.518123 87.261536 27.67479 88.21198 27.977679 C 89.162425 28.280568 89.820425 28.808012 90.18598 29.549568 C 90.567202 30.291123 90.791758 30.959568 90.864869 31.544457 C 90.93798 32.113679 90.974536 32.975346 90.974536 34.119012 L 90.974536 60.324125 C 90.974536 61.483458 90.93798 62.350347 90.864869 62.924791 C 90.791758 63.494014 90.577647 64.152014 90.222536 64.898791 C 89.52798 66.199125 87.820313 66.851903 85.104758 66.851903 C 82.38398 66.851903 80.561424 66.51768 79.637091 65.849236 C 78.707535 65.165125 78.174869 64.178125 78.028646 62.883014 C 76.174757 65.53068 73.088424 66.851903 68.774868 66.851903 C 64.461312 66.851903 60.450646 64.883125 56.742868 60.945569 C 53.050756 56.997569 51.20209 52.412458 51.20209 47.195457 C 51.20209 41.978457 53.061201 37.414235 56.779423 33.497568 C 60.50809 29.575679 64.591868 27.612123 69.030757 27.612123 C 70.738424 27.612123 72.284202 27.90979 73.673313 28.505123 C 75.078091 29.105679 76.054646 29.664457 76.60298 30.191901 C 77.151313 30.714123 77.600424 31.225901 77.955535 31.727234 Z M 64.31509 47.305124 C 64.31509 48.950124 64.957424 50.438457 66.252535 51.770124 C 67.552868 53.086124 69.129979 53.744124 70.968202 53.744124 C 72.822091 53.744124 74.357424 53.070458 75.579424 51.733569 C 76.806646 50.375791 77.422869 48.89268 77.422869 47.268568 C 77.422869 45.649679 76.832757 44.135235 75.652535 42.735679 C 74.477535 41.330901 72.905646 40.631124 70.931646 40.631124 C 68.96809 40.631124 67.37009 41.330901 66.142868 42.735679 C 64.920868 44.135235 64.31509 45.660124 64.31509 47.305124 Z M 123.775315 27.977679 C 124.730982 28.280568 125.514315 28.792345 126.135759 29.513012 C 126.757204 30.233679 127.070537 31.393012 127.070537 32.98579 C 127.070537 34.58379 126.595315 36.333235 125.644871 38.234124 C 124.70487 40.140235 123.331426 41.090679 121.529759 41.090679 C 120.636759 41.090679 119.780315 40.887013 118.949981 40.484901 C 118.119648 40.08279 117.028203 39.879124 115.675648 39.879124 C 114.333537 39.879124 113.080203 40.359568 111.910425 41.310013 C 110.740648 42.260457 110.155759 43.404124 110.155759 44.746235 L 110.155759 60.491236 C 110.155759 61.634902 110.113981 62.496569 110.025203 63.071014 C 109.952092 63.640236 109.722314 64.303458 109.330648 65.06068 C 108.573425 66.355791 106.625536 66.998125 103.481758 66.998125 C 101.089981 66.998125 99.371869 66.575125 98.322203 65.71868 C 97.51798 65.024125 97.068869 63.953569 96.969647 62.501791 C 96.969647 62.000458 96.969647 61.274569 96.969647 60.324125 L 96.969647 34.045901 C 96.969647 32.902234 97.006203 32.040568 97.079314 31.471346 C 97.152425 30.886457 97.366536 30.244123 97.721647 29.549568 C 98.416203 28.197012 100.358869 27.518123 103.55487 27.518123 C 106.552425 27.518123 108.421981 28.09779 109.168759 29.257123 C 109.727537 30.050901 110.009537 30.87079 110.009537 31.727234 C 110.249759 31.372123 110.610092 30.943901 111.085314 30.44779 C 111.560537 29.946457 112.573648 29.278012 114.124648 28.432012 C 115.670426 27.58079 117.028203 27.152568 118.197981 27.152568 C 119.372981 27.152568 120.349537 27.215234 121.143315 27.335345 C 121.947537 27.460679 122.82487 27.67479 123.775315 27.977679 Z M 154.419316 47.232013 L 164.36765 55.462235 C 165.620983 56.511902 166.409539 57.310902 166.722872 57.859236 C 167.051872 58.407569 167.218983 58.929791 167.218983 59.431124 C 167.218983 60.637458 166.446094 62.261569 164.895094 64.313902 C 163.203094 66.408014 161.704316 67.45768 160.398761 67.45768 C 159.302094 67.45768 157.777205 66.731791 155.824094 65.280014 L 155.077316 64.752569 C 153.928427 63.802125 152.158094 62.141458 149.755872 59.775791 C 147.364094 57.39968 145.551982 55.712902 144.303871 54.710235 L 144.303871 60.491236 C 144.303871 61.634902 144.262094 62.496569 144.178538 63.071014 C 144.105427 63.640236 143.875649 64.303458 143.483982 65.06068 C 142.825982 66.355791 140.898982 66.998125 137.702982 66.998125 C 134.559204 66.998125 132.637426 66.324458 131.942871 64.971902 C 131.592982 64.225125 131.378871 63.567125 131.30576 62.997902 C 131.232649 62.423458 131.196093 61.561791 131.196093 60.418125 L 131.196093 15.543567 C 131.196093 14.394678 131.232649 13.538234 131.30576 12.963789 C 131.378871 12.389345 131.592982 11.726122 131.942871 10.9689 C 132.637426 9.632011 134.585315 8.958345 137.776093 8.958345 C 140.178316 8.958345 141.88076 9.381345 142.878205 10.222122 C 143.718982 10.927122 144.173316 12.023789 144.23076 13.512123 C 144.282982 13.966456 144.303871 14.666234 144.303871 15.616678 L 144.303871 39.367346 C 145.196871 38.615346 146.549427 37.341124 148.36676 35.549901 C 150.194538 33.743012 151.557538 32.46879 152.460983 31.727234 L 153.359205 31.121457 C 155.113872 29.768901 156.61265 29.095234 157.855539 29.095234 C 159.098427 29.095234 160.534539 30.103123 162.153428 32.129346 C 163.787983 34.150346 164.60265 35.743123 164.60265 36.902457 C 164.60265 38.046124 163.678317 39.393457 161.824428 40.944457 Z M 154.419316 47.232013 " stroke="#000000" stroke-width="4.306928" stroke-opacity="1" stroke-miterlimit="4"/></g><g clip-path="url(#07bdc05631)"><path stroke-linecap="butt" transform="matrix(0.748005, 0, 0, 0.748005, 11.485722, 14.96708)" fill="none" stroke-linejoin="miter" d="M 209.393652 42.552902 C 209.393652 45.623568 208.63643 47.895235 207.111541 49.373124 C 205.586652 50.835346 203.899874 51.566457 202.045985 51.566457 L 184.290429 51.566457 C 184.290429 52.966013 185.110317 54.146235 186.755318 55.09668 C 188.415984 56.047124 190.066207 56.522347 191.711207 56.522347 C 194.614762 56.522347 196.886429 56.219458 198.536651 55.608458 L 199.35654 55.316013 C 200.552429 54.76768 201.549874 54.490902 202.354096 54.490902 C 203.952096 54.490902 205.325541 55.61368 206.469207 57.859236 C 207.116763 59.211791 207.440541 60.36068 207.440541 61.311125 C 207.440541 65.750014 202.124318 67.969458 191.491873 67.969458 C 187.799762 67.969458 184.514984 67.337569 181.63754 66.068569 C 178.770539 64.789125 176.535428 63.097125 174.926984 61.003013 C 171.783206 56.966235 170.211317 52.449013 170.211317 47.451346 C 170.211317 41.16379 172.242761 36.13479 176.316095 32.364346 C 180.389428 28.588679 185.470651 26.698234 191.564984 26.698234 C 198.505318 26.698234 203.591763 29.147457 206.834763 34.045901 C 208.54243 36.646568 209.393652 39.477013 209.393652 42.552902 Z M 193.580762 44.746235 C 195.481651 44.746235 196.432096 43.947235 196.432096 42.349235 C 196.432096 41.205568 195.993429 40.286457 195.116096 39.586679 C 194.249207 38.892124 193.001096 38.547457 191.36654 38.547457 C 189.742429 38.547457 188.133984 39.210679 186.535984 40.542346 C 184.943206 41.858346 184.144206 43.257902 184.144206 44.746235 Z M 239.875764 31.727234 C 240.168209 28.922901 242.136986 27.518123 245.782098 27.518123 C 247.729987 27.518123 249.181765 27.67479 250.132209 27.977679 C 251.082654 28.280568 251.740654 28.808012 252.106209 29.549568 C 252.487431 30.291123 252.711987 30.959568 252.785098 31.544457 C 252.858209 32.113679 252.894765 32.975346 252.894765 34.119012 L 252.894765 60.324125 C 252.894765 61.483458 252.858209 62.350347 252.785098 62.924791 C 252.711987 63.494014 252.497876 64.152014 252.142765 64.898791 C 251.448209 66.199125 249.740542 66.851903 247.024987 66.851903 C 244.304209 66.851903 242.481653 66.51768 241.55732 65.849236 C 240.627764 65.165125 240.095098 64.178125 239.948875 62.883014 C 238.094986 65.53068 235.008653 66.851903 230.695097 66.851903 C 226.376319 66.851903 222.365652 64.883125 218.663097 60.945569 C 214.965763 56.997569 213.122319 52.412458 213.122319 47.195457 C 213.122319 41.978457 214.98143 37.414235 218.699652 33.497568 C 222.428319 29.575679 226.512097 27.612123 230.950986 27.612123 C 232.658653 27.612123 234.204431 27.90979 235.593542 28.505123 C 236.99832 29.105679 237.969653 29.664457 238.523209 30.191901 C 239.071542 30.714123 239.520653 31.225901 239.875764 31.727234 Z M 226.230097 47.305124 C 226.230097 48.950124 226.877653 50.438457 228.172764 51.770124 C 229.473097 53.086124 231.050208 53.744124 232.888431 53.744124 C 234.74232 53.744124 236.277653 53.070458 237.494431 51.733569 C 238.726875 50.375791 239.343097 48.89268 239.343097 47.268568 C 239.343097 45.649679 238.752986 44.135235 237.567542 42.735679 C 236.397764 41.330901 234.825875 40.631124 232.851875 40.631124 C 230.888319 40.631124 229.290319 41.330901 228.063097 42.735679 C 226.841097 44.135235 226.230097 45.660124 226.230097 47.305124 Z M 259.182321 63.473125 C 258.231876 62.872569 257.756654 61.927347 257.756654 60.637458 C 257.756654 59.331902 258.707098 57.357902 260.607987 54.710235 C 261.156321 53.869458 262.038876 53.45168 263.260876 53.45168 C 264.493321 53.45168 266.153987 54.057458 268.253321 55.279458 C 270.347432 56.496235 272.243099 57.107235 273.940321 57.107235 C 276.984877 57.107235 278.509766 56.511902 278.509766 55.316013 C 278.509766 54.365569 276.838655 53.665791 273.501654 53.211458 C 270.352654 52.762346 267.234988 51.592569 264.13821 49.702124 C 262.686432 48.79868 261.485321 47.38868 260.534876 45.477346 C 259.584432 43.550346 259.109209 41.263013 259.109209 38.620568 C 259.109209 30.719345 264.529876 26.771345 275.365988 26.771345 C 278.911877 26.771345 282.556988 27.622568 286.301322 29.330234 C 288.045544 30.124012 288.917655 31.121457 288.917655 32.32779 C 288.917655 33.523679 288.369322 35.001568 287.267433 36.756235 C 286.170766 38.500457 285.05321 39.367346 283.904322 39.367346 C 283.308988 39.367346 282.196655 38.996568 280.577766 38.255012 C 278.953655 37.49779 277.193766 37.12179 275.292877 37.12179 C 272.342321 37.12179 270.869654 37.670124 270.869654 38.76679 C 270.869654 40.265568 272.566877 41.242124 275.966543 41.691235 C 279.261766 42.035902 282.452544 42.975902 285.549322 44.526902 C 287.001099 45.231902 288.212655 46.448679 289.189211 48.166791 C 290.165766 49.884902 290.651433 52.04168 290.651433 54.637124 C 290.651433 57.237791 290.165766 59.446791 289.189211 61.274569 C 288.212655 63.091902 286.849655 64.44968 285.094988 65.353125 C 281.898988 66.904125 277.893544 67.677014 273.078654 67.677014 C 268.263765 67.677014 263.631654 66.272236 259.182321 63.473125 Z M 332.209879 27.977679 C 335.160435 29.267568 336.638324 30.844679 336.638324 32.693346 C 336.638324 33.59679 336.434657 34.453235 336.032546 35.257457 C 335.630435 36.046012 335.43199 36.469012 335.43199 36.516012 L 315.806878 80.40357 C 315.404767 81.354014 315.065323 82.079903 314.783323 82.581237 C 314.516989 83.077348 314.083545 83.55257 313.488212 84.006903 C 312.887656 84.456014 312.140878 84.68057 311.237434 84.68057 C 310.333989 84.68057 309.012767 84.30457 307.268545 83.547348 C 304.317989 82.257459 302.845322 80.706459 302.845322 78.904792 C 302.845322 77.708903 305.2371 71.990569 310.0311 61.749791 L 295.126878 36.662235 C 294.129433 35.017235 293.6281 33.790012 293.6281 32.98579 C 293.6281 31.393012 294.980655 29.795012 297.685767 28.197012 C 299.382989 27.199568 300.704211 26.698234 301.654656 26.698234 C 302.6051 26.698234 303.377989 26.896679 303.978545 27.29879 C 304.573878 27.700901 305.007322 28.118679 305.273656 28.541679 C 305.555656 28.969901 306.9291 31.29379 309.388767 35.513346 C 311.8641 39.727679 314.229767 43.660013 316.485767 47.305124 C 316.731212 46.500902 318.078545 43.414568 320.527768 38.051346 C 322.97699 32.688123 324.287768 29.831568 324.460101 29.476457 C 324.627212 29.121345 324.914434 28.698345 325.316546 28.197012 C 325.964101 27.356234 326.872768 26.933234 328.042546 26.933234 C 329.222768 26.933234 330.617101 27.283123 332.209879 27.977679 Z M 332.209879 27.977679 " stroke="#000000" stroke-width="4.306928" stroke-opacity="1" stroke-miterlimit="4"/></g><g fill="#ffffff" fill-opacity="1"><g transform="translate(15.786753, 65.083434)"><g><path d="M 2.234375 8.015625 L 2.234375 -24.703125 C 2.234375 -25.566406 2.257812 -26.203125 2.3125 -26.609375 C 2.375 -27.023438 2.535156 -27.492188 2.796875 -28.015625 C 3.328125 -29.023438 4.582031 -29.53125 6.5625 -29.53125 C 8.539062 -29.53125 9.875 -29.273438 10.5625 -28.765625 C 11.25 -28.265625 11.648438 -27.53125 11.765625 -26.5625 C 13.179688 -28.5 15.410156 -29.46875 18.453125 -29.46875 C 21.503906 -29.46875 24.390625 -28.03125 27.109375 -25.15625 C 29.835938 -22.28125 31.203125 -18.9375 31.203125 -15.125 C 31.203125 -11.3125 29.847656 -7.96875 27.140625 -5.09375 C 24.429688 -2.21875 21.546875 -0.78125 18.484375 -0.78125 C 15.421875 -0.78125 13.203125 -1.640625 11.828125 -3.359375 L 11.828125 7.953125 C 11.828125 8.816406 11.796875 9.453125 11.734375 9.859375 C 11.679688 10.273438 11.515625 10.753906 11.234375 11.296875 C 10.953125 11.835938 10.472656 12.21875 9.796875 12.4375 C 9.128906 12.664062 8.21875 12.78125 7.0625 12.78125 C 5.90625 12.78125 4.976562 12.664062 4.28125 12.4375 C 3.59375 12.21875 3.109375 11.84375 2.828125 11.3125 C 2.546875 10.789062 2.375 10.320312 2.3125 9.90625 C 2.257812 9.5 2.234375 8.867188 2.234375 8.015625 Z M 13.328125 -18.375 C 12.472656 -17.363281 12.046875 -16.257812 12.046875 -15.0625 C 12.046875 -13.875 12.484375 -12.785156 13.359375 -11.796875 C 14.242188 -10.804688 15.363281 -10.3125 16.71875 -10.3125 C 18.082031 -10.3125 19.238281 -10.796875 20.1875 -11.765625 C 21.144531 -12.734375 21.625 -13.832031 21.625 -15.0625 C 21.625 -16.300781 21.175781 -17.414062 20.28125 -18.40625 C 19.382812 -19.394531 18.21875 -19.890625 16.78125 -19.890625 C 15.34375 -19.890625 14.191406 -19.382812 13.328125 -18.375 Z M 13.328125 -18.375 "/></g></g></g><g fill="#ffffff" fill-opacity="1"><g transform="translate(48.389561, 65.083434)"><g><path d="M 21.40625 -26.390625 C 21.625 -28.484375 23.097656 -29.53125 25.828125 -29.53125 C 27.285156 -29.53125 28.367188 -29.414062 29.078125 -29.1875 C 29.785156 -28.96875 30.28125 -28.578125 30.5625 -28.015625 C 30.84375 -27.453125 31.007812 -26.957031 31.0625 -26.53125 C 31.125 -26.101562 31.15625 -25.457031 31.15625 -24.59375 L 31.15625 -4.984375 C 31.15625 -4.128906 31.125 -3.484375 31.0625 -3.046875 C 31.007812 -2.617188 30.851562 -2.125 30.59375 -1.5625 C 30.070312 -0.59375 28.789062 -0.109375 26.75 -0.109375 C 24.71875 -0.109375 23.351562 -0.359375 22.65625 -0.859375 C 21.96875 -1.367188 21.566406 -2.109375 21.453125 -3.078125 C 20.078125 -1.097656 17.769531 -0.109375 14.53125 -0.109375 C 11.300781 -0.109375 8.304688 -1.582031 5.546875 -4.53125 C 2.785156 -7.488281 1.40625 -10.914062 1.40625 -14.8125 C 1.40625 -18.71875 2.796875 -22.132812 5.578125 -25.0625 C 8.359375 -28 11.410156 -29.46875 14.734375 -29.46875 C 16.003906 -29.46875 17.160156 -29.242188 18.203125 -28.796875 C 19.253906 -28.347656 19.984375 -27.925781 20.390625 -27.53125 C 20.804688 -27.144531 21.144531 -26.765625 21.40625 -26.390625 Z M 11.203125 -14.734375 C 11.203125 -13.503906 11.6875 -12.394531 12.65625 -11.40625 C 13.632812 -10.414062 14.8125 -9.921875 16.1875 -9.921875 C 17.570312 -9.921875 18.722656 -10.421875 19.640625 -11.421875 C 20.554688 -12.429688 21.015625 -13.539062 21.015625 -14.75 C 21.015625 -15.96875 20.570312 -17.097656 19.6875 -18.140625 C 18.8125 -19.191406 17.632812 -19.71875 16.15625 -19.71875 C 14.6875 -19.71875 13.492188 -19.191406 12.578125 -18.140625 C 11.660156 -17.097656 11.203125 -15.960938 11.203125 -14.734375 Z M 11.203125 -14.734375 "/></g></g></g><g fill="#ffffff" fill-opacity="1"><g transform="translate(81.776636, 65.083434)"><g><path d="M 22.296875 -29.1875 C 23.003906 -28.96875 23.59375 -28.585938 24.0625 -28.046875 C 24.53125 -27.503906 24.765625 -26.632812 24.765625 -25.4375 C 24.765625 -24.238281 24.410156 -22.929688 23.703125 -21.515625 C 22.992188 -20.097656 21.96875 -19.390625 20.625 -19.390625 C 19.945312 -19.390625 19.300781 -19.535156 18.6875 -19.828125 C 18.070312 -20.128906 17.257812 -20.28125 16.25 -20.28125 C 15.238281 -20.28125 14.296875 -19.925781 13.421875 -19.21875 C 12.546875 -18.507812 12.109375 -17.648438 12.109375 -16.640625 L 12.109375 -4.875 C 12.109375 -4.019531 12.078125 -3.375 12.015625 -2.9375 C 11.960938 -2.507812 11.785156 -2.015625 11.484375 -1.453125 C 10.921875 -0.484375 9.460938 0 7.109375 0 C 5.316406 0 4.03125 -0.316406 3.25 -0.953125 C 2.65625 -1.472656 2.316406 -2.273438 2.234375 -3.359375 C 2.234375 -3.734375 2.234375 -4.273438 2.234375 -4.984375 L 2.234375 -24.65625 C 2.234375 -25.507812 2.257812 -26.148438 2.3125 -26.578125 C 2.375 -27.015625 2.535156 -27.492188 2.796875 -28.015625 C 3.328125 -29.023438 4.785156 -29.53125 7.171875 -29.53125 C 9.410156 -29.53125 10.8125 -29.097656 11.375 -28.234375 C 11.78125 -27.640625 11.984375 -27.023438 11.984375 -26.390625 C 12.171875 -26.648438 12.441406 -26.96875 12.796875 -27.34375 C 13.148438 -27.71875 13.90625 -28.222656 15.0625 -28.859375 C 16.226562 -29.492188 17.25 -29.8125 18.125 -29.8125 C 19 -29.8125 19.734375 -29.765625 20.328125 -29.671875 C 20.929688 -29.578125 21.585938 -29.414062 22.296875 -29.1875 Z M 22.296875 -29.1875 "/></g></g></g><g fill="#ffffff" fill-opacity="1"><g transform="translate(107.377121, 65.083434)"><g><path d="M 19.609375 -14.796875 L 27.0625 -8.625 C 28 -7.84375 28.585938 -7.242188 28.828125 -6.828125 C 29.066406 -6.421875 29.1875 -6.03125 29.1875 -5.65625 C 29.1875 -4.757812 28.609375 -3.546875 27.453125 -2.015625 C 26.179688 -0.441406 25.0625 0.34375 24.09375 0.34375 C 23.269531 0.34375 22.128906 -0.195312 20.671875 -1.28125 L 20.109375 -1.6875 C 19.253906 -2.394531 17.929688 -3.632812 16.140625 -5.40625 C 14.347656 -7.175781 12.984375 -8.4375 12.046875 -9.1875 L 12.046875 -4.875 C 12.046875 -4.019531 12.015625 -3.375 11.953125 -2.9375 C 11.898438 -2.507812 11.726562 -2.015625 11.4375 -1.453125 C 10.945312 -0.484375 9.503906 0 7.109375 0 C 4.765625 0 3.328125 -0.503906 2.796875 -1.515625 C 2.535156 -2.078125 2.375 -2.570312 2.3125 -3 C 2.257812 -3.425781 2.234375 -4.070312 2.234375 -4.9375 L 2.234375 -38.5 C 2.234375 -39.351562 2.257812 -39.992188 2.3125 -40.421875 C 2.375 -40.859375 2.535156 -41.351562 2.796875 -41.90625 C 3.328125 -42.914062 4.785156 -43.421875 7.171875 -43.421875 C 8.960938 -43.421875 10.234375 -43.101562 10.984375 -42.46875 C 11.617188 -41.945312 11.953125 -41.125 11.984375 -40 C 12.023438 -39.664062 12.046875 -39.144531 12.046875 -38.4375 L 12.046875 -20.671875 C 12.722656 -21.234375 13.738281 -22.1875 15.09375 -23.53125 C 16.457031 -24.875 17.476562 -25.828125 18.15625 -26.390625 L 18.828125 -26.84375 C 20.128906 -27.851562 21.25 -28.359375 22.1875 -28.359375 C 23.125 -28.359375 24.195312 -27.597656 25.40625 -26.078125 C 26.625 -24.566406 27.234375 -23.378906 27.234375 -22.515625 C 27.234375 -21.660156 26.539062 -20.65625 25.15625 -19.5 Z M 19.609375 -14.796875 "/></g></g></g><g fill="#7ed957" fill-opacity="1"><g transform="translate(137.407738, 65.083434)"><g><path d="M 30.703125 -18.28125 C 30.703125 -15.988281 30.128906 -14.289062 28.984375 -13.1875 C 27.847656 -12.09375 26.59375 -11.546875 25.21875 -11.546875 L 11.9375 -11.546875 C 11.9375 -10.492188 12.550781 -9.613281 13.78125 -8.90625 C 15.007812 -8.195312 16.242188 -7.84375 17.484375 -7.84375 C 19.648438 -7.84375 21.347656 -8.066406 22.578125 -8.515625 L 23.203125 -8.734375 C 24.097656 -9.148438 24.84375 -9.359375 25.4375 -9.359375 C 26.632812 -9.359375 27.660156 -8.515625 28.515625 -6.828125 C 29.003906 -5.828125 29.25 -4.972656 29.25 -4.265625 C 29.25 -0.929688 25.269531 0.734375 17.3125 0.734375 C 14.550781 0.734375 12.09375 0.257812 9.9375 -0.6875 C 7.789062 -1.644531 6.125 -2.910156 4.9375 -4.484375 C 2.582031 -7.503906 1.40625 -10.882812 1.40625 -14.625 C 1.40625 -19.332031 2.925781 -23.09375 5.96875 -25.90625 C 9.007812 -28.726562 12.8125 -30.140625 17.375 -30.140625 C 22.5625 -30.140625 26.367188 -28.3125 28.796875 -24.65625 C 30.066406 -22.707031 30.703125 -20.582031 30.703125 -18.28125 Z M 18.875 -16.640625 C 20.300781 -16.640625 21.015625 -17.238281 21.015625 -18.4375 C 21.015625 -19.289062 20.6875 -19.976562 20.03125 -20.5 C 19.375 -21.03125 18.4375 -21.296875 17.21875 -21.296875 C 16.007812 -21.296875 14.804688 -20.800781 13.609375 -19.8125 C 12.421875 -18.820312 11.828125 -17.765625 11.828125 -16.640625 Z M 18.875 -16.640625 "/></g></g></g><g fill="#7ed957" fill-opacity="1"><g transform="translate(169.506382, 65.083434)"><g><path d="M 21.40625 -26.390625 C 21.625 -28.484375 23.097656 -29.53125 25.828125 -29.53125 C 27.285156 -29.53125 28.367188 -29.414062 29.078125 -29.1875 C 29.785156 -28.96875 30.28125 -28.578125 30.5625 -28.015625 C 30.84375 -27.453125 31.007812 -26.957031 31.0625 -26.53125 C 31.125 -26.101562 31.15625 -25.457031 31.15625 -24.59375 L 31.15625 -4.984375 C 31.15625 -4.128906 31.125 -3.484375 31.0625 -3.046875 C 31.007812 -2.617188 30.851562 -2.125 30.59375 -1.5625 C 30.070312 -0.59375 28.789062 -0.109375 26.75 -0.109375 C 24.71875 -0.109375 23.351562 -0.359375 22.65625 -0.859375 C 21.96875 -1.367188 21.566406 -2.109375 21.453125 -3.078125 C 20.078125 -1.097656 17.769531 -0.109375 14.53125 -0.109375 C 11.300781 -0.109375 8.304688 -1.582031 5.546875 -4.53125 C 2.785156 -7.488281 1.40625 -10.914062 1.40625 -14.8125 C 1.40625 -18.71875 2.796875 -22.132812 5.578125 -25.0625 C 8.359375 -28 11.410156 -29.46875 14.734375 -29.46875 C 16.003906 -29.46875 17.160156 -29.242188 18.203125 -28.796875 C 19.253906 -28.347656 19.984375 -27.925781 20.390625 -27.53125 C 20.804688 -27.144531 21.144531 -26.765625 21.40625 -26.390625 Z M 11.203125 -14.734375 C 11.203125 -13.503906 11.6875 -12.394531 12.65625 -11.40625 C 13.632812 -10.414062 14.8125 -9.921875 16.1875 -9.921875 C 17.570312 -9.921875 18.722656 -10.421875 19.640625 -11.421875 C 20.554688 -12.429688 21.015625 -13.539062 21.015625 -14.75 C 21.015625 -15.96875 20.570312 -17.097656 19.6875 -18.140625 C 18.8125 -19.191406 17.632812 -19.71875 16.15625 -19.71875 C 14.6875 -19.71875 13.492188 -19.191406 12.578125 -18.140625 C 11.660156 -17.097656 11.203125 -15.960938 11.203125 -14.734375 Z M 11.203125 -14.734375 "/></g></g></g><g fill="#7ed957" fill-opacity="1"><g transform="translate(202.893457, 65.083434)"><g><path d="M 2.46875 -2.640625 C 1.757812 -3.085938 1.40625 -3.796875 1.40625 -4.765625 C 1.40625 -5.734375 2.113281 -7.207031 3.53125 -9.1875 C 3.9375 -9.820312 4.597656 -10.140625 5.515625 -10.140625 C 6.429688 -10.140625 7.671875 -9.679688 9.234375 -8.765625 C 10.804688 -7.847656 12.226562 -7.390625 13.5 -7.390625 C 15.78125 -7.390625 16.921875 -7.835938 16.921875 -8.734375 C 16.921875 -9.453125 15.671875 -9.976562 13.171875 -10.3125 C 10.816406 -10.644531 8.476562 -11.519531 6.15625 -12.9375 C 5.070312 -13.613281 4.175781 -14.671875 3.46875 -16.109375 C 2.757812 -17.546875 2.40625 -19.253906 2.40625 -21.234375 C 2.40625 -27.140625 6.457031 -30.09375 14.5625 -30.09375 C 17.21875 -30.09375 19.945312 -29.457031 22.75 -28.1875 C 24.050781 -27.582031 24.703125 -26.832031 24.703125 -25.9375 C 24.703125 -25.039062 24.289062 -23.9375 23.46875 -22.625 C 22.65625 -21.320312 21.816406 -20.671875 20.953125 -20.671875 C 20.503906 -20.671875 19.671875 -20.953125 18.453125 -21.515625 C 17.242188 -22.078125 15.929688 -22.359375 14.515625 -22.359375 C 12.304688 -22.359375 11.203125 -21.945312 11.203125 -21.125 C 11.203125 -20 12.472656 -19.269531 15.015625 -18.9375 C 17.484375 -18.675781 19.875 -17.96875 22.1875 -16.8125 C 23.269531 -16.289062 24.175781 -15.382812 24.90625 -14.09375 C 25.632812 -12.800781 26 -11.179688 26 -9.234375 C 26 -7.296875 25.632812 -5.644531 24.90625 -4.28125 C 24.175781 -2.914062 23.160156 -1.898438 21.859375 -1.234375 C 19.460938 -0.078125 16.460938 0.5 12.859375 0.5 C 9.253906 0.5 5.789062 -0.546875 2.46875 -2.640625 Z M 2.46875 -2.640625 "/></g></g></g><g fill="#7ed957" fill-opacity="1"><g transform="translate(230.286537, 65.083434)"><g><path d="M 29.703125 -29.1875 C 31.898438 -28.21875 33 -27.039062 33 -25.65625 C 33 -24.988281 32.847656 -24.351562 32.546875 -23.75 C 32.253906 -23.15625 32.109375 -22.84375 32.109375 -22.8125 L 17.421875 10.03125 C 17.128906 10.738281 16.878906 11.28125 16.671875 11.65625 C 16.460938 12.03125 16.132812 12.382812 15.6875 12.71875 C 15.238281 13.050781 14.675781 13.21875 14 13.21875 C 13.332031 13.21875 12.34375 12.941406 11.03125 12.390625 C 8.832031 11.410156 7.734375 10.25 7.734375 8.90625 C 7.734375 8.007812 9.523438 3.734375 13.109375 -3.921875 L 1.96875 -22.6875 C 1.21875 -23.925781 0.84375 -24.84375 0.84375 -25.4375 C 0.84375 -26.632812 1.847656 -27.832031 3.859375 -29.03125 C 5.128906 -29.769531 6.117188 -30.140625 6.828125 -30.140625 C 7.546875 -30.140625 8.128906 -29.988281 8.578125 -29.6875 C 9.023438 -29.394531 9.347656 -29.085938 9.546875 -28.765625 C 9.753906 -28.453125 10.78125 -26.71875 12.625 -23.5625 C 14.476562 -20.40625 16.25 -17.460938 17.9375 -14.734375 C 18.113281 -15.328125 19.117188 -17.628906 20.953125 -21.640625 C 22.785156 -25.660156 23.765625 -27.800781 23.890625 -28.0625 C 24.023438 -28.332031 24.242188 -28.65625 24.546875 -29.03125 C 25.023438 -29.664062 25.703125 -29.984375 26.578125 -29.984375 C 27.460938 -29.984375 28.503906 -29.71875 29.703125 -29.1875 Z M 29.703125 -29.1875 "/></g></g></g><g clip-path="url(#2fa762a31d)"><path stroke-linecap="butt" transform="matrix(0.748005, 0, 0, 0.748005, 11.485722, 14.96708)" fill="none" stroke-linejoin="miter" d="M 8.750643 77.714125 L 8.750643 33.97279 C 8.750643 32.818679 8.787199 31.962234 8.86031 31.413901 C 8.933421 30.865568 9.147532 30.244123 9.497421 29.549568 C 10.191977 28.197012 11.863088 27.518123 14.510755 27.518123 C 17.153199 27.518123 18.939199 27.86279 19.868755 28.541679 C 20.793088 29.215345 21.330977 30.197123 21.4772 31.487012 C 23.378088 28.902012 26.359977 27.612123 30.417644 27.612123 C 34.490978 27.612123 38.3502 29.533901 41.995311 33.372234 C 45.640423 37.210568 47.462978 41.68079 47.462978 46.777679 C 47.462978 51.869346 45.650867 56.344791 42.031867 60.198791 C 38.423311 64.037125 34.569311 65.958903 30.475089 65.958903 C 26.375644 65.958903 23.4042 64.804791 21.550311 62.501791 L 21.550311 77.641014 C 21.550311 78.789903 21.513755 79.635903 21.440644 80.184236 C 21.367533 80.73257 21.142977 81.364459 20.761755 82.085125 C 20.396199 82.816237 19.764311 83.328014 18.860866 83.620459 C 17.957422 83.92857 16.735422 84.080014 15.184421 84.080014 C 13.638644 84.080014 12.400977 83.92857 11.471421 83.620459 C 10.557532 83.328014 9.915199 82.831903 9.533977 82.121681 C 9.157977 81.427125 8.933421 80.805681 8.86031 80.257348 C 8.787199 79.709014 8.750643 78.863014 8.750643 77.714125 Z M 23.576533 42.443235 C 22.432866 43.780124 21.858422 45.252791 21.858422 46.850791 C 21.858422 48.443568 22.443311 49.911013 23.613088 51.237457 C 24.788089 52.553458 26.281644 53.211458 28.093755 53.211458 C 29.926755 53.211458 31.472533 52.563902 32.741533 51.274013 C 34.020978 49.968457 34.658089 48.495791 34.658089 46.850791 C 34.658089 45.200568 34.057533 43.722679 32.8512 42.406679 C 31.655311 41.075013 30.093867 40.41179 28.166866 40.41179 C 26.255533 40.41179 24.725422 41.090679 23.576533 42.443235 Z M 77.955535 31.727234 C 78.24798 28.922901 80.216758 27.518123 83.861869 27.518123 C 85.809758 27.518123 87.261536 27.67479 88.21198 27.977679 C 89.162425 28.280568 89.820425 28.808012 90.18598 29.549568 C 90.567202 30.291123 90.791758 30.959568 90.864869 31.544457 C 90.93798 32.113679 90.974536 32.975346 90.974536 34.119012 L 90.974536 60.324125 C 90.974536 61.483458 90.93798 62.350347 90.864869 62.924791 C 90.791758 63.494014 90.577647 64.152014 90.222536 64.898791 C 89.52798 66.199125 87.820313 66.851903 85.104758 66.851903 C 82.38398 66.851903 80.561424 66.51768 79.637091 65.849236 C 78.707535 65.165125 78.174869 64.178125 78.028646 62.883014 C 76.174757 65.53068 73.088424 66.851903 68.774868 66.851903 C 64.461312 66.851903 60.450646 64.883125 56.742868 60.945569 C 53.050756 56.997569 51.20209 52.412458 51.20209 47.195457 C 51.20209 41.978457 53.061201 37.414235 56.779423 33.497568 C 60.50809 29.575679 64.591868 27.612123 69.030757 27.612123 C 70.738424 27.612123 72.284202 27.90979 73.673313 28.505123 C 75.078091 29.105679 76.054646 29.664457 76.60298 30.191901 C 77.151313 30.714123 77.600424 31.225901 77.955535 31.727234 Z M 64.31509 47.305124 C 64.31509 48.950124 64.957424 50.438457 66.252535 51.770124 C 67.552868 53.086124 69.129979 53.744124 70.968202 53.744124 C 72.822091 53.744124 74.357424 53.070458 75.579424 51.733569 C 76.806646 50.375791 77.422869 48.89268 77.422869 47.268568 C 77.422869 45.649679 76.832757 44.135235 75.652535 42.735679 C 74.477535 41.330901 72.905646 40.631124 70.931646 40.631124 C 68.96809 40.631124 67.37009 41.330901 66.142868 42.735679 C 64.920868 44.135235 64.31509 45.660124 64.31509 47.305124 Z M 123.775315 27.977679 C 124.730982 28.280568 125.514315 28.792345 126.135759 29.513012 C 126.757204 30.233679 127.070537 31.393012 127.070537 32.98579 C 127.070537 34.58379 126.595315 36.333235 125.644871 38.234124 C 124.70487 40.140235 123.331426 41.090679 121.529759 41.090679 C 120.636759 41.090679 119.780315 40.887013 118.949981 40.484901 C 118.119648 40.08279 117.028203 39.879124 115.675648 39.879124 C 114.333537 39.879124 113.080203 40.359568 111.910425 41.310013 C 110.740648 42.260457 110.155759 43.404124 110.155759 44.746235 L 110.155759 60.491236 C 110.155759 61.634902 110.113981 62.496569 110.025203 63.071014 C 109.952092 63.640236 109.722314 64.303458 109.330648 65.06068 C 108.573425 66.355791 106.625536 66.998125 103.481758 66.998125 C 101.089981 66.998125 99.371869 66.575125 98.322203 65.71868 C 97.51798 65.024125 97.068869 63.953569 96.969647 62.501791 C 96.969647 62.000458 96.969647 61.274569 96.969647 60.324125 L 96.969647 34.045901 C 96.969647 32.902234 97.006203 32.040568 97.079314 31.471346 C 97.152425 30.886457 97.366536 30.244123 97.721647 29.549568 C 98.416203 28.197012 100.358869 27.518123 103.55487 27.518123 C 106.552425 27.518123 108.421981 28.09779 109.168759 29.257123 C 109.727537 30.050901 110.009537 30.87079 110.009537 31.727234 C 110.249759 31.372123 110.610092 30.943901 111.085314 30.44779 C 111.560537 29.946457 112.573648 29.278012 114.124648 28.432012 C 115.670426 27.58079 117.028203 27.152568 118.197981 27.152568 C 119.372981 27.152568 120.349537 27.215234 121.143315 27.335345 C 121.947537 27.460679 122.82487 27.67479 123.775315 27.977679 Z M 154.419316 47.232013 L 164.36765 55.462235 C 165.620983 56.511902 166.409539 57.310902 166.722872 57.859236 C 167.051872 58.407569 167.218983 58.929791 167.218983 59.431124 C 167.218983 60.637458 166.446094 62.261569 164.895094 64.313902 C 163.203094 66.408014 161.704316 67.45768 160.398761 67.45768 C 159.302094 67.45768 157.777205 66.731791 155.824094 65.280014 L 155.077316 64.752569 C 153.928427 63.802125 152.158094 62.141458 149.755872 59.775791 C 147.364094 57.39968 145.551982 55.712902 144.303871 54.710235 L 144.303871 60.491236 C 144.303871 61.634902 144.262094 62.496569 144.178538 63.071014 C 144.105427 63.640236 143.875649 64.303458 143.483982 65.06068 C 142.825982 66.355791 140.898982 66.998125 137.702982 66.998125 C 134.559204 66.998125 132.637426 66.324458 131.942871 64.971902 C 131.592982 64.225125 131.378871 63.567125 131.30576 62.997902 C 131.232649 62.423458 131.196093 61.561791 131.196093 60.418125 L 131.196093 15.543567 C 131.196093 14.394678 131.232649 13.538234 131.30576 12.963789 C 131.378871 12.389345 131.592982 11.726122 131.942871 10.9689 C 132.637426 9.632011 134.585315 8.958345 137.776093 8.958345 C 140.178316 8.958345 141.88076 9.381345 142.878205 10.222122 C 143.718982 10.927122 144.173316 12.023789 144.23076 13.512123 C 144.282982 13.966456 144.303871 14.666234 144.303871 15.616678 L 144.303871 39.367346 C 145.196871 38.615346 146.549427 37.341124 148.36676 35.549901 C 150.194538 33.743012 151.557538 32.46879 152.460983 31.727234 L 153.359205 31.121457 C 155.113872 29.768901 156.61265 29.095234 157.855539 29.095234 C 159.098427 29.095234 160.534539 30.103123 162.153428 32.129346 C 163.787983 34.150346 164.60265 35.743123 164.60265 36.902457 C 164.60265 38.046124 163.678317 39.393457 161.824428 40.944457 Z M 154.419316 47.232013 " stroke="#000000" stroke-width="4.306928" stroke-opacity="1" stroke-miterlimit="4"/></g><g clip-path="url(#45e6bcfbb3)"><path stroke-linecap="butt" transform="matrix(0.748005, 0, 0, 0.748005, 11.485722, 14.96708)" fill="none" stroke-linejoin="miter" d="M 209.393652 42.552902 C 209.393652 45.623568 208.63643 47.895235 207.111541 49.373124 C 205.586652 50.835346 203.899874 51.566457 202.045985 51.566457 L 184.290429 51.566457 C 184.290429 52.966013 185.110317 54.146235 186.755318 55.09668 C 188.415984 56.047124 190.066207 56.522347 191.711207 56.522347 C 194.614762 56.522347 196.886429 56.219458 198.536651 55.608458 L 199.35654 55.316013 C 200.552429 54.76768 201.549874 54.490902 202.354096 54.490902 C 203.952096 54.490902 205.325541 55.61368 206.469207 57.859236 C 207.116763 59.211791 207.440541 60.36068 207.440541 61.311125 C 207.440541 65.750014 202.124318 67.969458 191.491873 67.969458 C 187.799762 67.969458 184.514984 67.337569 181.63754 66.068569 C 178.770539 64.789125 176.535428 63.097125 174.926984 61.003013 C 171.783206 56.966235 170.211317 52.449013 170.211317 47.451346 C 170.211317 41.16379 172.242761 36.13479 176.316095 32.364346 C 180.389428 28.588679 185.470651 26.698234 191.564984 26.698234 C 198.505318 26.698234 203.591763 29.147457 206.834763 34.045901 C 208.54243 36.646568 209.393652 39.477013 209.393652 42.552902 Z M 193.580762 44.746235 C 195.481651 44.746235 196.432096 43.947235 196.432096 42.349235 C 196.432096 41.205568 195.993429 40.286457 195.116096 39.586679 C 194.249207 38.892124 193.001096 38.547457 191.36654 38.547457 C 189.742429 38.547457 188.133984 39.210679 186.535984 40.542346 C 184.943206 41.858346 184.144206 43.257902 184.144206 44.746235 Z M 239.875764 31.727234 C 240.168209 28.922901 242.136986 27.518123 245.782098 27.518123 C 247.729987 27.518123 249.181765 27.67479 250.132209 27.977679 C 251.082654 28.280568 251.740654 28.808012 252.106209 29.549568 C 252.487431 30.291123 252.711987 30.959568 252.785098 31.544457 C 252.858209 32.113679 252.894765 32.975346 252.894765 34.119012 L 252.894765 60.324125 C 252.894765 61.483458 252.858209 62.350347 252.785098 62.924791 C 252.711987 63.494014 252.497876 64.152014 252.142765 64.898791 C 251.448209 66.199125 249.740542 66.851903 247.024987 66.851903 C 244.304209 66.851903 242.481653 66.51768 241.55732 65.849236 C 240.627764 65.165125 240.095098 64.178125 239.948875 62.883014 C 238.094986 65.53068 235.008653 66.851903 230.695097 66.851903 C 226.376319 66.851903 222.365652 64.883125 218.663097 60.945569 C 214.965763 56.997569 213.122319 52.412458 213.122319 47.195457 C 213.122319 41.978457 214.98143 37.414235 218.699652 33.497568 C 222.428319 29.575679 226.512097 27.612123 230.950986 27.612123 C 232.658653 27.612123 234.204431 27.90979 235.593542 28.505123 C 236.99832 29.105679 237.969653 29.664457 238.523209 30.191901 C 239.071542 30.714123 239.520653 31.225901 239.875764 31.727234 Z M 226.230097 47.305124 C 226.230097 48.950124 226.877653 50.438457 228.172764 51.770124 C 229.473097 53.086124 231.050208 53.744124 232.888431 53.744124 C 234.74232 53.744124 236.277653 53.070458 237.494431 51.733569 C 238.726875 50.375791 239.343097 48.89268 239.343097 47.268568 C 239.343097 45.649679 238.752986 44.135235 237.567542 42.735679 C 236.397764 41.330901 234.825875 40.631124 232.851875 40.631124 C 230.888319 40.631124 229.290319 41.330901 228.063097 42.735679 C 226.841097 44.135235 226.230097 45.660124 226.230097 47.305124 Z M 259.182321 63.473125 C 258.231876 62.872569 257.756654 61.927347 257.756654 60.637458 C 257.756654 59.331902 258.707098 57.357902 260.607987 54.710235 C 261.156321 53.869458 262.038876 53.45168 263.260876 53.45168 C 264.493321 53.45168 266.153987 54.057458 268.253321 55.279458 C 270.347432 56.496235 272.243099 57.107235 273.940321 57.107235 C 276.984877 57.107235 278.509766 56.511902 278.509766 55.316013 C 278.509766 54.365569 276.838655 53.665791 273.501654 53.211458 C 270.352654 52.762346 267.234988 51.592569 264.13821 49.702124 C 262.686432 48.79868 261.485321 47.38868 260.534876 45.477346 C 259.584432 43.550346 259.109209 41.263013 259.109209 38.620568 C 259.109209 30.719345 264.529876 26.771345 275.365988 26.771345 C 278.911877 26.771345 282.556988 27.622568 286.301322 29.330234 C 288.045544 30.124012 288.917655 31.121457 288.917655 32.32779 C 288.917655 33.523679 288.369322 35.001568 287.267433 36.756235 C 286.170766 38.500457 285.05321 39.367346 283.904322 39.367346 C 283.308988 39.367346 282.196655 38.996568 280.577766 38.255012 C 278.953655 37.49779 277.193766 37.12179 275.292877 37.12179 C 272.342321 37.12179 270.869654 37.670124 270.869654 38.76679 C 270.869654 40.265568 272.566877 41.242124 275.966543 41.691235 C 279.261766 42.035902 282.452544 42.975902 285.549322 44.526902 C 287.001099 45.231902 288.212655 46.448679 289.189211 48.166791 C 290.165766 49.884902 290.651433 52.04168 290.651433 54.637124 C 290.651433 57.237791 290.165766 59.446791 289.189211 61.274569 C 288.212655 63.091902 286.849655 64.44968 285.094988 65.353125 C 281.898988 66.904125 277.893544 67.677014 273.078654 67.677014 C 268.263765 67.677014 263.631654 66.272236 259.182321 63.473125 Z M 332.209879 27.977679 C 335.160435 29.267568 336.638324 30.844679 336.638324 32.693346 C 336.638324 33.59679 336.434657 34.453235 336.032546 35.257457 C 335.630435 36.046012 335.43199 36.469012 335.43199 36.516012 L 315.806878 80.40357 C 315.404767 81.354014 315.065323 82.079903 314.783323 82.581237 C 314.516989 83.077348 314.083545 83.55257 313.488212 84.006903 C 312.887656 84.456014 312.140878 84.68057 311.237434 84.68057 C 310.333989 84.68057 309.012767 84.30457 307.268545 83.547348 C 304.317989 82.257459 302.845322 80.706459 302.845322 78.904792 C 302.845322 77.708903 305.2371 71.990569 310.0311 61.749791 L 295.126878 36.662235 C 294.129433 35.017235 293.6281 33.790012 293.6281 32.98579 C 293.6281 31.393012 294.980655 29.795012 297.685767 28.197012 C 299.382989 27.199568 300.704211 26.698234 301.654656 26.698234 C 302.6051 26.698234 303.377989 26.896679 303.978545 27.29879 C 304.573878 27.700901 305.007322 28.118679 305.273656 28.541679 C 305.555656 28.969901 306.9291 31.29379 309.388767 35.513346 C 311.8641 39.727679 314.229767 43.660013 316.485767 47.305124 C 316.731212 46.500902 318.078545 43.414568 320.527768 38.051346 C 322.97699 32.688123 324.287768 29.831568 324.460101 29.476457 C 324.627212 29.121345 324.914434 28.698345 325.316546 28.197012 C 325.964101 27.356234 326.872768 26.933234 328.042546 26.933234 C 329.222768 26.933234 330.617101 27.283123 332.209879 27.977679 Z M 332.209879 27.977679 " stroke="#000000" stroke-width="4.306928" stroke-opacity="1" stroke-miterlimit="4"/></g><g fill="#ffffff" fill-opacity="1"><g transform="translate(15.786753, 65.083434)"><g><path d="M 2.234375 8.015625 L 2.234375 -24.703125 C 2.234375 -25.566406 2.257812 -26.203125 2.3125 -26.609375 C 2.375 -27.023438 2.535156 -27.492188 2.796875 -28.015625 C 3.328125 -29.023438 4.582031 -29.53125 6.5625 -29.53125 C 8.539062 -29.53125 9.875 -29.273438 10.5625 -28.765625 C 11.25 -28.265625 11.648438 -27.53125 11.765625 -26.5625 C 13.179688 -28.5 15.410156 -29.46875 18.453125 -29.46875 C 21.503906 -29.46875 24.390625 -28.03125 27.109375 -25.15625 C 29.835938 -22.28125 31.203125 -18.9375 31.203125 -15.125 C 31.203125 -11.3125 29.847656 -7.96875 27.140625 -5.09375 C 24.429688 -2.21875 21.546875 -0.78125 18.484375 -0.78125 C 15.421875 -0.78125 13.203125 -1.640625 11.828125 -3.359375 L 11.828125 7.953125 C 11.828125 8.816406 11.796875 9.453125 11.734375 9.859375 C 11.679688 10.273438 11.515625 10.753906 11.234375 11.296875 C 10.953125 11.835938 10.472656 12.21875 9.796875 12.4375 C 9.128906 12.664062 8.21875 12.78125 7.0625 12.78125 C 5.90625 12.78125 4.976562 12.664062 4.28125 12.4375 C 3.59375 12.21875 3.109375 11.84375 2.828125 11.3125 C 2.546875 10.789062 2.375 10.320312 2.3125 9.90625 C 2.257812 9.5 2.234375 8.867188 2.234375 8.015625 Z M 13.328125 -18.375 C 12.472656 -17.363281 12.046875 -16.257812 12.046875 -15.0625 C 12.046875 -13.875 12.484375 -12.785156 13.359375 -11.796875 C 14.242188 -10.804688 15.363281 -10.3125 16.71875 -10.3125 C 18.082031 -10.3125 19.238281 -10.796875 20.1875 -11.765625 C 21.144531 -12.734375 21.625 -13.832031 21.625 -15.0625 C 21.625 -16.300781 21.175781 -17.414062 20.28125 -18.40625 C 19.382812 -19.394531 18.21875 -19.890625 16.78125 -19.890625 C 15.34375 -19.890625 14.191406 -19.382812 13.328125 -18.375 Z M 13.328125 -18.375 "/></g></g></g><g fill="#ffffff" fill-opacity="1"><g transform="translate(48.389561, 65.083434)"><g><path d="M 21.40625 -26.390625 C 21.625 -28.484375 23.097656 -29.53125 25.828125 -29.53125 C 27.285156 -29.53125 28.367188 -29.414062 29.078125 -29.1875 C 29.785156 -28.96875 30.28125 -28.578125 30.5625 -28.015625 C 30.84375 -27.453125 31.007812 -26.957031 31.0625 -26.53125 C 31.125 -26.101562 31.15625 -25.457031 31.15625 -24.59375 L 31.15625 -4.984375 C 31.15625 -4.128906 31.125 -3.484375 31.0625 -3.046875 C 31.007812 -2.617188 30.851562 -2.125 30.59375 -1.5625 C 30.070312 -0.59375 28.789062 -0.109375 26.75 -0.109375 C 24.71875 -0.109375 23.351562 -0.359375 22.65625 -0.859375 C 21.96875 -1.367188 21.566406 -2.109375 21.453125 -3.078125 C 20.078125 -1.097656 17.769531 -0.109375 14.53125 -0.109375 C 11.300781 -0.109375 8.304688 -1.582031 5.546875 -4.53125 C 2.785156 -7.488281 1.40625 -10.914062 1.40625 -14.8125 C 1.40625 -18.71875 2.796875 -22.132812 5.578125 -25.0625 C 8.359375 -28 11.410156 -29.46875 14.734375 -29.46875 C 16.003906 -29.46875 17.160156 -29.242188 18.203125 -28.796875 C 19.253906 -28.347656 19.984375 -27.925781 20.390625 -27.53125 C 20.804688 -27.144531 21.144531 -26.765625 21.40625 -26.390625 Z M 11.203125 -14.734375 C 11.203125 -13.503906 11.6875 -12.394531 12.65625 -11.40625 C 13.632812 -10.414062 14.8125 -9.921875 16.1875 -9.921875 C 17.570312 -9.921875 18.722656 -10.421875 19.640625 -11.421875 C 20.554688 -12.429688 21.015625 -13.539062 21.015625 -14.75 C 21.015625 -15.96875 20.570312 -17.097656 19.6875 -18.140625 C 18.8125 -19.191406 17.632812 -19.71875 16.15625 -19.71875 C 14.6875 -19.71875 13.492188 -19.191406 12.578125 -18.140625 C 11.660156 -17.097656 11.203125 -15.960938 11.203125 -14.734375 Z M 11.203125 -14.734375 "/></g></g></g><g fill="#ffffff" fill-opacity="1"><g transform="translate(81.776636, 65.083434)"><g><path d="M 22.296875 -29.1875 C 23.003906 -28.96875 23.59375 -28.585938 24.0625 -28.046875 C 24.53125 -27.503906 24.765625 -26.632812 24.765625 -25.4375 C 24.765625 -24.238281 24.410156 -22.929688 23.703125 -21.515625 C 22.992188 -20.097656 21.96875 -19.390625 20.625 -19.390625 C 19.945312 -19.390625 19.300781 -19.535156 18.6875 -19.828125 C 18.070312 -20.128906 17.257812 -20.28125 16.25 -20.28125 C 15.238281 -20.28125 14.296875 -19.925781 13.421875 -19.21875 C 12.546875 -18.507812 12.109375 -17.648438 12.109375 -16.640625 L 12.109375 -4.875 C 12.109375 -4.019531 12.078125 -3.375 12.015625 -2.9375 C 11.960938 -2.507812 11.785156 -2.015625 11.484375 -1.453125 C 10.921875 -0.484375 9.460938 0 7.109375 0 C 5.316406 0 4.03125 -0.316406 3.25 -0.953125 C 2.65625 -1.472656 2.316406 -2.273438 2.234375 -3.359375 C 2.234375 -3.734375 2.234375 -4.273438 2.234375 -4.984375 L 2.234375 -24.65625 C 2.234375 -25.507812 2.257812 -26.148438 2.3125 -26.578125 C 2.375 -27.015625 2.535156 -27.492188 2.796875 -28.015625 C 3.328125 -29.023438 4.785156 -29.53125 7.171875 -29.53125 C 9.410156 -29.53125 10.8125 -29.097656 11.375 -28.234375 C 11.78125 -27.640625 11.984375 -27.023438 11.984375 -26.390625 C 12.171875 -26.648438 12.441406 -26.96875 12.796875 -27.34375 C 13.148438 -27.71875 13.90625 -28.222656 15.0625 -28.859375 C 16.226562 -29.492188 17.25 -29.8125 18.125 -29.8125 C 19 -29.8125 19.734375 -29.765625 20.328125 -29.671875 C 20.929688 -29.578125 21.585938 -29.414062 22.296875 -29.1875 Z M 22.296875 -29.1875 "/></g></g></g><g fill="#ffffff" fill-opacity="1"><g transform="translate(107.377121, 65.083434)"><g><path d="M 19.609375 -14.796875 L 27.0625 -8.625 C 28 -7.84375 28.585938 -7.242188 28.828125 -6.828125 C 29.066406 -6.421875 29.1875 -6.03125 29.1875 -5.65625 C 29.1875 -4.757812 28.609375 -3.546875 27.453125 -2.015625 C 26.179688 -0.441406 25.0625 0.34375 24.09375 0.34375 C 23.269531 0.34375 22.128906 -0.195312 20.671875 -1.28125 L 20.109375 -1.6875 C 19.253906 -2.394531 17.929688 -3.632812 16.140625 -5.40625 C 14.347656 -7.175781 12.984375 -8.4375 12.046875 -9.1875 L 12.046875 -4.875 C 12.046875 -4.019531 12.015625 -3.375 11.953125 -2.9375 C 11.898438 -2.507812 11.726562 -2.015625 11.4375 -1.453125 C 10.945312 -0.484375 9.503906 0 7.109375 0 C 4.765625 0 3.328125 -0.503906 2.796875 -1.515625 C 2.535156 -2.078125 2.375 -2.570312 2.3125 -3 C 2.257812 -3.425781 2.234375 -4.070312 2.234375 -4.9375 L 2.234375 -38.5 C 2.234375 -39.351562 2.257812 -39.992188 2.3125 -40.421875 C 2.375 -40.859375 2.535156 -41.351562 2.796875 -41.90625 C 3.328125 -42.914062 4.785156 -43.421875 7.171875 -43.421875 C 8.960938 -43.421875 10.234375 -43.101562 10.984375 -42.46875 C 11.617188 -41.945312 11.953125 -41.125 11.984375 -40 C 12.023438 -39.664062 12.046875 -39.144531 12.046875 -38.4375 L 12.046875 -20.671875 C 12.722656 -21.234375 13.738281 -22.1875 15.09375 -23.53125 C 16.457031 -24.875 17.476562 -25.828125 18.15625 -26.390625 L 18.828125 -26.84375 C 20.128906 -27.851562 21.25 -28.359375 22.1875 -28.359375 C 23.125 -28.359375 24.195312 -27.597656 25.40625 -26.078125 C 26.625 -24.566406 27.234375 -23.378906 27.234375 -22.515625 C 27.234375 -21.660156 26.539062 -20.65625 25.15625 -19.5 Z M 19.609375 -14.796875 "/></g></g></g><g fill="#7ed957" fill-opacity="1"><g transform="translate(137.407738, 65.083434)"><g><path d="M 30.703125 -18.28125 C 30.703125 -15.988281 30.128906 -14.289062 28.984375 -13.1875 C 27.847656 -12.09375 26.59375 -11.546875 25.21875 -11.546875 L 11.9375 -11.546875 C 11.9375 -10.492188 12.550781 -9.613281 13.78125 -8.90625 C 15.007812 -8.195312 16.242188 -7.84375 17.484375 -7.84375 C 19.648438 -7.84375 21.347656 -8.066406 22.578125 -8.515625 L 23.203125 -8.734375 C 24.097656 -9.148438 24.84375 -9.359375 25.4375 -9.359375 C 26.632812 -9.359375 27.660156 -8.515625 28.515625 -6.828125 C 29.003906 -5.828125 29.25 -4.972656 29.25 -4.265625 C 29.25 -0.929688 25.269531 0.734375 17.3125 0.734375 C 14.550781 0.734375 12.09375 0.257812 9.9375 -0.6875 C 7.789062 -1.644531 6.125 -2.910156 4.9375 -4.484375 C 2.582031 -7.503906 1.40625 -10.882812 1.40625 -14.625 C 1.40625 -19.332031 2.925781 -23.09375 5.96875 -25.90625 C 9.007812 -28.726562 12.8125 -30.140625 17.375 -30.140625 C 22.5625 -30.140625 26.367188 -28.3125 28.796875 -24.65625 C 30.066406 -22.707031 30.703125 -20.582031 30.703125 -18.28125 Z M 18.875 -16.640625 C 20.300781 -16.640625 21.015625 -17.238281 21.015625 -18.4375 C 21.015625 -19.289062 20.6875 -19.976562 20.03125 -20.5 C 19.375 -21.03125 18.4375 -21.296875 17.21875 -21.296875 C 16.007812 -21.296875 14.804688 -20.800781 13.609375 -19.8125 C 12.421875 -18.820312 11.828125 -17.765625 11.828125 -16.640625 Z M 18.875 -16.640625 "/></g></g></g><g fill="#7ed957" fill-opacity="1"><g transform="translate(169.506382, 65.083434)"><g><path d="M 21.40625 -26.390625 C 21.625 -28.484375 23.097656 -29.53125 25.828125 -29.53125 C 27.285156 -29.53125 28.367188 -29.414062 29.078125 -29.1875 C 29.785156 -28.96875 30.28125 -28.578125 30.5625 -28.015625 C 30.84375 -27.453125 31.007812 -26.957031 31.0625 -26.53125 C 31.125 -26.101562 31.15625 -25.457031 31.15625 -24.59375 L 31.15625 -4.984375 C 31.15625 -4.128906 31.125 -3.484375 31.0625 -3.046875 C 31.007812 -2.617188 30.851562 -2.125 30.59375 -1.5625 C 30.070312 -0.59375 28.789062 -0.109375 26.75 -0.109375 C 24.71875 -0.109375 23.351562 -0.359375 22.65625 -0.859375 C 21.96875 -1.367188 21.566406 -2.109375 21.453125 -3.078125 C 20.078125 -1.097656 17.769531 -0.109375 14.53125 -0.109375 C 11.300781 -0.109375 8.304688 -1.582031 5.546875 -4.53125 C 2.785156 -7.488281 1.40625 -10.914062 1.40625 -14.8125 C 1.40625 -18.71875 2.796875 -22.132812 5.578125 -25.0625 C 8.359375 -28 11.410156 -29.46875 14.734375 -29.46875 C 16.003906 -29.46875 17.160156 -29.242188 18.203125 -28.796875 C 19.253906 -28.347656 19.984375 -27.925781 20.390625 -27.53125 C 20.804688 -27.144531 21.144531 -26.765625 21.40625 -26.390625 Z M 11.203125 -14.734375 C 11.203125 -13.503906 11.6875 -12.394531 12.65625 -11.40625 C 13.632812 -10.414062 14.8125 -9.921875 16.1875 -9.921875 C 17.570312 -9.921875 18.722656 -10.421875 19.640625 -11.421875 C 20.554688 -12.429688 21.015625 -13.539062 21.015625 -14.75 C 21.015625 -15.96875 20.570312 -17.097656 19.6875 -18.140625 C 18.8125 -19.191406 17.632812 -19.71875 16.15625 -19.71875 C 14.6875 -19.71875 13.492188 -19.191406 12.578125 -18.140625 C 11.660156 -17.097656 11.203125 -15.960938 11.203125 -14.734375 Z M 11.203125 -14.734375 "/></g></g></g><g fill="#7ed957" fill-opacity="1"><g transform="translate(202.893457, 65.083434)"><g><path d="M 2.46875 -2.640625 C 1.757812 -3.085938 1.40625 -3.796875 1.40625 -4.765625 C 1.40625 -5.734375 2.113281 -7.207031 3.53125 -9.1875 C 3.9375 -9.820312 4.597656 -10.140625 5.515625 -10.140625 C 6.429688 -10.140625 7.671875 -9.679688 9.234375 -8.765625 C 10.804688 -7.847656 12.226562 -7.390625 13.5 -7.390625 C 15.78125 -7.390625 16.921875 -7.835938 16.921875 -8.734375 C 16.921875 -9.453125 15.671875 -9.976562 13.171875 -10.3125 C 10.816406 -10.644531 8.476562 -11.519531 6.15625 -12.9375 C 5.070312 -13.613281 4.175781 -14.671875 3.46875 -16.109375 C 2.757812 -17.546875 2.40625 -19.253906 2.40625 -21.234375 C 2.40625 -27.140625 6.457031 -30.09375 14.5625 -30.09375 C 17.21875 -30.09375 19.945312 -29.457031 22.75 -28.1875 C 24.050781 -27.582031 24.703125 -26.832031 24.703125 -25.9375 C 24.703125 -25.039062 24.289062 -23.9375 23.46875 -22.625 C 22.65625 -21.320312 21.816406 -20.671875 20.953125 -20.671875 C 20.503906 -20.671875 19.671875 -20.953125 18.453125 -21.515625 C 17.242188 -22.078125 15.929688 -22.359375 14.515625 -22.359375 C 12.304688 -22.359375 11.203125 -21.945312 11.203125 -21.125 C 11.203125 -20 12.472656 -19.269531 15.015625 -18.9375 C 17.484375 -18.675781 19.875 -17.96875 22.1875 -16.8125 C 23.269531 -16.289062 24.175781 -15.382812 24.90625 -14.09375 C 25.632812 -12.800781 26 -11.179688 26 -9.234375 C 26 -7.296875 25.632812 -5.644531 24.90625 -4.28125 C 24.175781 -2.914062 23.160156 -1.898438 21.859375 -1.234375 C 19.460938 -0.078125 16.460938 0.5 12.859375 0.5 C 9.253906 0.5 5.789062 -0.546875 2.46875 -2.640625 Z M 2.46875 -2.640625 "/></g></g></g><g fill="#7ed957" fill-opacity="1"><g transform="translate(230.286537, 65.083434)"><g><path d="M 29.703125 -29.1875 C 31.898438 -28.21875 33 -27.039062 33 -25.65625 C 33 -24.988281 32.847656 -24.351562 32.546875 -23.75 C 32.253906 -23.15625 32.109375 -22.84375 32.109375 -22.8125 L 17.421875 10.03125 C 17.128906 10.738281 16.878906 11.28125 16.671875 11.65625 C 16.460938 12.03125 16.132812 12.382812 15.6875 12.71875 C 15.238281 13.050781 14.675781 13.21875 14 13.21875 C 13.332031 13.21875 12.34375 12.941406 11.03125 12.390625 C 8.832031 11.410156 7.734375 10.25 7.734375 8.90625 C 7.734375 8.007812 9.523438 3.734375 13.109375 -3.921875 L 1.96875 -22.6875 C 1.21875 -23.925781 0.84375 -24.84375 0.84375 -25.4375 C 0.84375 -26.632812 1.847656 -27.832031 3.859375 -29.03125 C 5.128906 -29.769531 6.117188 -30.140625 6.828125 -30.140625 C 7.546875 -30.140625 8.128906 -29.988281 8.578125 -29.6875 C 9.023438 -29.394531 9.347656 -29.085938 9.546875 -28.765625 C 9.753906 -28.453125 10.78125 -26.71875 12.625 -23.5625 C 14.476562 -20.40625 16.25 -17.460938 17.9375 -14.734375 C 18.113281 -15.328125 19.117188 -17.628906 20.953125 -21.640625 C 22.785156 -25.660156 23.765625 -27.800781 23.890625 -28.0625 C 24.023438 -28.332031 24.242188 -28.65625 24.546875 -29.03125 C 25.023438 -29.664062 25.703125 -29.984375 26.578125 -29.984375 C 27.460938 -29.984375 28.503906 -29.71875 29.703125 -29.1875 Z M 29.703125 -29.1875 "/></g></g></g></svg>