<svg xmlns="http://www.w3.org/2000/svg" xmlns:xlink="http://www.w3.org/1999/xlink" width="375" zoomAndPan="magnify" viewBox="0 0 281.25 89.999999" height="120" preserveAspectRatio="xMidYMid meet" version="1.0"><defs><g/></defs><g fill="#ffffff" fill-opacity="1"><g transform="translate(15.786753, 65.083434)"><g><path d="M 2.234375 8.015625 L 2.234375 -24.703125 C 2.234375 -25.566406 2.257812 -26.203125 2.3125 -26.609375 C 2.375 -27.023438 2.535156 -27.492188 2.796875 -28.015625 C 3.328125 -29.023438 4.582031 -29.53125 6.5625 -29.53125 C 8.539062 -29.53125 9.875 -29.273438 10.5625 -28.765625 C 11.25 -28.265625 11.648438 -27.53125 11.765625 -26.5625 C 13.179688 -28.5 15.410156 -29.46875 18.453125 -29.46875 C 21.503906 -29.46875 24.390625 -28.03125 27.109375 -25.15625 C 29.835938 -22.28125 31.203125 -18.9375 31.203125 -15.125 C 31.203125 -11.3125 29.847656 -7.96875 27.140625 -5.09375 C 24.429688 -2.21875 21.546875 -0.78125 18.484375 -0.78125 C 15.421875 -0.78125 13.203125 -1.640625 11.828125 -3.359375 L 11.828125 7.953125 C 11.828125 8.816406 11.796875 9.453125 11.734375 9.859375 C 11.679688 10.273438 11.515625 10.753906 11.234375 11.296875 C 10.953125 11.835938 10.472656 12.21875 9.796875 12.4375 C 9.128906 12.664062 8.21875 12.78125 7.0625 12.78125 C 5.90625 12.78125 4.976562 12.664062 4.28125 12.4375 C 3.59375 12.21875 3.109375 11.84375 2.828125 11.3125 C 2.546875 10.789062 2.375 10.320312 2.3125 9.90625 C 2.257812 9.5 2.234375 8.867188 2.234375 8.015625 Z M 13.328125 -18.375 C 12.472656 -17.363281 12.046875 -16.257812 12.046875 -15.0625 C 12.046875 -13.875 12.484375 -12.785156 13.359375 -11.796875 C 14.242188 -10.804688 15.363281 -10.3125 16.71875 -10.3125 C 18.082031 -10.3125 19.238281 -10.796875 20.1875 -11.765625 C 21.144531 -12.734375 21.625 -13.832031 21.625 -15.0625 C 21.625 -16.300781 21.175781 -17.414062 20.28125 -18.40625 C 19.382812 -19.394531 18.21875 -19.890625 16.78125 -19.890625 C 15.34375 -19.890625 14.191406 -19.382812 13.328125 -18.375 Z M 13.328125 -18.375 "/></g></g></g><g fill="#ffffff" fill-opacity="1"><g transform="translate(48.389561, 65.083434)"><g><path d="M 21.40625 -26.390625 C 21.625 -28.484375 23.097656 -29.53125 25.828125 -29.53125 C 27.285156 -29.53125 28.367188 -29.414062 29.078125 -29.1875 C 29.785156 -28.96875 30.28125 -28.578125 30.5625 -28.015625 C 30.84375 -27.453125 31.007812 -26.957031 31.0625 -26.53125 C 31.125 -26.101562 31.15625 -25.457031 31.15625 -24.59375 L 31.15625 -4.984375 C 31.15625 -4.128906 31.125 -3.484375 31.0625 -3.046875 C 31.007812 -2.617188 30.851562 -2.125 30.59375 -1.5625 C 30.070312 -0.59375 28.789062 -0.109375 26.75 -0.109375 C 24.71875 -0.109375 23.351562 -0.359375 22.65625 -0.859375 C 21.96875 -1.367188 21.566406 -2.109375 21.453125 -3.078125 C 20.078125 -1.097656 17.769531 -0.109375 14.53125 -0.109375 C 11.300781 -0.109375 8.304688 -1.582031 5.546875 -4.53125 C 2.785156 -7.488281 1.40625 -10.914062 1.40625 -14.8125 C 1.40625 -18.71875 2.796875 -22.132812 5.578125 -25.0625 C 8.359375 -28 11.410156 -29.46875 14.734375 -29.46875 C 16.003906 -29.46875 17.160156 -29.242188 18.203125 -28.796875 C 19.253906 -28.347656 19.984375 -27.925781 20.390625 -27.53125 C 20.804688 -27.144531 21.144531 -26.765625 21.40625 -26.390625 Z M 11.203125 -14.734375 C 11.203125 -13.503906 11.6875 -12.394531 12.65625 -11.40625 C 13.632812 -10.414062 14.8125 -9.921875 16.1875 -9.921875 C 17.570312 -9.921875 18.722656 -10.421875 19.640625 -11.421875 C 20.554688 -12.429688 21.015625 -13.539062 21.015625 -14.75 C 21.015625 -15.96875 20.570312 -17.097656 19.6875 -18.140625 C 18.8125 -19.191406 17.632812 -19.71875 16.15625 -19.71875 C 14.6875 -19.71875 13.492188 -19.191406 12.578125 -18.140625 C 11.660156 -17.097656 11.203125 -15.960938 11.203125 -14.734375 Z M 11.203125 -14.734375 "/></g></g></g><g fill="#ffffff" fill-opacity="1"><g transform="translate(81.776636, 65.083434)"><g><path d="M 22.296875 -29.1875 C 23.003906 -28.96875 23.59375 -28.585938 24.0625 -28.046875 C 24.53125 -27.503906 24.765625 -26.632812 24.765625 -25.4375 C 24.765625 -24.238281 24.410156 -22.929688 23.703125 -21.515625 C 22.992188 -20.097656 21.96875 -19.390625 20.625 -19.390625 C 19.945312 -19.390625 19.300781 -19.535156 18.6875 -19.828125 C 18.070312 -20.128906 17.257812 -20.28125 16.25 -20.28125 C 15.238281 -20.28125 14.296875 -19.925781 13.421875 -19.21875 C 12.546875 -18.507812 12.109375 -17.648438 12.109375 -16.640625 L 12.109375 -4.875 C 12.109375 -4.019531 12.078125 -3.375 12.015625 -2.9375 C 11.960938 -2.507812 11.785156 -2.015625 11.484375 -1.453125 C 10.921875 -0.484375 9.460938 0 7.109375 0 C 5.316406 0 4.03125 -0.316406 3.25 -0.953125 C 2.65625 -1.472656 2.316406 -2.273438 2.234375 -3.359375 C 2.234375 -3.734375 2.234375 -4.273438 2.234375 -4.984375 L 2.234375 -24.65625 C 2.234375 -25.507812 2.257812 -26.148438 2.3125 -26.578125 C 2.375 -27.015625 2.535156 -27.492188 2.796875 -28.015625 C 3.328125 -29.023438 4.785156 -29.53125 7.171875 -29.53125 C 9.410156 -29.53125 10.8125 -29.097656 11.375 -28.234375 C 11.78125 -27.640625 11.984375 -27.023438 11.984375 -26.390625 C 12.171875 -26.648438 12.441406 -26.96875 12.796875 -27.34375 C 13.148438 -27.71875 13.90625 -28.222656 15.0625 -28.859375 C 16.226562 -29.492188 17.25 -29.8125 18.125 -29.8125 C 19 -29.8125 19.734375 -29.765625 20.328125 -29.671875 C 20.929688 -29.578125 21.585938 -29.414062 22.296875 -29.1875 Z M 22.296875 -29.1875 "/></g></g></g><g fill="#ffffff" fill-opacity="1"><g transform="translate(107.377121, 65.083434)"><g><path d="M 19.609375 -14.796875 L 27.0625 -8.625 C 28 -7.84375 28.585938 -7.242188 28.828125 -6.828125 C 29.066406 -6.421875 29.1875 -6.03125 29.1875 -5.65625 C 29.1875 -4.757812 28.609375 -3.546875 27.453125 -2.015625 C 26.179688 -0.441406 25.0625 0.34375 24.09375 0.34375 C 23.269531 0.34375 22.128906 -0.195312 20.671875 -1.28125 L 20.109375 -1.6875 C 19.253906 -2.394531 17.929688 -3.632812 16.140625 -5.40625 C 14.347656 -7.175781 12.984375 -8.4375 12.046875 -9.1875 L 12.046875 -4.875 C 12.046875 -4.019531 12.015625 -3.375 11.953125 -2.9375 C 11.898438 -2.507812 11.726562 -2.015625 11.4375 -1.453125 C 10.945312 -0.484375 9.503906 0 7.109375 0 C 4.765625 0 3.328125 -0.503906 2.796875 -1.515625 C 2.535156 -2.078125 2.375 -2.570312 2.3125 -3 C 2.257812 -3.425781 2.234375 -4.070312 2.234375 -4.9375 L 2.234375 -38.5 C 2.234375 -39.351562 2.257812 -39.992188 2.3125 -40.421875 C 2.375 -40.859375 2.535156 -41.351562 2.796875 -41.90625 C 3.328125 -42.914062 4.785156 -43.421875 7.171875 -43.421875 C 8.960938 -43.421875 10.234375 -43.101562 10.984375 -42.46875 C 11.617188 -41.945312 11.953125 -41.125 11.984375 -40 C 12.023438 -39.664062 12.046875 -39.144531 12.046875 -38.4375 L 12.046875 -20.671875 C 12.722656 -21.234375 13.738281 -22.1875 15.09375 -23.53125 C 16.457031 -24.875 17.476562 -25.828125 18.15625 -26.390625 L 18.828125 -26.84375 C 20.128906 -27.851562 21.25 -28.359375 22.1875 -28.359375 C 23.125 -28.359375 24.195312 -27.597656 25.40625 -26.078125 C 26.625 -24.566406 27.234375 -23.378906 27.234375 -22.515625 C 27.234375 -21.660156 26.539062 -20.65625 25.15625 -19.5 Z M 19.609375 -14.796875 "/></g></g></g><g fill="#7ed957" fill-opacity="1"><g transform="translate(137.407738, 65.083434)"><g><path d="M 30.703125 -18.28125 C 30.703125 -15.988281 30.128906 -14.289062 28.984375 -13.1875 C 27.847656 -12.09375 26.59375 -11.546875 25.21875 -11.546875 L 11.9375 -11.546875 C 11.9375 -10.492188 12.550781 -9.613281 13.78125 -8.90625 C 15.007812 -8.195312 16.242188 -7.84375 17.484375 -7.84375 C 19.648438 -7.84375 21.347656 -8.066406 22.578125 -8.515625 L 23.203125 -8.734375 C 24.097656 -9.148438 24.84375 -9.359375 25.4375 -9.359375 C 26.632812 -9.359375 27.660156 -8.515625 28.515625 -6.828125 C 29.003906 -5.828125 29.25 -4.972656 29.25 -4.265625 C 29.25 -0.929688 25.269531 0.734375 17.3125 0.734375 C 14.550781 0.734375 12.09375 0.257812 9.9375 -0.6875 C 7.789062 -1.644531 6.125 -2.910156 4.9375 -4.484375 C 2.582031 -7.503906 1.40625 -10.882812 1.40625 -14.625 C 1.40625 -19.332031 2.925781 -23.09375 5.96875 -25.90625 C 9.007812 -28.726562 12.8125 -30.140625 17.375 -30.140625 C 22.5625 -30.140625 26.367188 -28.3125 28.796875 -24.65625 C 30.066406 -22.707031 30.703125 -20.582031 30.703125 -18.28125 Z M 18.875 -16.640625 C 20.300781 -16.640625 21.015625 -17.238281 21.015625 -18.4375 C 21.015625 -19.289062 20.6875 -19.976562 20.03125 -20.5 C 19.375 -21.03125 18.4375 -21.296875 17.21875 -21.296875 C 16.007812 -21.296875 14.804688 -20.800781 13.609375 -19.8125 C 12.421875 -18.820312 11.828125 -17.765625 11.828125 -16.640625 Z M 18.875 -16.640625 "/></g></g></g><g fill="#7ed957" fill-opacity="1"><g transform="translate(169.506382, 65.083434)"><g><path d="M 21.40625 -26.390625 C 21.625 -28.484375 23.097656 -29.53125 25.828125 -29.53125 C 27.285156 -29.53125 28.367188 -29.414062 29.078125 -29.1875 C 29.785156 -28.96875 30.28125 -28.578125 30.5625 -28.015625 C 30.84375 -27.453125 31.007812 -26.957031 31.0625 -26.53125 C 31.125 -26.101562 31.15625 -25.457031 31.15625 -24.59375 L 31.15625 -4.984375 C 31.15625 -4.128906 31.125 -3.484375 31.0625 -3.046875 C 31.007812 -2.617188 30.851562 -2.125 30.59375 -1.5625 C 30.070312 -0.59375 28.789062 -0.109375 26.75 -0.109375 C 24.71875 -0.109375 23.351562 -0.359375 22.65625 -0.859375 C 21.96875 -1.367188 21.566406 -2.109375 21.453125 -3.078125 C 20.078125 -1.097656 17.769531 -0.109375 14.53125 -0.109375 C 11.300781 -0.109375 8.304688 -1.582031 5.546875 -4.53125 C 2.785156 -7.488281 1.40625 -10.914062 1.40625 -14.8125 C 1.40625 -18.71875 2.796875 -22.132812 5.578125 -25.0625 C 8.359375 -28 11.410156 -29.46875 14.734375 -29.46875 C 16.003906 -29.46875 17.160156 -29.242188 18.203125 -28.796875 C 19.253906 -28.347656 19.984375 -27.925781 20.390625 -27.53125 C 20.804688 -27.144531 21.144531 -26.765625 21.40625 -26.390625 Z M 11.203125 -14.734375 C 11.203125 -13.503906 11.6875 -12.394531 12.65625 -11.40625 C 13.632812 -10.414062 14.8125 -9.921875 16.1875 -9.921875 C 17.570312 -9.921875 18.722656 -10.421875 19.640625 -11.421875 C 20.554688 -12.429688 21.015625 -13.539062 21.015625 -14.75 C 21.015625 -15.96875 20.570312 -17.097656 19.6875 -18.140625 C 18.8125 -19.191406 17.632812 -19.71875 16.15625 -19.71875 C 14.6875 -19.71875 13.492188 -19.191406 12.578125 -18.140625 C 11.660156 -17.097656 11.203125 -15.960938 11.203125 -14.734375 Z M 11.203125 -14.734375 "/></g></g></g><g fill="#7ed957" fill-opacity="1"><g transform="translate(202.893457, 65.083434)"><g><path d="M 2.46875 -2.640625 C 1.757812 -3.085938 1.40625 -3.796875 1.40625 -4.765625 C 1.40625 -5.734375 2.113281 -7.207031 3.53125 -9.1875 C 3.9375 -9.820312 4.597656 -10.140625 5.515625 -10.140625 C 6.429688 -10.140625 7.671875 -9.679688 9.234375 -8.765625 C 10.804688 -7.847656 12.226562 -7.390625 13.5 -7.390625 C 15.78125 -7.390625 16.921875 -7.835938 16.921875 -8.734375 C 16.921875 -9.453125 15.671875 -9.976562 13.171875 -10.3125 C 10.816406 -10.644531 8.476562 -11.519531 6.15625 -12.9375 C 5.070312 -13.613281 4.175781 -14.671875 3.46875 -16.109375 C 2.757812 -17.546875 2.40625 -19.253906 2.40625 -21.234375 C 2.40625 -27.140625 6.457031 -30.09375 14.5625 -30.09375 C 17.21875 -30.09375 19.945312 -29.457031 22.75 -28.1875 C 24.050781 -27.582031 24.703125 -26.832031 24.703125 -25.9375 C 24.703125 -25.039062 24.289062 -23.9375 23.46875 -22.625 C 22.65625 -21.320312 21.816406 -20.671875 20.953125 -20.671875 C 20.503906 -20.671875 19.671875 -20.953125 18.453125 -21.515625 C 17.242188 -22.078125 15.929688 -22.359375 14.515625 -22.359375 C 12.304688 -22.359375 11.203125 -21.945312 11.203125 -21.125 C 11.203125 -20 12.472656 -19.269531 15.015625 -18.9375 C 17.484375 -18.675781 19.875 -17.96875 22.1875 -16.8125 C 23.269531 -16.289062 24.175781 -15.382812 24.90625 -14.09375 C 25.632812 -12.800781 26 -11.179688 26 -9.234375 C 26 -7.296875 25.632812 -5.644531 24.90625 -4.28125 C 24.175781 -2.914062 23.160156 -1.898438 21.859375 -1.234375 C 19.460938 -0.078125 16.460938 0.5 12.859375 0.5 C 9.253906 0.5 5.789062 -0.546875 2.46875 -2.640625 Z M 2.46875 -2.640625 "/></g></g></g><g fill="#7ed957" fill-opacity="1"><g transform="translate(230.286537, 65.083434)"><g><path d="M 29.703125 -29.1875 C 31.898438 -28.21875 33 -27.039062 33 -25.65625 C 33 -24.988281 32.847656 -24.351562 32.546875 -23.75 C 32.253906 -23.15625 32.109375 -22.84375 32.109375 -22.8125 L 17.421875 10.03125 C 17.128906 10.738281 16.878906 11.28125 16.671875 11.65625 C 16.460938 12.03125 16.132812 12.382812 15.6875 12.71875 C 15.238281 13.050781 14.675781 13.21875 14 13.21875 C 13.332031 13.21875 12.34375 12.941406 11.03125 12.390625 C 8.832031 11.410156 7.734375 10.25 7.734375 8.90625 C 7.734375 8.007812 9.523438 3.734375 13.109375 -3.921875 L 1.96875 -22.6875 C 1.21875 -23.925781 0.84375 -24.84375 0.84375 -25.4375 C 0.84375 -26.632812 1.847656 -27.832031 3.859375 -29.03125 C 5.128906 -29.769531 6.117188 -30.140625 6.828125 -30.140625 C 7.546875 -30.140625 8.128906 -29.988281 8.578125 -29.6875 C 9.023438 -29.394531 9.347656 -29.085938 9.546875 -28.765625 C 9.753906 -28.453125 10.78125 -26.71875 12.625 -23.5625 C 14.476562 -20.40625 16.25 -17.460938 17.9375 -14.734375 C 18.113281 -15.328125 19.117188 -17.628906 20.953125 -21.640625 C 22.785156 -25.660156 23.765625 -27.800781 23.890625 -28.0625 C 24.023438 -28.332031 24.242188 -28.65625 24.546875 -29.03125 C 25.023438 -29.664062 25.703125 -29.984375 26.578125 -29.984375 C 27.460938 -29.984375 28.503906 -29.71875 29.703125 -29.1875 Z M 29.703125 -29.1875 "/></g></g></g><g fill="#ffffff" fill-opacity="1"><g transform="translate(15.786753, 65.083434)"><g><path d="M 2.234375 8.015625 L 2.234375 -24.703125 C 2.234375 -25.566406 2.257812 -26.203125 2.3125 -26.609375 C 2.375 -27.023438 2.535156 -27.492188 2.796875 -28.015625 C 3.328125 -29.023438 4.582031 -29.53125 6.5625 -29.53125 C 8.539062 -29.53125 9.875 -29.273438 10.5625 -28.765625 C 11.25 -28.265625 11.648438 -27.53125 11.765625 -26.5625 C 13.179688 -28.5 15.410156 -29.46875 18.453125 -29.46875 C 21.503906 -29.46875 24.390625 -28.03125 27.109375 -25.15625 C 29.835938 -22.28125 31.203125 -18.9375 31.203125 -15.125 C 31.203125 -11.3125 29.847656 -7.96875 27.140625 -5.09375 C 24.429688 -2.21875 21.546875 -0.78125 18.484375 -0.78125 C 15.421875 -0.78125 13.203125 -1.640625 11.828125 -3.359375 L 11.828125 7.953125 C 11.828125 8.816406 11.796875 9.453125 11.734375 9.859375 C 11.679688 10.273438 11.515625 10.753906 11.234375 11.296875 C 10.953125 11.835938 10.472656 12.21875 9.796875 12.4375 C 9.128906 12.664062 8.21875 12.78125 7.0625 12.78125 C 5.90625 12.78125 4.976562 12.664062 4.28125 12.4375 C 3.59375 12.21875 3.109375 11.84375 2.828125 11.3125 C 2.546875 10.789062 2.375 10.320312 2.3125 9.90625 C 2.257812 9.5 2.234375 8.867188 2.234375 8.015625 Z M 13.328125 -18.375 C 12.472656 -17.363281 12.046875 -16.257812 12.046875 -15.0625 C 12.046875 -13.875 12.484375 -12.785156 13.359375 -11.796875 C 14.242188 -10.804688 15.363281 -10.3125 16.71875 -10.3125 C 18.082031 -10.3125 19.238281 -10.796875 20.1875 -11.765625 C 21.144531 -12.734375 21.625 -13.832031 21.625 -15.0625 C 21.625 -16.300781 21.175781 -17.414062 20.28125 -18.40625 C 19.382812 -19.394531 18.21875 -19.890625 16.78125 -19.890625 C 15.34375 -19.890625 14.191406 -19.382812 13.328125 -18.375 Z M 13.328125 -18.375 "/></g></g></g><g fill="#ffffff" fill-opacity="1"><g transform="translate(48.389561, 65.083434)"><g><path d="M 21.40625 -26.390625 C 21.625 -28.484375 23.097656 -29.53125 25.828125 -29.53125 C 27.285156 -29.53125 28.367188 -29.414062 29.078125 -29.1875 C 29.785156 -28.96875 30.28125 -28.578125 30.5625 -28.015625 C 30.84375 -27.453125 31.007812 -26.957031 31.0625 -26.53125 C 31.125 -26.101562 31.15625 -25.457031 31.15625 -24.59375 L 31.15625 -4.984375 C 31.15625 -4.128906 31.125 -3.484375 31.0625 -3.046875 C 31.007812 -2.617188 30.851562 -2.125 30.59375 -1.5625 C 30.070312 -0.59375 28.789062 -0.109375 26.75 -0.109375 C 24.71875 -0.109375 23.351562 -0.359375 22.65625 -0.859375 C 21.96875 -1.367188 21.566406 -2.109375 21.453125 -3.078125 C 20.078125 -1.097656 17.769531 -0.109375 14.53125 -0.109375 C 11.300781 -0.109375 8.304688 -1.582031 5.546875 -4.53125 C 2.785156 -7.488281 1.40625 -10.914062 1.40625 -14.8125 C 1.40625 -18.71875 2.796875 -22.132812 5.578125 -25.0625 C 8.359375 -28 11.410156 -29.46875 14.734375 -29.46875 C 16.003906 -29.46875 17.160156 -29.242188 18.203125 -28.796875 C 19.253906 -28.347656 19.984375 -27.925781 20.390625 -27.53125 C 20.804688 -27.144531 21.144531 -26.765625 21.40625 -26.390625 Z M 11.203125 -14.734375 C 11.203125 -13.503906 11.6875 -12.394531 12.65625 -11.40625 C 13.632812 -10.414062 14.8125 -9.921875 16.1875 -9.921875 C 17.570312 -9.921875 18.722656 -10.421875 19.640625 -11.421875 C 20.554688 -12.429688 21.015625 -13.539062 21.015625 -14.75 C 21.015625 -15.96875 20.570312 -17.097656 19.6875 -18.140625 C 18.8125 -19.191406 17.632812 -19.71875 16.15625 -19.71875 C 14.6875 -19.71875 13.492188 -19.191406 12.578125 -18.140625 C 11.660156 -17.097656 11.203125 -15.960938 11.203125 -14.734375 Z M 11.203125 -14.734375 "/></g></g></g><g fill="#ffffff" fill-opacity="1"><g transform="translate(81.776636, 65.083434)"><g><path d="M 22.296875 -29.1875 C 23.003906 -28.96875 23.59375 -28.585938 24.0625 -28.046875 C 24.53125 -27.503906 24.765625 -26.632812 24.765625 -25.4375 C 24.765625 -24.238281 24.410156 -22.929688 23.703125 -21.515625 C 22.992188 -20.097656 21.96875 -19.390625 20.625 -19.390625 C 19.945312 -19.390625 19.300781 -19.535156 18.6875 -19.828125 C 18.070312 -20.128906 17.257812 -20.28125 16.25 -20.28125 C 15.238281 -20.28125 14.296875 -19.925781 13.421875 -19.21875 C 12.546875 -18.507812 12.109375 -17.648438 12.109375 -16.640625 L 12.109375 -4.875 C 12.109375 -4.019531 12.078125 -3.375 12.015625 -2.9375 C 11.960938 -2.507812 11.785156 -2.015625 11.484375 -1.453125 C 10.921875 -0.484375 9.460938 0 7.109375 0 C 5.316406 0 4.03125 -0.316406 3.25 -0.953125 C 2.65625 -1.472656 2.316406 -2.273438 2.234375 -3.359375 C 2.234375 -3.734375 2.234375 -4.273438 2.234375 -4.984375 L 2.234375 -24.65625 C 2.234375 -25.507812 2.257812 -26.148438 2.3125 -26.578125 C 2.375 -27.015625 2.535156 -27.492188 2.796875 -28.015625 C 3.328125 -29.023438 4.785156 -29.53125 7.171875 -29.53125 C 9.410156 -29.53125 10.8125 -29.097656 11.375 -28.234375 C 11.78125 -27.640625 11.984375 -27.023438 11.984375 -26.390625 C 12.171875 -26.648438 12.441406 -26.96875 12.796875 -27.34375 C 13.148438 -27.71875 13.90625 -28.222656 15.0625 -28.859375 C 16.226562 -29.492188 17.25 -29.8125 18.125 -29.8125 C 19 -29.8125 19.734375 -29.765625 20.328125 -29.671875 C 20.929688 -29.578125 21.585938 -29.414062 22.296875 -29.1875 Z M 22.296875 -29.1875 "/></g></g></g><g fill="#ffffff" fill-opacity="1"><g transform="translate(107.377121, 65.083434)"><g><path d="M 19.609375 -14.796875 L 27.0625 -8.625 C 28 -7.84375 28.585938 -7.242188 28.828125 -6.828125 C 29.066406 -6.421875 29.1875 -6.03125 29.1875 -5.65625 C 29.1875 -4.757812 28.609375 -3.546875 27.453125 -2.015625 C 26.179688 -0.441406 25.0625 0.34375 24.09375 0.34375 C 23.269531 0.34375 22.128906 -0.195312 20.671875 -1.28125 L 20.109375 -1.6875 C 19.253906 -2.394531 17.929688 -3.632812 16.140625 -5.40625 C 14.347656 -7.175781 12.984375 -8.4375 12.046875 -9.1875 L 12.046875 -4.875 C 12.046875 -4.019531 12.015625 -3.375 11.953125 -2.9375 C 11.898438 -2.507812 11.726562 -2.015625 11.4375 -1.453125 C 10.945312 -0.484375 9.503906 0 7.109375 0 C 4.765625 0 3.328125 -0.503906 2.796875 -1.515625 C 2.535156 -2.078125 2.375 -2.570312 2.3125 -3 C 2.257812 -3.425781 2.234375 -4.070312 2.234375 -4.9375 L 2.234375 -38.5 C 2.234375 -39.351562 2.257812 -39.992188 2.3125 -40.421875 C 2.375 -40.859375 2.535156 -41.351562 2.796875 -41.90625 C 3.328125 -42.914062 4.785156 -43.421875 7.171875 -43.421875 C 8.960938 -43.421875 10.234375 -43.101562 10.984375 -42.46875 C 11.617188 -41.945312 11.953125 -41.125 11.984375 -40 C 12.023438 -39.664062 12.046875 -39.144531 12.046875 -38.4375 L 12.046875 -20.671875 C 12.722656 -21.234375 13.738281 -22.1875 15.09375 -23.53125 C 16.457031 -24.875 17.476562 -25.828125 18.15625 -26.390625 L 18.828125 -26.84375 C 20.128906 -27.851562 21.25 -28.359375 22.1875 -28.359375 C 23.125 -28.359375 24.195312 -27.597656 25.40625 -26.078125 C 26.625 -24.566406 27.234375 -23.378906 27.234375 -22.515625 C 27.234375 -21.660156 26.539062 -20.65625 25.15625 -19.5 Z M 19.609375 -14.796875 "/></g></g></g><g fill="#7ed957" fill-opacity="1"><g transform="translate(137.407738, 65.083434)"><g><path d="M 30.703125 -18.28125 C 30.703125 -15.988281 30.128906 -14.289062 28.984375 -13.1875 C 27.847656 -12.09375 26.59375 -11.546875 25.21875 -11.546875 L 11.9375 -11.546875 C 11.9375 -10.492188 12.550781 -9.613281 13.78125 -8.90625 C 15.007812 -8.195312 16.242188 -7.84375 17.484375 -7.84375 C 19.648438 -7.84375 21.347656 -8.066406 22.578125 -8.515625 L 23.203125 -8.734375 C 24.097656 -9.148438 24.84375 -9.359375 25.4375 -9.359375 C 26.632812 -9.359375 27.660156 -8.515625 28.515625 -6.828125 C 29.003906 -5.828125 29.25 -4.972656 29.25 -4.265625 C 29.25 -0.929688 25.269531 0.734375 17.3125 0.734375 C 14.550781 0.734375 12.09375 0.257812 9.9375 -0.6875 C 7.789062 -1.644531 6.125 -2.910156 4.9375 -4.484375 C 2.582031 -7.503906 1.40625 -10.882812 1.40625 -14.625 C 1.40625 -19.332031 2.925781 -23.09375 5.96875 -25.90625 C 9.007812 -28.726562 12.8125 -30.140625 17.375 -30.140625 C 22.5625 -30.140625 26.367188 -28.3125 28.796875 -24.65625 C 30.066406 -22.707031 30.703125 -20.582031 30.703125 -18.28125 Z M 18.875 -16.640625 C 20.300781 -16.640625 21.015625 -17.238281 21.015625 -18.4375 C 21.015625 -19.289062 20.6875 -19.976562 20.03125 -20.5 C 19.375 -21.03125 18.4375 -21.296875 17.21875 -21.296875 C 16.007812 -21.296875 14.804688 -20.800781 13.609375 -19.8125 C 12.421875 -18.820312 11.828125 -17.765625 11.828125 -16.640625 Z M 18.875 -16.640625 "/></g></g></g><g fill="#7ed957" fill-opacity="1"><g transform="translate(169.506382, 65.083434)"><g><path d="M 21.40625 -26.390625 C 21.625 -28.484375 23.097656 -29.53125 25.828125 -29.53125 C 27.285156 -29.53125 28.367188 -29.414062 29.078125 -29.1875 C 29.785156 -28.96875 30.28125 -28.578125 30.5625 -28.015625 C 30.84375 -27.453125 31.007812 -26.957031 31.0625 -26.53125 C 31.125 -26.101562 31.15625 -25.457031 31.15625 -24.59375 L 31.15625 -4.984375 C 31.15625 -4.128906 31.125 -3.484375 31.0625 -3.046875 C 31.007812 -2.617188 30.851562 -2.125 30.59375 -1.5625 C 30.070312 -0.59375 28.789062 -0.109375 26.75 -0.109375 C 24.71875 -0.109375 23.351562 -0.359375 22.65625 -0.859375 C 21.96875 -1.367188 21.566406 -2.109375 21.453125 -3.078125 C 20.078125 -1.097656 17.769531 -0.109375 14.53125 -0.109375 C 11.300781 -0.109375 8.304688 -1.582031 5.546875 -4.53125 C 2.785156 -7.488281 1.40625 -10.914062 1.40625 -14.8125 C 1.40625 -18.71875 2.796875 -22.132812 5.578125 -25.0625 C 8.359375 -28 11.410156 -29.46875 14.734375 -29.46875 C 16.003906 -29.46875 17.160156 -29.242188 18.203125 -28.796875 C 19.253906 -28.347656 19.984375 -27.925781 20.390625 -27.53125 C 20.804688 -27.144531 21.144531 -26.765625 21.40625 -26.390625 Z M 11.203125 -14.734375 C 11.203125 -13.503906 11.6875 -12.394531 12.65625 -11.40625 C 13.632812 -10.414062 14.8125 -9.921875 16.1875 -9.921875 C 17.570312 -9.921875 18.722656 -10.421875 19.640625 -11.421875 C 20.554688 -12.429688 21.015625 -13.539062 21.015625 -14.75 C 21.015625 -15.96875 20.570312 -17.097656 19.6875 -18.140625 C 18.8125 -19.191406 17.632812 -19.71875 16.15625 -19.71875 C 14.6875 -19.71875 13.492188 -19.191406 12.578125 -18.140625 C 11.660156 -17.097656 11.203125 -15.960938 11.203125 -14.734375 Z M 11.203125 -14.734375 "/></g></g></g><g fill="#7ed957" fill-opacity="1"><g transform="translate(202.893457, 65.083434)"><g><path d="M 2.46875 -2.640625 C 1.757812 -3.085938 1.40625 -3.796875 1.40625 -4.765625 C 1.40625 -5.734375 2.113281 -7.207031 3.53125 -9.1875 C 3.9375 -9.820312 4.597656 -10.140625 5.515625 -10.140625 C 6.429688 -10.140625 7.671875 -9.679688 9.234375 -8.765625 C 10.804688 -7.847656 12.226562 -7.390625 13.5 -7.390625 C 15.78125 -7.390625 16.921875 -7.835938 16.921875 -8.734375 C 16.921875 -9.453125 15.671875 -9.976562 13.171875 -10.3125 C 10.816406 -10.644531 8.476562 -11.519531 6.15625 -12.9375 C 5.070312 -13.613281 4.175781 -14.671875 3.46875 -16.109375 C 2.757812 -17.546875 2.40625 -19.253906 2.40625 -21.234375 C 2.40625 -27.140625 6.457031 -30.09375 14.5625 -30.09375 C 17.21875 -30.09375 19.945312 -29.457031 22.75 -28.1875 C 24.050781 -27.582031 24.703125 -26.832031 24.703125 -25.9375 C 24.703125 -25.039062 24.289062 -23.9375 23.46875 -22.625 C 22.65625 -21.320312 21.816406 -20.671875 20.953125 -20.671875 C 20.503906 -20.671875 19.671875 -20.953125 18.453125 -21.515625 C 17.242188 -22.078125 15.929688 -22.359375 14.515625 -22.359375 C 12.304688 -22.359375 11.203125 -21.945312 11.203125 -21.125 C 11.203125 -20 12.472656 -19.269531 15.015625 -18.9375 C 17.484375 -18.675781 19.875 -17.96875 22.1875 -16.8125 C 23.269531 -16.289062 24.175781 -15.382812 24.90625 -14.09375 C 25.632812 -12.800781 26 -11.179688 26 -9.234375 C 26 -7.296875 25.632812 -5.644531 24.90625 -4.28125 C 24.175781 -2.914062 23.160156 -1.898438 21.859375 -1.234375 C 19.460938 -0.078125 16.460938 0.5 12.859375 0.5 C 9.253906 0.5 5.789062 -0.546875 2.46875 -2.640625 Z M 2.46875 -2.640625 "/></g></g></g><g fill="#7ed957" fill-opacity="1"><g transform="translate(230.286537, 65.083434)"><g><path d="M 29.703125 -29.1875 C 31.898438 -28.21875 33 -27.039062 33 -25.65625 C 33 -24.988281 32.847656 -24.351562 32.546875 -23.75 C 32.253906 -23.15625 32.109375 -22.84375 32.109375 -22.8125 L 17.421875 10.03125 C 17.128906 10.738281 16.878906 11.28125 16.671875 11.65625 C 16.460938 12.03125 16.132812 12.382812 15.6875 12.71875 C 15.238281 13.050781 14.675781 13.21875 14 13.21875 C 13.332031 13.21875 12.34375 12.941406 11.03125 12.390625 C 8.832031 11.410156 7.734375 10.25 7.734375 8.90625 C 7.734375 8.007812 9.523438 3.734375 13.109375 -3.921875 L 1.96875 -22.6875 C 1.21875 -23.925781 0.84375 -24.84375 0.84375 -25.4375 C 0.84375 -26.632812 1.847656 -27.832031 3.859375 -29.03125 C 5.128906 -29.769531 6.117188 -30.140625 6.828125 -30.140625 C 7.546875 -30.140625 8.128906 -29.988281 8.578125 -29.6875 C 9.023438 -29.394531 9.347656 -29.085938 9.546875 -28.765625 C 9.753906 -28.453125 10.78125 -26.71875 12.625 -23.5625 C 14.476562 -20.40625 16.25 -17.460938 17.9375 -14.734375 C 18.113281 -15.328125 19.117188 -17.628906 20.953125 -21.640625 C 22.785156 -25.660156 23.765625 -27.800781 23.890625 -28.0625 C 24.023438 -28.332031 24.242188 -28.65625 24.546875 -29.03125 C 25.023438 -29.664062 25.703125 -29.984375 26.578125 -29.984375 C 27.460938 -29.984375 28.503906 -29.71875 29.703125 -29.1875 Z M 29.703125 -29.1875 "/></g></g></g></svg>